<mxfile host="Electron" modified="2024-03-20T03:45:37.524Z" agent="Mozilla/5.0 (Macintosh; Intel Mac OS X 10_15_7) AppleWebKit/537.36 (KHTML, like Gecko) draw.io/21.5.0 Chrome/112.0.5615.204 Electron/24.5.1 Safari/537.36" etag="37-GysCXQSSFAbUTi31J" version="21.5.0" type="device" pages="2">
  <diagram name="Details-Fullflow-CICD (DemoEnv)" id="E84uhxOiiXsGITvi9vRW">
    <mxGraphModel dx="2021" dy="1843" grid="1" gridSize="10" guides="1" tooltips="1" connect="1" arrows="1" fold="1" page="1" pageScale="1" pageWidth="827" pageHeight="1169" math="0" shadow="0">
      <root>
        <mxCell id="v4nXMgOu6cCWpLo_1OXx-0" />
        <mxCell id="v4nXMgOu6cCWpLo_1OXx-1" parent="v4nXMgOu6cCWpLo_1OXx-0" />
        <mxCell id="8Qq7uhaB4SwZ29idJvw9-6" value="" style="whiteSpace=wrap;html=1;aspect=fixed;" vertex="1" parent="v4nXMgOu6cCWpLo_1OXx-1">
          <mxGeometry x="126" y="240" width="740" height="740" as="geometry" />
        </mxCell>
        <mxCell id="8Qq7uhaB4SwZ29idJvw9-2" value="" style="whiteSpace=wrap;html=1;aspect=fixed;" vertex="1" parent="v4nXMgOu6cCWpLo_1OXx-1">
          <mxGeometry x="61" y="209" width="819" height="819" as="geometry" />
        </mxCell>
        <mxCell id="8Qq7uhaB4SwZ29idJvw9-4" value="" style="whiteSpace=wrap;html=1;aspect=fixed;" vertex="1" parent="v4nXMgOu6cCWpLo_1OXx-1">
          <mxGeometry x="127" y="238" width="740" height="740" as="geometry" />
        </mxCell>
        <mxCell id="v4nXMgOu6cCWpLo_1OXx-4" value="&lt;font style=&quot;&quot;&gt;&lt;i style=&quot;&quot;&gt;&lt;br&gt;&lt;/i&gt;&lt;/font&gt;" style="text;html=1;align=center;verticalAlign=middle;resizable=0;points=[];autosize=1;strokeColor=none;fillColor=none;rotation=-90;" parent="v4nXMgOu6cCWpLo_1OXx-1" vertex="1">
          <mxGeometry x="451" y="249" width="20" height="30" as="geometry" />
        </mxCell>
        <mxCell id="v4nXMgOu6cCWpLo_1OXx-28" value="" style="group" parent="v4nXMgOu6cCWpLo_1OXx-1" vertex="1" connectable="0">
          <mxGeometry x="380" y="18" width="140" height="122" as="geometry" />
        </mxCell>
        <mxCell id="v4nXMgOu6cCWpLo_1OXx-29" value="" style="whiteSpace=wrap;html=1;aspect=fixed;" parent="v4nXMgOu6cCWpLo_1OXx-28" vertex="1">
          <mxGeometry width="122" height="122" as="geometry" />
        </mxCell>
        <mxCell id="qhsESezhetcFB7Lr2Ghn-0" value="Github&amp;nbsp;Repositories" style="dashed=0;outlineConnect=0;html=1;align=center;labelPosition=center;verticalLabelPosition=bottom;verticalAlign=top;shape=mxgraph.weblogos.github" parent="v4nXMgOu6cCWpLo_1OXx-28" vertex="1">
          <mxGeometry x="25.16999999999996" y="21.5" width="75" height="75" as="geometry" />
        </mxCell>
        <mxCell id="v4nXMgOu6cCWpLo_1OXx-31" value="" style="group" parent="v4nXMgOu6cCWpLo_1OXx-1" vertex="1" connectable="0">
          <mxGeometry x="43.5" y="17" width="130.5" height="128" as="geometry" />
        </mxCell>
        <mxCell id="v4nXMgOu6cCWpLo_1OXx-32" value="" style="whiteSpace=wrap;html=1;aspect=fixed;" parent="v4nXMgOu6cCWpLo_1OXx-31" vertex="1">
          <mxGeometry width="120" height="120" as="geometry" />
        </mxCell>
        <mxCell id="v4nXMgOu6cCWpLo_1OXx-33" value="&lt;font style=&quot;font-size: 11px;&quot;&gt;Developer&lt;br&gt;(Local PC/ Laptop)&lt;/font&gt;" style="shape=mxgraph.signs.tech.computer;html=1;pointerEvents=1;fillColor=#000000;strokeColor=none;verticalLabelPosition=bottom;verticalAlign=top;align=center;" parent="v4nXMgOu6cCWpLo_1OXx-31" vertex="1">
          <mxGeometry x="21.796511627906977" y="5.9147286821705425" width="78.90697674418605" height="77.3953488372093" as="geometry" />
        </mxCell>
        <mxCell id="v4nXMgOu6cCWpLo_1OXx-34" value="" style="ellipse;shape=doubleEllipse;whiteSpace=wrap;html=1;fontFamily=Helvetica;fontSize=11;fontColor=default;" parent="v4nXMgOu6cCWpLo_1OXx-1" vertex="1">
          <mxGeometry x="-260" y="573" height="67" as="geometry" />
        </mxCell>
        <mxCell id="v4nXMgOu6cCWpLo_1OXx-35" value="" style="ellipse;shape=doubleEllipse;whiteSpace=wrap;html=1;fontFamily=Helvetica;fontSize=11;fontColor=default;" parent="v4nXMgOu6cCWpLo_1OXx-1" vertex="1">
          <mxGeometry x="-40" y="-300" height="20" as="geometry" />
        </mxCell>
        <mxCell id="v4nXMgOu6cCWpLo_1OXx-45" value="&lt;font style=&quot;&quot;&gt;&lt;i style=&quot;&quot;&gt;&lt;br&gt;&lt;/i&gt;&lt;/font&gt;" style="text;html=1;align=center;verticalAlign=middle;resizable=0;points=[];autosize=1;strokeColor=none;fillColor=none;rotation=-90;" parent="v4nXMgOu6cCWpLo_1OXx-1" vertex="1">
          <mxGeometry x="422" y="249" width="20" height="30" as="geometry" />
        </mxCell>
        <mxCell id="JrpOHv_HIN8pEH2THoFz-1" style="edgeStyle=none;shape=connector;rounded=0;orthogonalLoop=1;jettySize=auto;html=1;labelBackgroundColor=default;strokeColor=default;align=center;verticalAlign=middle;fontFamily=Helvetica;fontSize=11;fontColor=default;endArrow=classic;entryX=0.5;entryY=0;entryDx=0;entryDy=0;" parent="v4nXMgOu6cCWpLo_1OXx-1" source="v4nXMgOu6cCWpLo_1OXx-29" target="tvrNK7fGIe-bai2FnhoD-1" edge="1">
          <mxGeometry relative="1" as="geometry">
            <mxPoint x="447" y="360" as="targetPoint" />
          </mxGeometry>
        </mxCell>
        <mxCell id="JrpOHv_HIN8pEH2THoFz-2" value="Merged Code&lt;br style=&quot;border-color: var(--border-color);&quot;&gt;branch: develop&lt;br&gt;&lt;i&gt;Webhook triggers&lt;/i&gt;" style="edgeLabel;html=1;align=center;verticalAlign=middle;resizable=0;points=[];fontSize=11;fontFamily=Helvetica;fontColor=default;" parent="JrpOHv_HIN8pEH2THoFz-1" connectable="0" vertex="1">
          <mxGeometry x="-0.0445" relative="1" as="geometry">
            <mxPoint y="-13" as="offset" />
          </mxGeometry>
        </mxCell>
        <mxCell id="tvrNK7fGIe-bai2FnhoD-3" value="" style="group" parent="v4nXMgOu6cCWpLo_1OXx-1" connectable="0" vertex="1">
          <mxGeometry x="364.8" y="429.9999999999999" width="192.16000000000003" height="481.0000000000001" as="geometry" />
        </mxCell>
        <mxCell id="aOVmOSVz81MzRe7H_OzA-2" value="" style="endArrow=classic;html=1;rounded=0;labelBackgroundColor=default;strokeColor=default;align=center;verticalAlign=middle;fontFamily=Helvetica;fontSize=11;fontColor=default;shape=connector;edgeStyle=none;" parent="tvrNK7fGIe-bai2FnhoD-3" edge="1">
          <mxGeometry width="50" height="50" relative="1" as="geometry">
            <mxPoint x="85.19999999999999" y="80.00000000000011" as="sourcePoint" />
            <mxPoint x="85.19999999999999" y="130.0000000000001" as="targetPoint" />
          </mxGeometry>
        </mxCell>
        <mxCell id="aOVmOSVz81MzRe7H_OzA-3" value="Run CI script" style="edgeLabel;html=1;align=center;verticalAlign=middle;resizable=0;points=[];fontSize=11;fontFamily=Helvetica;fontColor=default;" parent="aOVmOSVz81MzRe7H_OzA-2" connectable="0" vertex="1">
          <mxGeometry x="-0.2248" y="2" relative="1" as="geometry">
            <mxPoint as="offset" />
          </mxGeometry>
        </mxCell>
        <mxCell id="LXMvDwuKQ1J4TgHMO9KR-1" value="&lt;font style=&quot;font-size: 12px;&quot;&gt;Helm upgrade cmd&lt;br&gt;&lt;/font&gt;&lt;font style=&quot;font-size: 10px;&quot;&gt;Helm Workspace&amp;nbsp;&amp;nbsp;&lt;/font&gt;" style="shape=parallelogram;perimeter=parallelogramPerimeter;whiteSpace=wrap;html=1;fixedSize=1;" parent="tvrNK7fGIe-bai2FnhoD-3" vertex="1">
          <mxGeometry x="-15.449999999999989" y="320.0000000000001" width="186.65" height="50" as="geometry" />
        </mxCell>
        <mxCell id="LXMvDwuKQ1J4TgHMO9KR-5" value="&lt;b style=&quot;border-color: var(--border-color);&quot;&gt;&lt;font style=&quot;font-size: 10px;&quot;&gt;App Workspace&lt;/font&gt;&lt;/b&gt;" style="shape=parallelogram;perimeter=parallelogramPerimeter;whiteSpace=wrap;html=1;fixedSize=1;" parent="tvrNK7fGIe-bai2FnhoD-3" vertex="1">
          <mxGeometry x="-11.25" y="130.0000000000001" width="186.45" height="49.78" as="geometry" />
        </mxCell>
        <mxCell id="LXMvDwuKQ1J4TgHMO9KR-7" value="" style="group" parent="tvrNK7fGIe-bai2FnhoD-3" connectable="0" vertex="1">
          <mxGeometry x="-28.19999999999999" y="411.0000000000001" width="220.36" height="70" as="geometry" />
        </mxCell>
        <mxCell id="JrpOHv_HIN8pEH2THoFz-24" value="Status" style="shape=parallelogram;perimeter=parallelogramPerimeter;whiteSpace=wrap;html=1;fixedSize=1;" parent="LXMvDwuKQ1J4TgHMO9KR-7" vertex="1">
          <mxGeometry y="12.94" width="190" height="57.06" as="geometry" />
        </mxCell>
        <mxCell id="LXMvDwuKQ1J4TgHMO9KR-3" value="" style="group" parent="tvrNK7fGIe-bai2FnhoD-3" connectable="0" vertex="1">
          <mxGeometry x="-11.25" y="210.0000000000001" width="199.41" height="70" as="geometry" />
        </mxCell>
        <mxCell id="LXMvDwuKQ1J4TgHMO9KR-2" value="&lt;font style=&quot;font-size: 10px;&quot;&gt;ECR&lt;br&gt;(Elastic Container Registry)&amp;nbsp;&lt;br style=&quot;border-color: var(--border-color); background-color: rgb(255, 255, 255);&quot;&gt;&lt;span style=&quot;background-color: rgb(255, 255, 255);&quot;&gt;(DEMO ENV)&lt;/span&gt;&lt;/font&gt;" style="shape=parallelogram;perimeter=parallelogramPerimeter;whiteSpace=wrap;html=1;fixedSize=1;" parent="LXMvDwuKQ1J4TgHMO9KR-3" vertex="1">
          <mxGeometry y="14.0820130475303" width="191.16877944161453" height="55.917986952469704" as="geometry" />
        </mxCell>
        <mxCell id="aOVmOSVz81MzRe7H_OzA-4" value="" style="endArrow=classic;html=1;rounded=0;labelBackgroundColor=default;strokeColor=default;align=center;verticalAlign=middle;fontFamily=Helvetica;fontSize=11;fontColor=default;shape=connector;edgeStyle=none;" parent="tvrNK7fGIe-bai2FnhoD-3" edge="1">
          <mxGeometry width="50" height="50" relative="1" as="geometry">
            <mxPoint x="85.19999999999999" y="180.0000000000001" as="sourcePoint" />
            <mxPoint x="85.19999999999999" y="220.0000000000001" as="targetPoint" />
          </mxGeometry>
        </mxCell>
        <mxCell id="aOVmOSVz81MzRe7H_OzA-5" value="Push Image" style="edgeLabel;html=1;align=center;verticalAlign=middle;resizable=0;points=[];fontSize=11;fontFamily=Helvetica;fontColor=default;" parent="aOVmOSVz81MzRe7H_OzA-4" connectable="0" vertex="1">
          <mxGeometry x="-0.3123" y="-1" relative="1" as="geometry">
            <mxPoint as="offset" />
          </mxGeometry>
        </mxCell>
        <mxCell id="4IYNgyC5TyXu07pGPhku-2" value="" style="endArrow=classic;html=1;rounded=0;labelBackgroundColor=default;strokeColor=default;align=center;verticalAlign=middle;fontFamily=Helvetica;fontSize=11;fontColor=default;shape=connector;edgeStyle=none;" parent="tvrNK7fGIe-bai2FnhoD-3" edge="1">
          <mxGeometry width="50" height="50" relative="1" as="geometry">
            <mxPoint x="87.19999999999999" y="280.0000000000001" as="sourcePoint" />
            <mxPoint x="87.19999999999999" y="320.0000000000001" as="targetPoint" />
          </mxGeometry>
        </mxCell>
        <mxCell id="A5m5tAuAyevlGeEnaqwU-0" value="Run job" style="edgeLabel;html=1;align=center;verticalAlign=middle;resizable=0;points=[];" parent="4IYNgyC5TyXu07pGPhku-2" connectable="0" vertex="1">
          <mxGeometry x="-0.2167" relative="1" as="geometry">
            <mxPoint as="offset" />
          </mxGeometry>
        </mxCell>
        <mxCell id="4IYNgyC5TyXu07pGPhku-5" value="" style="endArrow=classic;html=1;rounded=0;labelBackgroundColor=default;strokeColor=default;align=center;verticalAlign=middle;fontFamily=Helvetica;fontSize=11;fontColor=default;shape=connector;edgeStyle=none;exitX=0.55;exitY=1.055;exitDx=0;exitDy=0;exitPerimeter=0;" parent="tvrNK7fGIe-bai2FnhoD-3" source="LXMvDwuKQ1J4TgHMO9KR-1" edge="1">
          <mxGeometry width="50" height="50" relative="1" as="geometry">
            <mxPoint x="91.19999999999999" y="372.0000000000001" as="sourcePoint" />
            <mxPoint x="87.19999999999999" y="420.0000000000001" as="targetPoint" />
          </mxGeometry>
        </mxCell>
        <mxCell id="4IYNgyC5TyXu07pGPhku-6" value="Jenkins job output" style="edgeLabel;html=1;align=center;verticalAlign=middle;resizable=0;points=[];fontSize=11;fontFamily=Helvetica;fontColor=default;" parent="4IYNgyC5TyXu07pGPhku-5" connectable="0" vertex="1">
          <mxGeometry x="-0.3123" y="-1" relative="1" as="geometry">
            <mxPoint as="offset" />
          </mxGeometry>
        </mxCell>
        <mxCell id="51KXnsdPAeTmRLEndIec-1" style="rounded=0;orthogonalLoop=1;jettySize=auto;html=1;dashed=1;exitX=0;exitY=0.5;exitDx=0;exitDy=0;entryX=0.5;entryY=1;entryDx=0;entryDy=0;edgeStyle=orthogonalEdgeStyle;" parent="tvrNK7fGIe-bai2FnhoD-3" edge="1">
          <mxGeometry relative="1" as="geometry">
            <mxPoint x="-144.8" y="81.00000000000011" as="targetPoint" />
            <mxPoint x="-4.450000000000102" y="345.0000000000001" as="sourcePoint" />
          </mxGeometry>
        </mxCell>
        <mxCell id="JrpOHv_HIN8pEH2THoFz-7" value="- app-chart&lt;br&gt;-&amp;nbsp;deployment-service.yml" style="text;html=1;strokeColor=none;fillColor=none;align=left;verticalAlign=top;whiteSpace=wrap;rounded=0;horizontal=1;" parent="tvrNK7fGIe-bai2FnhoD-3" vertex="1">
          <mxGeometry x="-117.80000000000001" y="90.00000000000011" width="83" height="50" as="geometry" />
        </mxCell>
        <mxCell id="JrpOHv_HIN8pEH2THoFz-8" value="" style="endArrow=none;dashed=1;html=1;dashPattern=1 3;strokeWidth=2;rounded=0;" parent="tvrNK7fGIe-bai2FnhoD-3" edge="1">
          <mxGeometry width="50" height="50" relative="1" as="geometry">
            <mxPoint x="-124.80000000000001" y="130.0000000000001" as="sourcePoint" />
            <mxPoint x="-124.80000000000001" y="62.02173913043487" as="targetPoint" />
          </mxGeometry>
        </mxCell>
        <mxCell id="JrpOHv_HIN8pEH2THoFz-10" value="        Job: tetris app" style="rounded=1;whiteSpace=wrap;html=1;" parent="tvrNK7fGIe-bai2FnhoD-3" vertex="1">
          <mxGeometry x="-0.8000000000000114" y="10.000000000000114" width="156" height="70" as="geometry" />
        </mxCell>
        <mxCell id="JrpOHv_HIN8pEH2THoFz-11" value="" style="shape=image;verticalLabelPosition=bottom;labelBackgroundColor=default;verticalAlign=top;aspect=fixed;imageAspect=0;image=data:image/jpeg,/9j/4AAQSkZJRgABAQAAAQABAAD/2wCEAAoGBxQUExYTExQWFxYYGBgcGRkYGRkYHBkaGRwfICAiFx8ZHyoiISAnIBkZIzgjJysuMTExICE2OzYvOiowMS4BCwsLDw4PHRERHDAoIiQwMjAwMDAwLjAuMDIyMTAwMDAwMDIwMDAwMDIwMDAyMDAwMC4wMDAwMDAwMDAwMDAwMP/AABEIAQgAvwMBIgACEQEDEQH/xAAcAAACAwEBAQEAAAAAAAAAAAAABgQFBwMCAQj/xABNEAACAQIDBAcECAAMBQEJAAABAgMAEQQFIQYSMUEHEyJRYXGBMpGhsRQjQlJicoLBJDNDU3OSorKzwtHhCGOTo/AXFSU0VGSDw9Px/8QAGgEAAgMBAQAAAAAAAAAAAAAAAAMBAgQFBv/EAC0RAAIBAgUDAwQCAwEAAAAAAAABAgMRBBIhMUEFUXETImEykbHRgaEjQsEU/9oADAMBAAIRAxEAPwDZqKKKACiiigAooooAKKKV9r9vcJgAVkffmtpDHYvrwLckHix8gaAGelLaPpLwGFJUy9bIPsQ2cg9zNcIp8C1/Cs9xuY5tnNxGvUYU8gxSNh+N7b0vkBu+Aqqz7ZfB4OMxPiJJ8Wy2jigVd1XJAXfHaPHS1wTrYUE2LXOumbFyEjDxRQrrqfrX8Dc2UeW6fOlmXanMsS+59JxUjn7ELOpI/JCBf3Uz7JdFEktpcaTEnERLbrGH4zwQHuFz+U1p+UZRBhk6vDxJGvPdGp8WJ1Y+JJNLlNLYuoGKpshm8uphxBvzkmUH1EkgPwr6djc4j1EOIH5J0/yS3rczIO+vJmFU9VlvTMHbPc2wZ7c+Mhtp9d1jL6dcCp9KYMk6ZsXGQMRHFOumo+qfzuLofLdHnWrtKCLEXB4g8D50s53sDgMRc9T1Lm/bhtHqeZW24fVb1ZVVyVdNl1spt1hMd2YZN2W1zFJZZPGwvZgO9Sbc7UyV+etqOj/E4P66JuuiQ7wkjuskdtQzKNRb7yk246U59GfSf1pTC45h1hsIpjYCQ8lk5Bzybg3DQ23mJp7FGmjU6KKKkgKKKKACiiigAooooAKKKKACiilDpX2hbCYFjG27LMwijI4qWBLMPEIrWPfu0AK/SH0jymU4HLbmTe3HlQbzF+aQ+I1Bflra1riHkew2Hwq/ScxIllJ3hGTvrvHU3v8Axr3NyT2R/aqr2DzHAYCH6RNIJMTICFSMb7RJyW47Ks3E3I5DkbwM224E8hd1e/2VuLKO4a/Ggkvdo9qMViHTDYVSHl0VE4he927vcAL91NmxGwsOCHWPaXEH2pSPZvxEV+A724ny0HLozyHqoBipADPiVVyeO5EdURe4WsT3nvsKaZZOQpFSpwhkIn15bcK5MxNfBXqQBRvMyqO9iAPeaTqx2iPNFfFYEXBBB4EEEHyIr7UEhRRRUAFZb0m7DrGGxeGW0fGaMDRb8XQcl+8OA48L21IVU7RbXYLBnq55LuRcxqpkax+8BoAfxEXplNtPQpO1tSh6ItvzLu4HFPeQD6mRjrIAPYcni4HA/aA11F21GvzDn74dcSZMC7iO4eMFSjwsDewv90gFSDwsOIud86PtpPp2DjmNusF0lA5SLa5tyDAhgO5hWsztDHRRRQQFFFFABRRRQAUUUUAU21ufpgsNJiHF90WVeBd20VR5nieQueVYBiMRjM0xI3i0szXsL2SNb67o4Ig014nS+8x1e/8AiCzA3wuHHs9uVvMWRPgZK57MquBy+N0A+kYodYWtqEPs8eQUiw+8zGgk54LYrAYMA4xziJuPVrcIP0gi/m5se4Vw2qzGB8JLBDhYoUsCCoVSCrBrgIo7u88TUZmJJJJJOpJ1JPjUHPHtBJ5W95A/egDRei7Fl8rw5PFesQeSSMo9ygCmCqDo6w3V5dhV70L/APVZn/zCr+sU37maYrQpNttq0y+ANYPNJcRIeduLNbXdFx5kgc7jNsPsvmWaEYidxutqrTEgWP8AMxqDZeHIA8bnjTVjtnXxmcSSYhD9Gw6Q7gYHdluu8AORXfMhbyAOhp6pmbItNymXM9RK2B2MxOBmctPG0Dobom8LyXXdaxFhpvC978PR1oopUpOTuxiVgoooqCT6DSnP0d4WWWafEGWWSWR3J32QKCeyqhCDZVstyTw5cKa6KspNbENJ7mZbUdFe6pkwTsxAuYXIJP8ARvpr4Nx76OgbNjHipsK1wJY94A6WkiNiLHgSrG/5BWm1mmewDCZ9hJ1FlmkjJt96QmKT4OGPiTT6dRt2YqpBJXRtNFFFOEhRRRQAUUUUAFcpZQoLMQAASSTYADiSTwFencAEk2A1JPIVhnSf0gtjHOGwxIwwNiRxxDA/3L8Bz4nlYAq+lbaKLG40ywEmOOJYgx0DlWdiy/h7dgTxtfupkz2Ttog4RwwoPIRqf8xrPMyy5ogm/wAXBJH3bW089aYs02piLKUDOerhDfZAZYlDDXU2YHW1qiLTV0XnCUHlkrMsaq9pgTEI19p3VR5m9viBXjDbRxsbMCnjxHrbX4VIzJhv4Vz7IxMJJ5bu9e/lapKmx4aARosa8EVVHkosPlXSg0VhNQUUUUEnSOK+tUGUZiwxmLwkh1Rlmiv9qKVRe3gr7w9RVt/7ZgV+paaISCx3DIocA8OyTfWlHpPJi6nMYJESeE7tiR9bE51Ui43rE3t3FiNQDV4pPQo29xzqDtBmX0fDzT7m/wBUhbdvu71uV7G3urnsznK4vDx4hV3d8G6nXdZSVYX5i4NjzFql5jg1mikhf2ZEZD5MCD86rs9S260PWBxSyxpKhusiK6nwYAj4Guyi+lIHRZnTIZMsxGksDP1d79pQe0ov3G7DvU6aLTdn+fRYOLr5t7d3gvZXeN2vbmLcOJNDjaViFK6uV+0+YnC4zBuT9TP1kEhPBXJVoj798eRalfpq+rbBzj+TaX3gxMP7pqJt30hYbGYZ8OsMwN1ZXbq1Csp46Mx4bw8idaj7cY2afK8FLOhWQyMp3uLgI1nty3goP+1qdGNmmLbumjeAa+1kvRN0ilimBxb3JssErHj3RyE8+SsePA62vrVPEhRRRQAUUUs9Im1IwGEaUW61uxEDrdyDqR3KAWPkBzoAR+mjbfVsugbTT6Q4PfqIwfKxb0X7wpQ2cyjcAlcdo+yD9kHn5n4VB2fwBmkMshLANcltS7nXtHnqbnz8aZ5Ht51kxFX/AFX8ne6Xglb16i8fsVcSkuKxQhiG87P1ca8BpfU9w0LE91+6tEXZ3KMrRBjis0zi/bRpL95SJQQqg6bzC/jyqi6FcOrY+R29pIHKjxZ0BPuuP1Ve9K+TxnqyiA4jE4mGISN2jGu6QAn3VuASBxux507a0Tk1JOcpSlu2Gc7KZfmGFebLBEsqC4EQ3AxAvuSxkDdJHA2BvbiLg5zhJw+Gmic6AApfQ6ngPUfE08ts42UYvCzwSySQzSLDMGte8hsL7oA3b9ocwVtc71dMZ0S9ZPJJ9J3Y3kdwgiuyhmJsGL20va9vShSS50FuLY7bO4/r8NBMeMkSMfzFRvfG9T6h5NliYeCPDxlika2BY3J5knxJJOmlTKzPfQegooooJEnbPo4XFzNPHN1cj7u+rrvqxVQoIsQVNgBzGlUOE6HZd4b+IiVb67iMWI8L2APv9a1SirqpJKxRxiyJk+WR4eFIIRZEFhfUm5uSTzJJJPnUuiiqFzPelHZ51Zcywt1kjsZSvGy+zIO/dHZa/FbX0Bve7M53BmmFKyojMLLPEdQDxDLz3SRcHkRa9xTIRfQ1lO1OSTZViVxmE/iGa27rupvcY3/A1uyeRAHELdkXmVueBb9ruPWW7E4CFt+PDJvA3BcvLY/h6xmt6UudOB/g2H/pz/hv/tTZsxtBFjYBNFcWO66HijgAkHv0IIPMH0pO6a5L/RIubPI3u3F/z/CiN82pZq6shFzvK9z6xB2dN4D7J7x4fI1r/RLtscZEcPO18RCOJ4yx8A/5hoG8wftWCC6gggi4OhHhS9DPLgcSksRs0bbyE8GHAq3gQSp8DVqFXN7XubOo4JU/8kNnv8M/TtFV2z+bx4vDxYiP2ZFBtzU8GVrc1YFT4irGtByT5X596Us+ONzBkjN44SYohyLXs7erC1+5FNbD0gZ79EwM0ymz7u5H/SSdlT6X3vIGsI2Rwd3MhGiCw/Mf9B86pUlli2Pw1F1qqgufxyMGDw4hjVByHvPM+pryTXuZta8Vzd9WeysopRjstCHsTmIwmaoX0R2aJieSzWKnyDblz3A1qu02VGcwMPahxMUlu8KSre5WJ9Kx3aXA7w6wC9hZh+Hv9P38KddhekeNo1gxr7kigBZm9lwOHWH7LAcSdDxvc2rZdyipI8riaXpVZRez1XgfcRh0cbrqGF1axF+0jBlPmCAfSulUOdbaYPDxlzOkht2UidXdvIA6DxNhXbY3PWxmH+kND1QMjqo3t7eVbdoGw57w4cVNLyu1xd1excUUUVUkKKKKACiivKODexBsbGxvYjiD41IHDM8xjgjMsrbqAqCfF2Cj4sKnTMOHdS/t3k7YrBTQpq5Cso4bxRg27r32t60r4DajOFRY2y9pHAA32V0vbmwvYnvsR5CrKN1oUbs9TQ6Sek/aXDLhZsMJEeZ91dwHe3e0CS9tFIAuAdb2qBNlWd43szyJhYjxVCAbeUbMx8mcCrnJNjsDlydfIyll/lpioC/0a+yp97eNWSUXdu/gG2z10WZQ0GCUurLJK7SMrAgjgq3B1HZRTbxpV6UcR1mZYeHlFGp/UzMx+CJTps/tYuMndMNGxhjHbmcFQzH2VjXj3klrWA4ag1mc2N+k5hicQNV3iF59kWRCPNUv60arNJ9htCOepGK7r+tyfULOsH1kZt7S6r+49R+1TaKyxk4u6PT1acakHCWzLToJ2j3JnwLnsy3kivykUdpR+ZRvfoPfWzV+YcTI+FxSzRaMjrKnLUG9j4EggjuNfpTLcck0UcyG6SIrr5MAR866cXdXR46rTdObg90Zb/xA5rrhsKDw3pnH9hP/AMtLOQwdXh1727R/Vw+Fq8dK2KM+azLyQxRL6KL/ANt3qwl0AA4D9qzYmWiR2Oi0/dKp2VvucqKKKyHdCqfH5AGO9GQp+6fZ9O741cUVaE5Rd0JrUKdaNpK4qYLBAYmKGb2TNEslj9hnXesePsk61+jBAqIERQqqAFVRYKBoAAOAFfnvafDkOHGm8LXHJh/tb3VvGzOaDFYSGcWvJGC3g40cejBh6Vrk80Ezy9Wl6VVw7P8ArgkUUVQ7bzTQwLioBdsO++6cpISLSKfQh78ty9JSu7A3YvqBUTKMyjxEKTwtvI4uO8d4buINwR3ipdBJE2lzdMLA87xu6oAWEahmsTa+pAsOJN9BSztHsv8ASwuNwGIMMzop3kZkWZbdnfKG4YCwvrpoR3OLa8deWvd41nOb4rEZNKTCglwMrErGSR1Ltqyo2u6CbkCxB4WuCTeGr03KS03KXG5pnmFNpGnsPtdXHMht+MI3xINQ/wD1Px40M0d/GNL/ACp4wXSrgmH1gmiPcU3x6GMn5CpTdIGVtq0wP5oJT846Zd8xKW7MWMftli3yqLELLuytimiZ0VNVCOwABBA1C6jXSqTKdl8fmEgeUyhec0++Qo/5asbt5LYeIrTck2xwM8qwYaQlzchVhlUaDUklAB5nwHOr+q53HZWJy35FDaIxZVljRwXDMOrQm280kg7TnvIAZu7sgDSwrPdmsPuxX+8b+g0H7n1qXt9nZx+MEURvDFdVI4E/bfy0AHgB96u8aBQFGgAAHkKXUeWNuXqdTpdHNN1OFovJ6ooorOd4qNp4Lor/AHTY+Tf7ge+tU6Ds163L+qJ7UEjJ+lu2vu3iv6aznM4t6J1/CSPMaj4irvoBx+7isRBfSSFXHnE1vlL8K3YeV427Hm+q08tbMuV+BQxMnW5nKx13sTO3/cdh8hTBKdaWcibexQY8zI3vB/1pjJpGJ+peDodIVqDfd/8AAooopB1Aoorji8YkYu7W7hzPkKEm9EVlKMVmk7I85jhRJGynzB7iOFMHQfn2kuCc98sXkbB1Hrut6t3UhY/OXk7KAqp0sNWbzt8hXLA4ibCzRTqCkiEOlxoeRB8CCVI7jW6lSkoNM811DE06tROHHPc/RUy2NeCKg7M7RwY6ESQt2gBvxk9uNu5h3dzcDU8ilSVmZ4u6M9nD5LiC6qWy6du0ouTh3PcO7u7xpxUbz7hsQkiLJGwdGAKspuCDzBFfMZhUlRo5FDo4IZTqCD31neIw+LyZ2eAHEYBiWZGJvFfjcj2T+O26ftAGxqfr8/kj6fBpNcsTh0kRo5FV0YWZWAYEeINVOzu2GFxYAikAk5xPZZB5Dg3mpIq7qrTW5a9xPxvRfgHJKrLFf+bk09BIGA8q5wdFOBX2mxD/AJpFH+Gi06VCzXOIMOu9iJUjHLeOp/KvFj4AGpU5bXIyxOWS7PYfCgiCFUvoW1ZmA+8zEsR4XpX6U9rRBGcLC310g7ZB/i4z8mbgO4XOml6najpUZgY8EpQcOucdr/7aHQebXPgONJmVYUTSFppLkm5DNd3PMknX9zTqdJyldiqlRRWh92cxCJIQ2m8AFPIa8PXT3Uy0v53k+5eSMdjmv3fLw+Xy+5RnVrJKdOTd35vDxquIoSvdHU6Z1CEUqctFw/2X9FANFYjvhaonRJP1eaQjkwmQ+QjZvnGKl1S7JybmZRt3STf4cg/etWG5OL1he2L8kXJl3MVunkZF9wb/AEpkqjzGLqsynU6buJnUeTSMB7wRV5VcSvcvA3pEr0WvkK+MwAuTYDiTUbM8wEK3IuTwHf5+FLs+KlxDBdT3Kug/88TVaVGU9eB+Lx8KHt3l2/ZYZjn/ABWL+sf8o/c1HwWUSTHfkJAPNtWPkDyqyyvJFjsz2Z/7K+XefGrGWZV4n/WulSw8YLU8risfUrS1f6/g5YPARxDsLr3nUn1r5mWHSRCr6dx5g94rlLjyfZFvHnUVmJ1JvWi6tYxK97tlVgQ8U6WmMB31XrlLDcVmAL9kglQNSL62tWqpgM/jF45sLi4zqjkrdl5cAn95vM1ncsQYWYXFd8ozjGYP/wCFnYJe/Vt2k9AeH6d01nnTNUKo1bTbV5vhYf4ThYoTISiSqytZrE9lRI+tgT2tPlSfuZg4604icltbGeQNr4b1h5XrttXtjPmHURzqq9WxuFuAxfdFyGuRYA8z7Rq5kksbCsdWfp2yo7PT8JDEKTm3ZWtb5EfGYaRT9YrAk3uRxPgeB9Kushz3MCRDBipN77KPKna/CnXdm/4b8jarpnuLEAg8QRVVmGziOC0VkPNTqh/0+XhURrqWkkMr9JlH3Unf42ZbtgNoJew5nUHieshiA9Y2B91U+0GyT4VesxeJjEz+zGm9NI/ixbd3QPvEnwudKMlx+OBeKLGSKsdr/WM668Ny99NDwtUMH+FMcWWlZtd47zljy0GpFri3AW8KZms3b7Iwxw02otqybtd7EbLcnkm1A3V+83A/lHP5VJzTITEnWK+9a19LEeIse+1MfWhlBAIHcVKn3ECo2Nj3o3XvVvlSPXm5fB2X0yjGi0tZW3vz8Ij5XmO+i7/HhfxGmtQM3yS13iGnEoOX5f8ASuOUHsfqPyFWeGxRXQ6j5eVdVWlHU8i7wk8pXbP5iQwibVT7P4T3eRphpawiBsV2fZDs3oL/AL2plrk4iKU9D13Sqk50fdw7IKptkI9/MolHOSf/AA5DVwTbWuHQ/h+tzWFj9hZpD6xlPnIKvhluI6w9IryfOl7BmDNZmH8oIpl/qhT/AGo2NSEYEAjgRf30x/8AEBlV1w+KA4Fon/UN5L+AKuPNhSdkE+9Co5r2T6cPharYmOiYrpFS03Dur/YibUxdlG7iR79f8td9mChjNgAwNmPM8x/54GpeZYfrImXmRp5jUfGqHZzE7soXk4t68R+49abg56WM3WqLU83dX+xeY+ZgbA2BFQqnZkugPcfn/wDyoNb5bnCjsFFFFVJCiiigCJmegV/usD6f+WpklOtxzqixEe8pXvHx5VOyPE78K34r2T6cPhasOMhtI9F0Osk5QfNn9ibXifDo4s6hh4/taiedUF2YKPGq9BPiyY8MpCD2nbsjyvy8hr32FZKdOU37Tr4rFUqMHns/juV0ePSCeRU1RrADe5i3A89SRUmdZ45o8TPh5YozopZGA1UgC7Aa3N9bX5U39D2ZxoZcHJGqTBi4JHabd0ZW/EnK3K/cSXTOM4gGNiyySGR2xEZYsVVoyLNowOpHYNzbS49Nvprne1jzn/rnolok7pcLUyxM4hb+UA/NcfOjEZhHuMQ6HsnQMCTpVrtPslhos2jwyRbsTYfrWUO5BYtINCTcDsroLV3zHYnDSKRGpie2jKWIv+JWOo8rHxqscInqmaZ9bmvbKK8iblaWjHjc/wDnuqS7WBPcL+6o+DDKXje142K3BuLgkEA8+FfMzktGfHStidonEes7HXZeH25D+UfM/tV5UTKYNyFBztc+Z1/2qXXHqyzTbPb4Kl6dGMfi/wByLm0u7C5/CQPNtB86v+gDLrz4mcjRIkjHiZG3j7uqX30o7UT2VU7zc+Q/3PwrWuhbKepy5XIs07tL+nRU9CqBv1Vqw8bRv3OJ1armrZVwi+23yP6ZgpsPpvMt0vykQ7yem8BfwvX582cxJWQowI3tLHQhl5EcjxFfp6sE6YNnThcaZoxaPEEyKRwWUHtj3kP+o91NnHNFow4eq6VRSXB9pUzWExTkjvDr6m/zvTHl+KEsYceo7iONQNp8PdFfmpsfJv8Ae3vrJRk4Tsz0HUKca+H9SPGq8cllOweLeHAgMPnVbUnIZN+ADuuv+nwIqNXXbukzxlrNoKKKKgk4YycoBbmwHpUuaIqbGoWOS/V/0ij31a5nxX1/ahckvZEOoTxSozdUxAbU2IHz/aptcMffcO7x/bnVZxUlqMp1JQleLszpsvkDYuUtIxMSGzNcksfuqeXeTyFu+40jDwLGoRFCqBYACwFIuyG1kcEYglQhbk9YuurG/bXj3C4vy0p5wuKSRQ8bq6nmpBHwqaeW2hSu5uWuwpbbYN8PNFj4NHV13u7eHsk+BHYPhbvrT5Nu8JFg4cXM5WOXdC2UuwJFyCFH2d038VNLeY4NZonibg6keXcR4g2PpVZ0Q4iNjNluLijk6t+sRJFVwCDZt0MOTEMD/wAxqXUjZ3G0Z5o2fBN2pO/nlxqFwSWPnI1v71Q9rc3OHhsh+tk7Mfh3t+kfEipWaThs2zCRrBYkw8e8eFurDtfyN6SMfjziJmnNwvsxA8kHMjvJ1+HKrQdo27i6ivO74OGHiCKFHL4mosydZMkfK+vzPwFTXawJPAa1y2bi3neU+Q8zqfhb31SvLJA14Cj6teKffUvaKKr8+xnVx2HtPoPAcz+3rXJjFydkeyrVY0oOT2RWphnxmLSGPjK6xqe5ebeQG8/kK/SmDwqxRpFGN1UVUUdyqLAe4VlPQPs3dpMfINBeOG/M/wAow8tEB/OK1010krKyPHVJuc3J7s9VQbc7Nrj8K8BsH9qNj9iRfZPkblT4E1f0VJQ/L+XTvh5milUpZisitxRlNtfI/DWr3Mot6Jx+E28xqPiKcumTYgyqcfh0vIo+uUDV0UaOBzZQLHvX8oBznIMzBAic/kPf4H9vdWetT1zLg6+AxSyuhN6Pb9HrZOTSRfyn33B+QrtiFszDxNQdm+zOyfhYeqkf6GrLHDtn0+VdCDvBHn6qtUZwooqNmDLukFrHiO+/KpbsVSu7HTEcY/6SP+9VjmfFfX9qWzjWO7fXdYMPTvqfjs+VrEIRa/EgVVTWpeVOWhJoqvgxksn8XEX/ACK0n92rHD5JmUnsYPEesDqPe4AqM6J9ORHxGCRuVj3j96jQifDtvwuynvTn+ZeB9birtdic4bhhJPVoF+bivp2Azj/5WT/q4f8A/ZVXKLLxjJaXOmV9IDDTER734o9D6qdD6EeVR8wz2KPGw47DPvajrEsVOnZYEG3tIbA8Li9cMTsHmg1fBzHyKP8A3GNU2Ny+aE2mhliN7fWRumvhvAXqrm2rMtGnFO6LnH5205nVSf4TiJJZTwIjvZE9wBPmB318C20FU0WHlt2Ukse5W19wrplGVz4mUQ4dDJIQSF3lW4Gp1dgPjVlKy2Kyhme53zXEDd3QdTx8q64bNkhiVEG83EngLnj4m3D0rjnmz2JwjomJhMTOCVuyMCAbE7yMRpcX10uK1PZPohwyqsmMczPxKKxSNSOVxZnt3kgH7tKmlPc04erKhdw3fJlkWKxOIcRxB3c8EhUk+dl7VvE6Uxv0UZoYutKRFrX6oy3k8uG5f9daVgtqsBE/0TL4TM44x4SNdxfF5CVjAvxYtx8abcOzEAuoU9wO9bzNuPlQopbIidac3eTb8mRdEm20sUqZbiRZSSkW8u40Ugv9W4sNCbjXtBjbW+myVi/TplBhxMOMi7BlFmYW0mhsUb8xX/DFars1mwxWFgxA062NWI7mt2h6NcelSLLOiiigArF+lbo7MTNjMIl4Tdpo1GsR5ug/m+ZA9nj7Ps7RRQB+Wsjk/hCG/Em/jcH96vMxHa9B+9edssIkGbzRxqERZY91VFgBIiMbAcBdzpXTMvaHl+9Pp/SxFb6kyJXtY4SbvECe8c/S9eKKsKOeb4eHqXMahXAFiARzHpwvW4bKbO4H6PBNFhYAZIo33hGhY76A+0Rfn31h2KF0YfhPyrcei/FdZleEP3Yur/6RKf5KVU3NFN6DGiACwAA7hXuiiljAooooA+Vl/TXBvYMN9zEKfeHX/NWoVnHTAv8A7vmPdJEf+6o/eglCUJ1AFyOAqF0d4jqs3w5GimaRPSRHUfFlqLHwHkKhQ4rqcXHNe3VzQyX8EZWPyp1R3SM9FWbNg6c8qEuX9bbtQSI36ZD1bDy7Sn9Iq2yHDpj8thWbfKSxRmQK7IWugLKSpBsTe4B14cKmdIEO/luMX/6eVh5qhYfECqboexobLYbkC2+uv4ZHHytSTQesF9Mw14sDlEMUIOhbExoz+LhFY38SxNMmU4jFOP4RBFEfwTGX5xrb41U4vB5kzEx5hhlHJfoptbxJnJqflSYxT9fLhpV/5cTxN8ZHB9woIKDpqwHW5a7AXaKSOQeQO6x9FdqrugTMy+DlgJ/iZbr4JKN7++JDTJt8VOExKseyMPNvesbUlf8ADzAbYyTkTAvqokJ+DrQSa1RRRQQFFFFAH586Uxu5zMx0BbDtr4RRj/LXDMGBYW10FOvS1sBiMTN9LwqiS6Kskdwr3S9mTesGBBAIuD2dL30ypxNA5jdXjccUkUqfVWAPrTITy6C5wzaouKKiYfMVbRuyfh76lg0xNPYQ4tbnwi+lan0FYvey4x84ppF/rbsnzkNZbTz0C4u0uNgPC6SL72Vvh1dUqDqXJrNFFFKGhRRRQB8pA6VIt7L8UO4of6syH9qf6TOkCO+Cxg7oZj/VBb9qCUY7hj2F/KPlVXnCdsjvX/auqZmFUDd4C1ybVy3ZJnCxxs7kWCRqzsfILcnjTJSTVhUYNSua5nu3WEbAsrYhXklw5UIh3yHeK1mCXC2Jsd61KexHSFDg8KIJIpXYO7AoUtZje3aYG978qfNiOjXCxYeJ8VhkkxDKDIJfrApOu6FN0Fr20HqaaZNm8IUMZw0G6wKkCNBoRY2sNPSljbmeYTpMac2w2X4iU/hOg/MVUgepplyTMsRN/HYN8OORaWJ7+im491Lr9EE8ZP0TMpYkJuFIdT+po5AGNra7tcJeijMZNJczLKeN2mcf1WcCgDz0rbXRpC+DhcNI+kpUgiNOJVj95uFuQJvbS7h0U5CcLl8auCskpMsgOhBcDdB7iEVAR33qp2W6IMLh3SWaRsQ6EFVKhIww1BKXJJHi1vCtDoA+0UUUEBRRRQAVW53kWHxcfV4mFJF5bw1UnmjDtKfEEGrKigDHdp+hd1u+Bl3x/NTGzD8kgFj3AMB4saz3McvxOEbdmilhN7dtSFJ/C3st6E1+pK5vGGBDAEHiCLg+YNAH5cTNG5gH4U09EGabmapfQTJJH4X3Q4+MVvWthm2Ky9zvNgsMSeJ6mMX87Csf27wS5Zm6SxKI4g0EyKosoUGzqoHeUfT8VS5N7kKKWxvtFeVa4uOBr1UEhRRRQB8pZ2qjvBiV74ph70NM1UW0C3WYd8bfFKCUJvRXlWHOAgnMERlbrd6Qopc2mcC7EX0AA9KoeiKAQ5zPCRbdjxEa/pljtb9Kk0ydET3yuDwab/Fc/vS1j5fou0cUt7LJJFfymTqjfw3rtQBt9FFFBAUUUUAFFFFABRRRQAUUUUAFFFFABRRRQAVl3T/lW9BBiQNY3MbfklFwT5Mij9VajVNtllH0rBT4f7TxncvykXtIfR1WgCH0aZr9Iy3DSE3ZU6tzz3ojuEnz3b+tMtY/0D7QJGJ8LLIqXZZIg7BSWYbrqobmNxDYd5rYKACiiigD5VZm8dzbvW3zqwkkA4kCq7GYgORYHT40EoyXo823wuEwKwzGTrFZzuqhOhseOi3vfnVLnGbHMszw7wxOpZoY1U2LdhyxY7ugADEnjYKTeuuyWzcOIzaXCThurD4nRW3SSjnd1GtrXOlbVs/sphMHf6PAiMRYvqzkdxZyWt4XtQBdUUUUEBRRRQAUUUUAFFFFABRRRQAUUUUAFFFFABRRRQBim3PRXiziJpsLHHLFI5cIHCupfVgQ9ltvFrWbhbSlqPL83whASPHwgcoxMY/+3dD5UUUAS4+kDOYvanlt3SQR/NowfjXb/wBV80OnWR+kQv8ACiigk5y7bZxL7LS6/wA3hw3zRjUaTC5ziuy0ePcHkyyxofO4VPfRRQA+dFnRxLhZRi8VZXVSI4lIbd3hYmQrpe1wFBI1vfu1CiiggKKKKACiiigAooooA//Z;" parent="tvrNK7fGIe-bai2FnhoD-3" vertex="1">
          <mxGeometry x="-11.25" width="41.7" height="57.66" as="geometry" />
        </mxCell>
        <mxCell id="aOVmOSVz81MzRe7H_OzA-0" value="&lt;font style=&quot;&quot;&gt;&lt;i style=&quot;&quot;&gt;&lt;br&gt;&lt;/i&gt;&lt;/font&gt;" style="text;html=1;align=center;verticalAlign=middle;resizable=0;points=[];autosize=1;strokeColor=none;fillColor=none;rotation=-90;" parent="v4nXMgOu6cCWpLo_1OXx-1" vertex="1">
          <mxGeometry x="422" y="249" width="20" height="30" as="geometry" />
        </mxCell>
        <mxCell id="51KXnsdPAeTmRLEndIec-2" value="" style="endArrow=classic;html=1;rounded=0;labelBackgroundColor=default;strokeColor=default;align=center;verticalAlign=middle;fontFamily=Helvetica;fontSize=11;fontColor=default;shape=connector;edgeStyle=none;entryX=0;entryY=0.5;entryDx=0;entryDy=0;" parent="v4nXMgOu6cCWpLo_1OXx-1" source="tvrNK7fGIe-bai2FnhoD-1" target="51KXnsdPAeTmRLEndIec-9" edge="1">
          <mxGeometry width="50" height="50" relative="1" as="geometry">
            <mxPoint x="517" y="320" as="sourcePoint" />
            <mxPoint x="657" y="320" as="targetPoint" />
          </mxGeometry>
        </mxCell>
        <mxCell id="51KXnsdPAeTmRLEndIec-8" value="" style="group" parent="v4nXMgOu6cCWpLo_1OXx-1" connectable="0" vertex="1">
          <mxGeometry x="643" y="251" width="157" height="104" as="geometry" />
        </mxCell>
        <mxCell id="51KXnsdPAeTmRLEndIec-9" value="" style="whiteSpace=wrap;html=1;aspect=fixed;fontFamily=Helvetica;fontSize=11;fontColor=default;" parent="51KXnsdPAeTmRLEndIec-8" vertex="1">
          <mxGeometry x="16.907692307692308" y="4" width="104" height="104" as="geometry" />
        </mxCell>
        <mxCell id="51KXnsdPAeTmRLEndIec-20" value="" style="endArrow=classic;html=1;rounded=0;labelBackgroundColor=default;strokeColor=default;align=center;verticalAlign=middle;fontFamily=Helvetica;fontSize=11;fontColor=default;shape=connector;edgeStyle=none;entryX=0;entryY=0.5;entryDx=0;entryDy=0;" parent="v4nXMgOu6cCWpLo_1OXx-1" target="v4nXMgOu6cCWpLo_1OXx-29" edge="1">
          <mxGeometry width="50" height="50" relative="1" as="geometry">
            <mxPoint x="167" y="80" as="sourcePoint" />
            <mxPoint x="217" y="30" as="targetPoint" />
          </mxGeometry>
        </mxCell>
        <mxCell id="51KXnsdPAeTmRLEndIec-21" value="&lt;font style=&quot;font-size: 12px;&quot;&gt;Commit new code&lt;/font&gt;" style="edgeLabel;html=1;align=center;verticalAlign=middle;resizable=0;points=[];fontSize=11;fontFamily=Helvetica;fontColor=default;" parent="51KXnsdPAeTmRLEndIec-20" connectable="0" vertex="1">
          <mxGeometry x="-0.0427" y="1" relative="1" as="geometry">
            <mxPoint as="offset" />
          </mxGeometry>
        </mxCell>
        <mxCell id="JrpOHv_HIN8pEH2THoFz-26" value="" style="ellipse;whiteSpace=wrap;html=1;labelBackgroundColor=none;fillColor=#000000;" parent="v4nXMgOu6cCWpLo_1OXx-1" vertex="1">
          <mxGeometry x="434" y="940" width="32" height="32" as="geometry" />
        </mxCell>
        <mxCell id="LXMvDwuKQ1J4TgHMO9KR-9" value="" style="group" parent="v4nXMgOu6cCWpLo_1OXx-1" connectable="0" vertex="1">
          <mxGeometry x="381" y="246" width="141.83" height="122" as="geometry" />
        </mxCell>
        <mxCell id="tvrNK7fGIe-bai2FnhoD-1" value="" style="whiteSpace=wrap;html=1;aspect=fixed;" parent="LXMvDwuKQ1J4TgHMO9KR-9" vertex="1">
          <mxGeometry width="122" height="122" as="geometry" />
        </mxCell>
        <mxCell id="tvrNK7fGIe-bai2FnhoD-2" value="Jenkins CI/CD" style="shape=image;verticalLabelPosition=bottom;labelBackgroundColor=default;verticalAlign=top;aspect=fixed;imageAspect=0;image=data:image/jpeg,/9j/4AAQSkZJRgABAQAAAQABAAD/2wCEAAoGBxQUExYTExQWFxYYGBgcGRkYGRkYHBkaGRwfICAiFx8ZHyoiISAnIBkZIzgjJysuMTExICE2OzYvOiowMS4BCwsLDw4PHRERHDAoIiQwMjAwMDAwLjAuMDIyMTAwMDAwMDIwMDAwMDIwMDAyMDAwMC4wMDAwMDAwMDAwMDAwMP/AABEIAQgAvwMBIgACEQEDEQH/xAAcAAACAwEBAQEAAAAAAAAAAAAABgQFBwMCAQj/xABNEAACAQIDBAcECAAMBQEJAAABAgMAEQQFIQYSMUEHEyJRYXGBMpGhsRQjQlJicoLBJDNDU3OSorKzwtHhCGOTo/AXFSU0VGSDw9Px/8QAGgEAAgMBAQAAAAAAAAAAAAAAAAMBAgQFBv/EAC0RAAIBAgUDAwQCAwEAAAAAAAABAgMRBBIhMUEFUXETImEykbHRgaEjQsEU/9oADAMBAAIRAxEAPwDZqKKKACiiigAooooAKKKV9r9vcJgAVkffmtpDHYvrwLckHix8gaAGelLaPpLwGFJUy9bIPsQ2cg9zNcIp8C1/Cs9xuY5tnNxGvUYU8gxSNh+N7b0vkBu+Aqqz7ZfB4OMxPiJJ8Wy2jigVd1XJAXfHaPHS1wTrYUE2LXOumbFyEjDxRQrrqfrX8Dc2UeW6fOlmXanMsS+59JxUjn7ELOpI/JCBf3Uz7JdFEktpcaTEnERLbrGH4zwQHuFz+U1p+UZRBhk6vDxJGvPdGp8WJ1Y+JJNLlNLYuoGKpshm8uphxBvzkmUH1EkgPwr6djc4j1EOIH5J0/yS3rczIO+vJmFU9VlvTMHbPc2wZ7c+Mhtp9d1jL6dcCp9KYMk6ZsXGQMRHFOumo+qfzuLofLdHnWrtKCLEXB4g8D50s53sDgMRc9T1Lm/bhtHqeZW24fVb1ZVVyVdNl1spt1hMd2YZN2W1zFJZZPGwvZgO9Sbc7UyV+etqOj/E4P66JuuiQ7wkjuskdtQzKNRb7yk246U59GfSf1pTC45h1hsIpjYCQ8lk5Bzybg3DQ23mJp7FGmjU6KKKkgKKKKACiiigAooooAKKKKACiilDpX2hbCYFjG27LMwijI4qWBLMPEIrWPfu0AK/SH0jymU4HLbmTe3HlQbzF+aQ+I1Bflra1riHkew2Hwq/ScxIllJ3hGTvrvHU3v8Axr3NyT2R/aqr2DzHAYCH6RNIJMTICFSMb7RJyW47Ks3E3I5DkbwM224E8hd1e/2VuLKO4a/Ggkvdo9qMViHTDYVSHl0VE4he927vcAL91NmxGwsOCHWPaXEH2pSPZvxEV+A724ny0HLozyHqoBipADPiVVyeO5EdURe4WsT3nvsKaZZOQpFSpwhkIn15bcK5MxNfBXqQBRvMyqO9iAPeaTqx2iPNFfFYEXBBB4EEEHyIr7UEhRRRUAFZb0m7DrGGxeGW0fGaMDRb8XQcl+8OA48L21IVU7RbXYLBnq55LuRcxqpkax+8BoAfxEXplNtPQpO1tSh6ItvzLu4HFPeQD6mRjrIAPYcni4HA/aA11F21GvzDn74dcSZMC7iO4eMFSjwsDewv90gFSDwsOIud86PtpPp2DjmNusF0lA5SLa5tyDAhgO5hWsztDHRRRQQFFFFABRRRQAUUUUAU21ufpgsNJiHF90WVeBd20VR5nieQueVYBiMRjM0xI3i0szXsL2SNb67o4Ig014nS+8x1e/8AiCzA3wuHHs9uVvMWRPgZK57MquBy+N0A+kYodYWtqEPs8eQUiw+8zGgk54LYrAYMA4xziJuPVrcIP0gi/m5se4Vw2qzGB8JLBDhYoUsCCoVSCrBrgIo7u88TUZmJJJJJOpJ1JPjUHPHtBJ5W95A/egDRei7Fl8rw5PFesQeSSMo9ygCmCqDo6w3V5dhV70L/APVZn/zCr+sU37maYrQpNttq0y+ANYPNJcRIeduLNbXdFx5kgc7jNsPsvmWaEYidxutqrTEgWP8AMxqDZeHIA8bnjTVjtnXxmcSSYhD9Gw6Q7gYHdluu8AORXfMhbyAOhp6pmbItNymXM9RK2B2MxOBmctPG0Dobom8LyXXdaxFhpvC978PR1oopUpOTuxiVgoooqCT6DSnP0d4WWWafEGWWSWR3J32QKCeyqhCDZVstyTw5cKa6KspNbENJ7mZbUdFe6pkwTsxAuYXIJP8ARvpr4Nx76OgbNjHipsK1wJY94A6WkiNiLHgSrG/5BWm1mmewDCZ9hJ1FlmkjJt96QmKT4OGPiTT6dRt2YqpBJXRtNFFFOEhRRRQAUUUUAFcpZQoLMQAASSTYADiSTwFencAEk2A1JPIVhnSf0gtjHOGwxIwwNiRxxDA/3L8Bz4nlYAq+lbaKLG40ywEmOOJYgx0DlWdiy/h7dgTxtfupkz2Ttog4RwwoPIRqf8xrPMyy5ogm/wAXBJH3bW089aYs02piLKUDOerhDfZAZYlDDXU2YHW1qiLTV0XnCUHlkrMsaq9pgTEI19p3VR5m9viBXjDbRxsbMCnjxHrbX4VIzJhv4Vz7IxMJJ5bu9e/lapKmx4aARosa8EVVHkosPlXSg0VhNQUUUUEnSOK+tUGUZiwxmLwkh1Rlmiv9qKVRe3gr7w9RVt/7ZgV+paaISCx3DIocA8OyTfWlHpPJi6nMYJESeE7tiR9bE51Ui43rE3t3FiNQDV4pPQo29xzqDtBmX0fDzT7m/wBUhbdvu71uV7G3urnsznK4vDx4hV3d8G6nXdZSVYX5i4NjzFql5jg1mikhf2ZEZD5MCD86rs9S260PWBxSyxpKhusiK6nwYAj4Guyi+lIHRZnTIZMsxGksDP1d79pQe0ov3G7DvU6aLTdn+fRYOLr5t7d3gvZXeN2vbmLcOJNDjaViFK6uV+0+YnC4zBuT9TP1kEhPBXJVoj798eRalfpq+rbBzj+TaX3gxMP7pqJt30hYbGYZ8OsMwN1ZXbq1Csp46Mx4bw8idaj7cY2afK8FLOhWQyMp3uLgI1nty3goP+1qdGNmmLbumjeAa+1kvRN0ilimBxb3JssErHj3RyE8+SsePA62vrVPEhRRRQAUUUs9Im1IwGEaUW61uxEDrdyDqR3KAWPkBzoAR+mjbfVsugbTT6Q4PfqIwfKxb0X7wpQ2cyjcAlcdo+yD9kHn5n4VB2fwBmkMshLANcltS7nXtHnqbnz8aZ5Ht51kxFX/AFX8ne6Xglb16i8fsVcSkuKxQhiG87P1ca8BpfU9w0LE91+6tEXZ3KMrRBjis0zi/bRpL95SJQQqg6bzC/jyqi6FcOrY+R29pIHKjxZ0BPuuP1Ve9K+TxnqyiA4jE4mGISN2jGu6QAn3VuASBxux507a0Tk1JOcpSlu2Gc7KZfmGFebLBEsqC4EQ3AxAvuSxkDdJHA2BvbiLg5zhJw+Gmic6AApfQ6ngPUfE08ts42UYvCzwSySQzSLDMGte8hsL7oA3b9ocwVtc71dMZ0S9ZPJJ9J3Y3kdwgiuyhmJsGL20va9vShSS50FuLY7bO4/r8NBMeMkSMfzFRvfG9T6h5NliYeCPDxlika2BY3J5knxJJOmlTKzPfQegooooJEnbPo4XFzNPHN1cj7u+rrvqxVQoIsQVNgBzGlUOE6HZd4b+IiVb67iMWI8L2APv9a1SirqpJKxRxiyJk+WR4eFIIRZEFhfUm5uSTzJJJPnUuiiqFzPelHZ51Zcywt1kjsZSvGy+zIO/dHZa/FbX0Bve7M53BmmFKyojMLLPEdQDxDLz3SRcHkRa9xTIRfQ1lO1OSTZViVxmE/iGa27rupvcY3/A1uyeRAHELdkXmVueBb9ruPWW7E4CFt+PDJvA3BcvLY/h6xmt6UudOB/g2H/pz/hv/tTZsxtBFjYBNFcWO66HijgAkHv0IIPMH0pO6a5L/RIubPI3u3F/z/CiN82pZq6shFzvK9z6xB2dN4D7J7x4fI1r/RLtscZEcPO18RCOJ4yx8A/5hoG8wftWCC6gggi4OhHhS9DPLgcSksRs0bbyE8GHAq3gQSp8DVqFXN7XubOo4JU/8kNnv8M/TtFV2z+bx4vDxYiP2ZFBtzU8GVrc1YFT4irGtByT5X596Us+ONzBkjN44SYohyLXs7erC1+5FNbD0gZ79EwM0ymz7u5H/SSdlT6X3vIGsI2Rwd3MhGiCw/Mf9B86pUlli2Pw1F1qqgufxyMGDw4hjVByHvPM+pryTXuZta8Vzd9WeysopRjstCHsTmIwmaoX0R2aJieSzWKnyDblz3A1qu02VGcwMPahxMUlu8KSre5WJ9Kx3aXA7w6wC9hZh+Hv9P38KddhekeNo1gxr7kigBZm9lwOHWH7LAcSdDxvc2rZdyipI8riaXpVZRez1XgfcRh0cbrqGF1axF+0jBlPmCAfSulUOdbaYPDxlzOkht2UidXdvIA6DxNhXbY3PWxmH+kND1QMjqo3t7eVbdoGw57w4cVNLyu1xd1excUUUVUkKKKKACiivKODexBsbGxvYjiD41IHDM8xjgjMsrbqAqCfF2Cj4sKnTMOHdS/t3k7YrBTQpq5Cso4bxRg27r32t60r4DajOFRY2y9pHAA32V0vbmwvYnvsR5CrKN1oUbs9TQ6Sek/aXDLhZsMJEeZ91dwHe3e0CS9tFIAuAdb2qBNlWd43szyJhYjxVCAbeUbMx8mcCrnJNjsDlydfIyll/lpioC/0a+yp97eNWSUXdu/gG2z10WZQ0GCUurLJK7SMrAgjgq3B1HZRTbxpV6UcR1mZYeHlFGp/UzMx+CJTps/tYuMndMNGxhjHbmcFQzH2VjXj3klrWA4ag1mc2N+k5hicQNV3iF59kWRCPNUv60arNJ9htCOepGK7r+tyfULOsH1kZt7S6r+49R+1TaKyxk4u6PT1acakHCWzLToJ2j3JnwLnsy3kivykUdpR+ZRvfoPfWzV+YcTI+FxSzRaMjrKnLUG9j4EggjuNfpTLcck0UcyG6SIrr5MAR866cXdXR46rTdObg90Zb/xA5rrhsKDw3pnH9hP/AMtLOQwdXh1727R/Vw+Fq8dK2KM+azLyQxRL6KL/ANt3qwl0AA4D9qzYmWiR2Oi0/dKp2VvucqKKKyHdCqfH5AGO9GQp+6fZ9O741cUVaE5Rd0JrUKdaNpK4qYLBAYmKGb2TNEslj9hnXesePsk61+jBAqIERQqqAFVRYKBoAAOAFfnvafDkOHGm8LXHJh/tb3VvGzOaDFYSGcWvJGC3g40cejBh6Vrk80Ezy9Wl6VVw7P8ArgkUUVQ7bzTQwLioBdsO++6cpISLSKfQh78ty9JSu7A3YvqBUTKMyjxEKTwtvI4uO8d4buINwR3ipdBJE2lzdMLA87xu6oAWEahmsTa+pAsOJN9BSztHsv8ASwuNwGIMMzop3kZkWZbdnfKG4YCwvrpoR3OLa8deWvd41nOb4rEZNKTCglwMrErGSR1Ltqyo2u6CbkCxB4WuCTeGr03KS03KXG5pnmFNpGnsPtdXHMht+MI3xINQ/wD1Px40M0d/GNL/ACp4wXSrgmH1gmiPcU3x6GMn5CpTdIGVtq0wP5oJT846Zd8xKW7MWMftli3yqLELLuytimiZ0VNVCOwABBA1C6jXSqTKdl8fmEgeUyhec0++Qo/5asbt5LYeIrTck2xwM8qwYaQlzchVhlUaDUklAB5nwHOr+q53HZWJy35FDaIxZVljRwXDMOrQm280kg7TnvIAZu7sgDSwrPdmsPuxX+8b+g0H7n1qXt9nZx+MEURvDFdVI4E/bfy0AHgB96u8aBQFGgAAHkKXUeWNuXqdTpdHNN1OFovJ6ooorOd4qNp4Lor/AHTY+Tf7ge+tU6Ds163L+qJ7UEjJ+lu2vu3iv6aznM4t6J1/CSPMaj4irvoBx+7isRBfSSFXHnE1vlL8K3YeV427Hm+q08tbMuV+BQxMnW5nKx13sTO3/cdh8hTBKdaWcibexQY8zI3vB/1pjJpGJ+peDodIVqDfd/8AAooopB1Aoorji8YkYu7W7hzPkKEm9EVlKMVmk7I85jhRJGynzB7iOFMHQfn2kuCc98sXkbB1Hrut6t3UhY/OXk7KAqp0sNWbzt8hXLA4ibCzRTqCkiEOlxoeRB8CCVI7jW6lSkoNM811DE06tROHHPc/RUy2NeCKg7M7RwY6ESQt2gBvxk9uNu5h3dzcDU8ilSVmZ4u6M9nD5LiC6qWy6du0ouTh3PcO7u7xpxUbz7hsQkiLJGwdGAKspuCDzBFfMZhUlRo5FDo4IZTqCD31neIw+LyZ2eAHEYBiWZGJvFfjcj2T+O26ftAGxqfr8/kj6fBpNcsTh0kRo5FV0YWZWAYEeINVOzu2GFxYAikAk5xPZZB5Dg3mpIq7qrTW5a9xPxvRfgHJKrLFf+bk09BIGA8q5wdFOBX2mxD/AJpFH+Gi06VCzXOIMOu9iJUjHLeOp/KvFj4AGpU5bXIyxOWS7PYfCgiCFUvoW1ZmA+8zEsR4XpX6U9rRBGcLC310g7ZB/i4z8mbgO4XOml6najpUZgY8EpQcOucdr/7aHQebXPgONJmVYUTSFppLkm5DNd3PMknX9zTqdJyldiqlRRWh92cxCJIQ2m8AFPIa8PXT3Uy0v53k+5eSMdjmv3fLw+Xy+5RnVrJKdOTd35vDxquIoSvdHU6Z1CEUqctFw/2X9FANFYjvhaonRJP1eaQjkwmQ+QjZvnGKl1S7JybmZRt3STf4cg/etWG5OL1he2L8kXJl3MVunkZF9wb/AEpkqjzGLqsynU6buJnUeTSMB7wRV5VcSvcvA3pEr0WvkK+MwAuTYDiTUbM8wEK3IuTwHf5+FLs+KlxDBdT3Kug/88TVaVGU9eB+Lx8KHt3l2/ZYZjn/ABWL+sf8o/c1HwWUSTHfkJAPNtWPkDyqyyvJFjsz2Z/7K+XefGrGWZV4n/WulSw8YLU8risfUrS1f6/g5YPARxDsLr3nUn1r5mWHSRCr6dx5g94rlLjyfZFvHnUVmJ1JvWi6tYxK97tlVgQ8U6WmMB31XrlLDcVmAL9kglQNSL62tWqpgM/jF45sLi4zqjkrdl5cAn95vM1ncsQYWYXFd8ozjGYP/wCFnYJe/Vt2k9AeH6d01nnTNUKo1bTbV5vhYf4ThYoTISiSqytZrE9lRI+tgT2tPlSfuZg4604icltbGeQNr4b1h5XrttXtjPmHURzqq9WxuFuAxfdFyGuRYA8z7Rq5kksbCsdWfp2yo7PT8JDEKTm3ZWtb5EfGYaRT9YrAk3uRxPgeB9Kushz3MCRDBipN77KPKna/CnXdm/4b8jarpnuLEAg8QRVVmGziOC0VkPNTqh/0+XhURrqWkkMr9JlH3Unf42ZbtgNoJew5nUHieshiA9Y2B91U+0GyT4VesxeJjEz+zGm9NI/ixbd3QPvEnwudKMlx+OBeKLGSKsdr/WM668Ny99NDwtUMH+FMcWWlZtd47zljy0GpFri3AW8KZms3b7Iwxw02otqybtd7EbLcnkm1A3V+83A/lHP5VJzTITEnWK+9a19LEeIse+1MfWhlBAIHcVKn3ECo2Nj3o3XvVvlSPXm5fB2X0yjGi0tZW3vz8Ij5XmO+i7/HhfxGmtQM3yS13iGnEoOX5f8ASuOUHsfqPyFWeGxRXQ6j5eVdVWlHU8i7wk8pXbP5iQwibVT7P4T3eRphpawiBsV2fZDs3oL/AL2plrk4iKU9D13Sqk50fdw7IKptkI9/MolHOSf/AA5DVwTbWuHQ/h+tzWFj9hZpD6xlPnIKvhluI6w9IryfOl7BmDNZmH8oIpl/qhT/AGo2NSEYEAjgRf30x/8AEBlV1w+KA4Fon/UN5L+AKuPNhSdkE+9Co5r2T6cPharYmOiYrpFS03Dur/YibUxdlG7iR79f8td9mChjNgAwNmPM8x/54GpeZYfrImXmRp5jUfGqHZzE7soXk4t68R+49abg56WM3WqLU83dX+xeY+ZgbA2BFQqnZkugPcfn/wDyoNb5bnCjsFFFFVJCiiigCJmegV/usD6f+WpklOtxzqixEe8pXvHx5VOyPE78K34r2T6cPhasOMhtI9F0Osk5QfNn9ibXifDo4s6hh4/taiedUF2YKPGq9BPiyY8MpCD2nbsjyvy8hr32FZKdOU37Tr4rFUqMHns/juV0ePSCeRU1RrADe5i3A89SRUmdZ45o8TPh5YozopZGA1UgC7Aa3N9bX5U39D2ZxoZcHJGqTBi4JHabd0ZW/EnK3K/cSXTOM4gGNiyySGR2xEZYsVVoyLNowOpHYNzbS49Nvprne1jzn/rnolok7pcLUyxM4hb+UA/NcfOjEZhHuMQ6HsnQMCTpVrtPslhos2jwyRbsTYfrWUO5BYtINCTcDsroLV3zHYnDSKRGpie2jKWIv+JWOo8rHxqscInqmaZ9bmvbKK8iblaWjHjc/wDnuqS7WBPcL+6o+DDKXje142K3BuLgkEA8+FfMzktGfHStidonEes7HXZeH25D+UfM/tV5UTKYNyFBztc+Z1/2qXXHqyzTbPb4Kl6dGMfi/wByLm0u7C5/CQPNtB86v+gDLrz4mcjRIkjHiZG3j7uqX30o7UT2VU7zc+Q/3PwrWuhbKepy5XIs07tL+nRU9CqBv1Vqw8bRv3OJ1armrZVwi+23yP6ZgpsPpvMt0vykQ7yem8BfwvX582cxJWQowI3tLHQhl5EcjxFfp6sE6YNnThcaZoxaPEEyKRwWUHtj3kP+o91NnHNFow4eq6VRSXB9pUzWExTkjvDr6m/zvTHl+KEsYceo7iONQNp8PdFfmpsfJv8Ae3vrJRk4Tsz0HUKca+H9SPGq8cllOweLeHAgMPnVbUnIZN+ADuuv+nwIqNXXbukzxlrNoKKKKgk4YycoBbmwHpUuaIqbGoWOS/V/0ij31a5nxX1/ahckvZEOoTxSozdUxAbU2IHz/aptcMffcO7x/bnVZxUlqMp1JQleLszpsvkDYuUtIxMSGzNcksfuqeXeTyFu+40jDwLGoRFCqBYACwFIuyG1kcEYglQhbk9YuurG/bXj3C4vy0p5wuKSRQ8bq6nmpBHwqaeW2hSu5uWuwpbbYN8PNFj4NHV13u7eHsk+BHYPhbvrT5Nu8JFg4cXM5WOXdC2UuwJFyCFH2d038VNLeY4NZonibg6keXcR4g2PpVZ0Q4iNjNluLijk6t+sRJFVwCDZt0MOTEMD/wAxqXUjZ3G0Z5o2fBN2pO/nlxqFwSWPnI1v71Q9rc3OHhsh+tk7Mfh3t+kfEipWaThs2zCRrBYkw8e8eFurDtfyN6SMfjziJmnNwvsxA8kHMjvJ1+HKrQdo27i6ivO74OGHiCKFHL4mosydZMkfK+vzPwFTXawJPAa1y2bi3neU+Q8zqfhb31SvLJA14Cj6teKffUvaKKr8+xnVx2HtPoPAcz+3rXJjFydkeyrVY0oOT2RWphnxmLSGPjK6xqe5ebeQG8/kK/SmDwqxRpFGN1UVUUdyqLAe4VlPQPs3dpMfINBeOG/M/wAow8tEB/OK1010krKyPHVJuc3J7s9VQbc7Nrj8K8BsH9qNj9iRfZPkblT4E1f0VJQ/L+XTvh5milUpZisitxRlNtfI/DWr3Mot6Jx+E28xqPiKcumTYgyqcfh0vIo+uUDV0UaOBzZQLHvX8oBznIMzBAic/kPf4H9vdWetT1zLg6+AxSyuhN6Pb9HrZOTSRfyn33B+QrtiFszDxNQdm+zOyfhYeqkf6GrLHDtn0+VdCDvBHn6qtUZwooqNmDLukFrHiO+/KpbsVSu7HTEcY/6SP+9VjmfFfX9qWzjWO7fXdYMPTvqfjs+VrEIRa/EgVVTWpeVOWhJoqvgxksn8XEX/ACK0n92rHD5JmUnsYPEesDqPe4AqM6J9ORHxGCRuVj3j96jQifDtvwuynvTn+ZeB9birtdic4bhhJPVoF+bivp2Azj/5WT/q4f8A/ZVXKLLxjJaXOmV9IDDTER734o9D6qdD6EeVR8wz2KPGw47DPvajrEsVOnZYEG3tIbA8Li9cMTsHmg1fBzHyKP8A3GNU2Ny+aE2mhliN7fWRumvhvAXqrm2rMtGnFO6LnH5205nVSf4TiJJZTwIjvZE9wBPmB318C20FU0WHlt2Ukse5W19wrplGVz4mUQ4dDJIQSF3lW4Gp1dgPjVlKy2Kyhme53zXEDd3QdTx8q64bNkhiVEG83EngLnj4m3D0rjnmz2JwjomJhMTOCVuyMCAbE7yMRpcX10uK1PZPohwyqsmMczPxKKxSNSOVxZnt3kgH7tKmlPc04erKhdw3fJlkWKxOIcRxB3c8EhUk+dl7VvE6Uxv0UZoYutKRFrX6oy3k8uG5f9daVgtqsBE/0TL4TM44x4SNdxfF5CVjAvxYtx8abcOzEAuoU9wO9bzNuPlQopbIidac3eTb8mRdEm20sUqZbiRZSSkW8u40Ugv9W4sNCbjXtBjbW+myVi/TplBhxMOMi7BlFmYW0mhsUb8xX/DFars1mwxWFgxA062NWI7mt2h6NcelSLLOiiigArF+lbo7MTNjMIl4Tdpo1GsR5ug/m+ZA9nj7Ps7RRQB+Wsjk/hCG/Em/jcH96vMxHa9B+9edssIkGbzRxqERZY91VFgBIiMbAcBdzpXTMvaHl+9Pp/SxFb6kyJXtY4SbvECe8c/S9eKKsKOeb4eHqXMahXAFiARzHpwvW4bKbO4H6PBNFhYAZIo33hGhY76A+0Rfn31h2KF0YfhPyrcei/FdZleEP3Yur/6RKf5KVU3NFN6DGiACwAA7hXuiiljAooooA+Vl/TXBvYMN9zEKfeHX/NWoVnHTAv8A7vmPdJEf+6o/eglCUJ1AFyOAqF0d4jqs3w5GimaRPSRHUfFlqLHwHkKhQ4rqcXHNe3VzQyX8EZWPyp1R3SM9FWbNg6c8qEuX9bbtQSI36ZD1bDy7Sn9Iq2yHDpj8thWbfKSxRmQK7IWugLKSpBsTe4B14cKmdIEO/luMX/6eVh5qhYfECqboexobLYbkC2+uv4ZHHytSTQesF9Mw14sDlEMUIOhbExoz+LhFY38SxNMmU4jFOP4RBFEfwTGX5xrb41U4vB5kzEx5hhlHJfoptbxJnJqflSYxT9fLhpV/5cTxN8ZHB9woIKDpqwHW5a7AXaKSOQeQO6x9FdqrugTMy+DlgJ/iZbr4JKN7++JDTJt8VOExKseyMPNvesbUlf8ADzAbYyTkTAvqokJ+DrQSa1RRRQQFFFFAH586Uxu5zMx0BbDtr4RRj/LXDMGBYW10FOvS1sBiMTN9LwqiS6Kskdwr3S9mTesGBBAIuD2dL30ypxNA5jdXjccUkUqfVWAPrTITy6C5wzaouKKiYfMVbRuyfh76lg0xNPYQ4tbnwi+lan0FYvey4x84ppF/rbsnzkNZbTz0C4u0uNgPC6SL72Vvh1dUqDqXJrNFFFKGhRRRQB8pA6VIt7L8UO4of6syH9qf6TOkCO+Cxg7oZj/VBb9qCUY7hj2F/KPlVXnCdsjvX/auqZmFUDd4C1ybVy3ZJnCxxs7kWCRqzsfILcnjTJSTVhUYNSua5nu3WEbAsrYhXklw5UIh3yHeK1mCXC2Jsd61KexHSFDg8KIJIpXYO7AoUtZje3aYG978qfNiOjXCxYeJ8VhkkxDKDIJfrApOu6FN0Fr20HqaaZNm8IUMZw0G6wKkCNBoRY2sNPSljbmeYTpMac2w2X4iU/hOg/MVUgepplyTMsRN/HYN8OORaWJ7+im491Lr9EE8ZP0TMpYkJuFIdT+po5AGNra7tcJeijMZNJczLKeN2mcf1WcCgDz0rbXRpC+DhcNI+kpUgiNOJVj95uFuQJvbS7h0U5CcLl8auCskpMsgOhBcDdB7iEVAR33qp2W6IMLh3SWaRsQ6EFVKhIww1BKXJJHi1vCtDoA+0UUUEBRRRQAVW53kWHxcfV4mFJF5bw1UnmjDtKfEEGrKigDHdp+hd1u+Bl3x/NTGzD8kgFj3AMB4saz3McvxOEbdmilhN7dtSFJ/C3st6E1+pK5vGGBDAEHiCLg+YNAH5cTNG5gH4U09EGabmapfQTJJH4X3Q4+MVvWthm2Ky9zvNgsMSeJ6mMX87Csf27wS5Zm6SxKI4g0EyKosoUGzqoHeUfT8VS5N7kKKWxvtFeVa4uOBr1UEhRRRQB8pZ2qjvBiV74ph70NM1UW0C3WYd8bfFKCUJvRXlWHOAgnMERlbrd6Qopc2mcC7EX0AA9KoeiKAQ5zPCRbdjxEa/pljtb9Kk0ydET3yuDwab/Fc/vS1j5fou0cUt7LJJFfymTqjfw3rtQBt9FFFBAUUUUAFFFFABRRRQAUUUUAFFFFABRRRQAVl3T/lW9BBiQNY3MbfklFwT5Mij9VajVNtllH0rBT4f7TxncvykXtIfR1WgCH0aZr9Iy3DSE3ZU6tzz3ojuEnz3b+tMtY/0D7QJGJ8LLIqXZZIg7BSWYbrqobmNxDYd5rYKACiiigD5VZm8dzbvW3zqwkkA4kCq7GYgORYHT40EoyXo823wuEwKwzGTrFZzuqhOhseOi3vfnVLnGbHMszw7wxOpZoY1U2LdhyxY7ugADEnjYKTeuuyWzcOIzaXCThurD4nRW3SSjnd1GtrXOlbVs/sphMHf6PAiMRYvqzkdxZyWt4XtQBdUUUUEBRRRQAUUUUAFFFFABRRRQAUUUUAFFFFABRRRQBim3PRXiziJpsLHHLFI5cIHCupfVgQ9ltvFrWbhbSlqPL83whASPHwgcoxMY/+3dD5UUUAS4+kDOYvanlt3SQR/NowfjXb/wBV80OnWR+kQv8ACiigk5y7bZxL7LS6/wA3hw3zRjUaTC5ziuy0ePcHkyyxofO4VPfRRQA+dFnRxLhZRi8VZXVSI4lIbd3hYmQrpe1wFBI1vfu1CiiggKKKKACiiigAooooA//Z;" parent="LXMvDwuKQ1J4TgHMO9KR-9" vertex="1">
          <mxGeometry x="38.780374285714316" y="18.44078860445911" width="55.277786952931464" height="76.40363336085879" as="geometry" />
        </mxCell>
        <mxCell id="natXReRZgglf_DfnrziI-3" style="edgeStyle=orthogonalEdgeStyle;rounded=0;orthogonalLoop=1;jettySize=auto;html=1;" parent="v4nXMgOu6cCWpLo_1OXx-1" source="tvrNK7fGIe-bai2FnhoD-1" target="JrpOHv_HIN8pEH2THoFz-10" edge="1">
          <mxGeometry relative="1" as="geometry" />
        </mxCell>
        <mxCell id="natXReRZgglf_DfnrziI-4" style="edgeStyle=orthogonalEdgeStyle;rounded=0;orthogonalLoop=1;jettySize=auto;html=1;entryX=0.5;entryY=0;entryDx=0;entryDy=0;" parent="v4nXMgOu6cCWpLo_1OXx-1" target="JrpOHv_HIN8pEH2THoFz-26" edge="1">
          <mxGeometry relative="1" as="geometry">
            <mxPoint x="451.4" y="980" as="targetPoint" />
            <mxPoint x="450.9999999999999" y="911" as="sourcePoint" />
          </mxGeometry>
        </mxCell>
        <mxCell id="Jpspz1DXNgrYuYfmJ5OG-0" value="" style="ellipse;whiteSpace=wrap;html=1;" parent="v4nXMgOu6cCWpLo_1OXx-1" vertex="1">
          <mxGeometry x="1210" y="620" width="10" as="geometry" />
        </mxCell>
        <mxCell id="JrpOHv_HIN8pEH2THoFz-5" value="Job: Helm&lt;br&gt;Workspace" style="rounded=1;whiteSpace=wrap;html=1;container=0;" parent="v4nXMgOu6cCWpLo_1OXx-1" vertex="1">
          <mxGeometry x="160" y="453" width="160" height="70" as="geometry" />
        </mxCell>
        <mxCell id="JrpOHv_HIN8pEH2THoFz-6" value="" style="shape=image;verticalLabelPosition=bottom;labelBackgroundColor=default;verticalAlign=top;aspect=fixed;imageAspect=0;image=data:image/jpeg,/9j/4AAQSkZJRgABAQAAAQABAAD/2wCEAAoGBxQUExYTExQWFxYYGBgcGRkYGRkYHBkaGRwfICAiFx8ZHyoiISAnIBkZIzgjJysuMTExICE2OzYvOiowMS4BCwsLDw4PHRERHDAoIiQwMjAwMDAwLjAuMDIyMTAwMDAwMDIwMDAwMDIwMDAyMDAwMC4wMDAwMDAwMDAwMDAwMP/AABEIAQgAvwMBIgACEQEDEQH/xAAcAAACAwEBAQEAAAAAAAAAAAAABgQFBwMCAQj/xABNEAACAQIDBAcECAAMBQEJAAABAgMAEQQFIQYSMUEHEyJRYXGBMpGhsRQjQlJicoLBJDNDU3OSorKzwtHhCGOTo/AXFSU0VGSDw9Px/8QAGgEAAgMBAQAAAAAAAAAAAAAAAAMBAgQFBv/EAC0RAAIBAgUDAwQCAwEAAAAAAAABAgMRBBIhMUEFUXETImEykbHRgaEjQsEU/9oADAMBAAIRAxEAPwDZqKKKACiiigAooooAKKKV9r9vcJgAVkffmtpDHYvrwLckHix8gaAGelLaPpLwGFJUy9bIPsQ2cg9zNcIp8C1/Cs9xuY5tnNxGvUYU8gxSNh+N7b0vkBu+Aqqz7ZfB4OMxPiJJ8Wy2jigVd1XJAXfHaPHS1wTrYUE2LXOumbFyEjDxRQrrqfrX8Dc2UeW6fOlmXanMsS+59JxUjn7ELOpI/JCBf3Uz7JdFEktpcaTEnERLbrGH4zwQHuFz+U1p+UZRBhk6vDxJGvPdGp8WJ1Y+JJNLlNLYuoGKpshm8uphxBvzkmUH1EkgPwr6djc4j1EOIH5J0/yS3rczIO+vJmFU9VlvTMHbPc2wZ7c+Mhtp9d1jL6dcCp9KYMk6ZsXGQMRHFOumo+qfzuLofLdHnWrtKCLEXB4g8D50s53sDgMRc9T1Lm/bhtHqeZW24fVb1ZVVyVdNl1spt1hMd2YZN2W1zFJZZPGwvZgO9Sbc7UyV+etqOj/E4P66JuuiQ7wkjuskdtQzKNRb7yk246U59GfSf1pTC45h1hsIpjYCQ8lk5Bzybg3DQ23mJp7FGmjU6KKKkgKKKKACiiigAooooAKKKKACiilDpX2hbCYFjG27LMwijI4qWBLMPEIrWPfu0AK/SH0jymU4HLbmTe3HlQbzF+aQ+I1Bflra1riHkew2Hwq/ScxIllJ3hGTvrvHU3v8Axr3NyT2R/aqr2DzHAYCH6RNIJMTICFSMb7RJyW47Ks3E3I5DkbwM224E8hd1e/2VuLKO4a/Ggkvdo9qMViHTDYVSHl0VE4he927vcAL91NmxGwsOCHWPaXEH2pSPZvxEV+A724ny0HLozyHqoBipADPiVVyeO5EdURe4WsT3nvsKaZZOQpFSpwhkIn15bcK5MxNfBXqQBRvMyqO9iAPeaTqx2iPNFfFYEXBBB4EEEHyIr7UEhRRRUAFZb0m7DrGGxeGW0fGaMDRb8XQcl+8OA48L21IVU7RbXYLBnq55LuRcxqpkax+8BoAfxEXplNtPQpO1tSh6ItvzLu4HFPeQD6mRjrIAPYcni4HA/aA11F21GvzDn74dcSZMC7iO4eMFSjwsDewv90gFSDwsOIud86PtpPp2DjmNusF0lA5SLa5tyDAhgO5hWsztDHRRRQQFFFFABRRRQAUUUUAU21ufpgsNJiHF90WVeBd20VR5nieQueVYBiMRjM0xI3i0szXsL2SNb67o4Ig014nS+8x1e/8AiCzA3wuHHs9uVvMWRPgZK57MquBy+N0A+kYodYWtqEPs8eQUiw+8zGgk54LYrAYMA4xziJuPVrcIP0gi/m5se4Vw2qzGB8JLBDhYoUsCCoVSCrBrgIo7u88TUZmJJJJJOpJ1JPjUHPHtBJ5W95A/egDRei7Fl8rw5PFesQeSSMo9ygCmCqDo6w3V5dhV70L/APVZn/zCr+sU37maYrQpNttq0y+ANYPNJcRIeduLNbXdFx5kgc7jNsPsvmWaEYidxutqrTEgWP8AMxqDZeHIA8bnjTVjtnXxmcSSYhD9Gw6Q7gYHdluu8AORXfMhbyAOhp6pmbItNymXM9RK2B2MxOBmctPG0Dobom8LyXXdaxFhpvC978PR1oopUpOTuxiVgoooqCT6DSnP0d4WWWafEGWWSWR3J32QKCeyqhCDZVstyTw5cKa6KspNbENJ7mZbUdFe6pkwTsxAuYXIJP8ARvpr4Nx76OgbNjHipsK1wJY94A6WkiNiLHgSrG/5BWm1mmewDCZ9hJ1FlmkjJt96QmKT4OGPiTT6dRt2YqpBJXRtNFFFOEhRRRQAUUUUAFcpZQoLMQAASSTYADiSTwFencAEk2A1JPIVhnSf0gtjHOGwxIwwNiRxxDA/3L8Bz4nlYAq+lbaKLG40ywEmOOJYgx0DlWdiy/h7dgTxtfupkz2Ttog4RwwoPIRqf8xrPMyy5ogm/wAXBJH3bW089aYs02piLKUDOerhDfZAZYlDDXU2YHW1qiLTV0XnCUHlkrMsaq9pgTEI19p3VR5m9viBXjDbRxsbMCnjxHrbX4VIzJhv4Vz7IxMJJ5bu9e/lapKmx4aARosa8EVVHkosPlXSg0VhNQUUUUEnSOK+tUGUZiwxmLwkh1Rlmiv9qKVRe3gr7w9RVt/7ZgV+paaISCx3DIocA8OyTfWlHpPJi6nMYJESeE7tiR9bE51Ui43rE3t3FiNQDV4pPQo29xzqDtBmX0fDzT7m/wBUhbdvu71uV7G3urnsznK4vDx4hV3d8G6nXdZSVYX5i4NjzFql5jg1mikhf2ZEZD5MCD86rs9S260PWBxSyxpKhusiK6nwYAj4Guyi+lIHRZnTIZMsxGksDP1d79pQe0ov3G7DvU6aLTdn+fRYOLr5t7d3gvZXeN2vbmLcOJNDjaViFK6uV+0+YnC4zBuT9TP1kEhPBXJVoj798eRalfpq+rbBzj+TaX3gxMP7pqJt30hYbGYZ8OsMwN1ZXbq1Csp46Mx4bw8idaj7cY2afK8FLOhWQyMp3uLgI1nty3goP+1qdGNmmLbumjeAa+1kvRN0ilimBxb3JssErHj3RyE8+SsePA62vrVPEhRRRQAUUUs9Im1IwGEaUW61uxEDrdyDqR3KAWPkBzoAR+mjbfVsugbTT6Q4PfqIwfKxb0X7wpQ2cyjcAlcdo+yD9kHn5n4VB2fwBmkMshLANcltS7nXtHnqbnz8aZ5Ht51kxFX/AFX8ne6Xglb16i8fsVcSkuKxQhiG87P1ca8BpfU9w0LE91+6tEXZ3KMrRBjis0zi/bRpL95SJQQqg6bzC/jyqi6FcOrY+R29pIHKjxZ0BPuuP1Ve9K+TxnqyiA4jE4mGISN2jGu6QAn3VuASBxux507a0Tk1JOcpSlu2Gc7KZfmGFebLBEsqC4EQ3AxAvuSxkDdJHA2BvbiLg5zhJw+Gmic6AApfQ6ngPUfE08ts42UYvCzwSySQzSLDMGte8hsL7oA3b9ocwVtc71dMZ0S9ZPJJ9J3Y3kdwgiuyhmJsGL20va9vShSS50FuLY7bO4/r8NBMeMkSMfzFRvfG9T6h5NliYeCPDxlika2BY3J5knxJJOmlTKzPfQegooooJEnbPo4XFzNPHN1cj7u+rrvqxVQoIsQVNgBzGlUOE6HZd4b+IiVb67iMWI8L2APv9a1SirqpJKxRxiyJk+WR4eFIIRZEFhfUm5uSTzJJJPnUuiiqFzPelHZ51Zcywt1kjsZSvGy+zIO/dHZa/FbX0Bve7M53BmmFKyojMLLPEdQDxDLz3SRcHkRa9xTIRfQ1lO1OSTZViVxmE/iGa27rupvcY3/A1uyeRAHELdkXmVueBb9ruPWW7E4CFt+PDJvA3BcvLY/h6xmt6UudOB/g2H/pz/hv/tTZsxtBFjYBNFcWO66HijgAkHv0IIPMH0pO6a5L/RIubPI3u3F/z/CiN82pZq6shFzvK9z6xB2dN4D7J7x4fI1r/RLtscZEcPO18RCOJ4yx8A/5hoG8wftWCC6gggi4OhHhS9DPLgcSksRs0bbyE8GHAq3gQSp8DVqFXN7XubOo4JU/8kNnv8M/TtFV2z+bx4vDxYiP2ZFBtzU8GVrc1YFT4irGtByT5X596Us+ONzBkjN44SYohyLXs7erC1+5FNbD0gZ79EwM0ymz7u5H/SSdlT6X3vIGsI2Rwd3MhGiCw/Mf9B86pUlli2Pw1F1qqgufxyMGDw4hjVByHvPM+pryTXuZta8Vzd9WeysopRjstCHsTmIwmaoX0R2aJieSzWKnyDblz3A1qu02VGcwMPahxMUlu8KSre5WJ9Kx3aXA7w6wC9hZh+Hv9P38KddhekeNo1gxr7kigBZm9lwOHWH7LAcSdDxvc2rZdyipI8riaXpVZRez1XgfcRh0cbrqGF1axF+0jBlPmCAfSulUOdbaYPDxlzOkht2UidXdvIA6DxNhXbY3PWxmH+kND1QMjqo3t7eVbdoGw57w4cVNLyu1xd1excUUUVUkKKKKACiivKODexBsbGxvYjiD41IHDM8xjgjMsrbqAqCfF2Cj4sKnTMOHdS/t3k7YrBTQpq5Cso4bxRg27r32t60r4DajOFRY2y9pHAA32V0vbmwvYnvsR5CrKN1oUbs9TQ6Sek/aXDLhZsMJEeZ91dwHe3e0CS9tFIAuAdb2qBNlWd43szyJhYjxVCAbeUbMx8mcCrnJNjsDlydfIyll/lpioC/0a+yp97eNWSUXdu/gG2z10WZQ0GCUurLJK7SMrAgjgq3B1HZRTbxpV6UcR1mZYeHlFGp/UzMx+CJTps/tYuMndMNGxhjHbmcFQzH2VjXj3klrWA4ag1mc2N+k5hicQNV3iF59kWRCPNUv60arNJ9htCOepGK7r+tyfULOsH1kZt7S6r+49R+1TaKyxk4u6PT1acakHCWzLToJ2j3JnwLnsy3kivykUdpR+ZRvfoPfWzV+YcTI+FxSzRaMjrKnLUG9j4EggjuNfpTLcck0UcyG6SIrr5MAR866cXdXR46rTdObg90Zb/xA5rrhsKDw3pnH9hP/AMtLOQwdXh1727R/Vw+Fq8dK2KM+azLyQxRL6KL/ANt3qwl0AA4D9qzYmWiR2Oi0/dKp2VvucqKKKyHdCqfH5AGO9GQp+6fZ9O741cUVaE5Rd0JrUKdaNpK4qYLBAYmKGb2TNEslj9hnXesePsk61+jBAqIERQqqAFVRYKBoAAOAFfnvafDkOHGm8LXHJh/tb3VvGzOaDFYSGcWvJGC3g40cejBh6Vrk80Ezy9Wl6VVw7P8ArgkUUVQ7bzTQwLioBdsO++6cpISLSKfQh78ty9JSu7A3YvqBUTKMyjxEKTwtvI4uO8d4buINwR3ipdBJE2lzdMLA87xu6oAWEahmsTa+pAsOJN9BSztHsv8ASwuNwGIMMzop3kZkWZbdnfKG4YCwvrpoR3OLa8deWvd41nOb4rEZNKTCglwMrErGSR1Ltqyo2u6CbkCxB4WuCTeGr03KS03KXG5pnmFNpGnsPtdXHMht+MI3xINQ/wD1Px40M0d/GNL/ACp4wXSrgmH1gmiPcU3x6GMn5CpTdIGVtq0wP5oJT846Zd8xKW7MWMftli3yqLELLuytimiZ0VNVCOwABBA1C6jXSqTKdl8fmEgeUyhec0++Qo/5asbt5LYeIrTck2xwM8qwYaQlzchVhlUaDUklAB5nwHOr+q53HZWJy35FDaIxZVljRwXDMOrQm280kg7TnvIAZu7sgDSwrPdmsPuxX+8b+g0H7n1qXt9nZx+MEURvDFdVI4E/bfy0AHgB96u8aBQFGgAAHkKXUeWNuXqdTpdHNN1OFovJ6ooorOd4qNp4Lor/AHTY+Tf7ge+tU6Ds163L+qJ7UEjJ+lu2vu3iv6aznM4t6J1/CSPMaj4irvoBx+7isRBfSSFXHnE1vlL8K3YeV427Hm+q08tbMuV+BQxMnW5nKx13sTO3/cdh8hTBKdaWcibexQY8zI3vB/1pjJpGJ+peDodIVqDfd/8AAooopB1Aoorji8YkYu7W7hzPkKEm9EVlKMVmk7I85jhRJGynzB7iOFMHQfn2kuCc98sXkbB1Hrut6t3UhY/OXk7KAqp0sNWbzt8hXLA4ibCzRTqCkiEOlxoeRB8CCVI7jW6lSkoNM811DE06tROHHPc/RUy2NeCKg7M7RwY6ESQt2gBvxk9uNu5h3dzcDU8ilSVmZ4u6M9nD5LiC6qWy6du0ouTh3PcO7u7xpxUbz7hsQkiLJGwdGAKspuCDzBFfMZhUlRo5FDo4IZTqCD31neIw+LyZ2eAHEYBiWZGJvFfjcj2T+O26ftAGxqfr8/kj6fBpNcsTh0kRo5FV0YWZWAYEeINVOzu2GFxYAikAk5xPZZB5Dg3mpIq7qrTW5a9xPxvRfgHJKrLFf+bk09BIGA8q5wdFOBX2mxD/AJpFH+Gi06VCzXOIMOu9iJUjHLeOp/KvFj4AGpU5bXIyxOWS7PYfCgiCFUvoW1ZmA+8zEsR4XpX6U9rRBGcLC310g7ZB/i4z8mbgO4XOml6najpUZgY8EpQcOucdr/7aHQebXPgONJmVYUTSFppLkm5DNd3PMknX9zTqdJyldiqlRRWh92cxCJIQ2m8AFPIa8PXT3Uy0v53k+5eSMdjmv3fLw+Xy+5RnVrJKdOTd35vDxquIoSvdHU6Z1CEUqctFw/2X9FANFYjvhaonRJP1eaQjkwmQ+QjZvnGKl1S7JybmZRt3STf4cg/etWG5OL1he2L8kXJl3MVunkZF9wb/AEpkqjzGLqsynU6buJnUeTSMB7wRV5VcSvcvA3pEr0WvkK+MwAuTYDiTUbM8wEK3IuTwHf5+FLs+KlxDBdT3Kug/88TVaVGU9eB+Lx8KHt3l2/ZYZjn/ABWL+sf8o/c1HwWUSTHfkJAPNtWPkDyqyyvJFjsz2Z/7K+XefGrGWZV4n/WulSw8YLU8risfUrS1f6/g5YPARxDsLr3nUn1r5mWHSRCr6dx5g94rlLjyfZFvHnUVmJ1JvWi6tYxK97tlVgQ8U6WmMB31XrlLDcVmAL9kglQNSL62tWqpgM/jF45sLi4zqjkrdl5cAn95vM1ncsQYWYXFd8ozjGYP/wCFnYJe/Vt2k9AeH6d01nnTNUKo1bTbV5vhYf4ThYoTISiSqytZrE9lRI+tgT2tPlSfuZg4604icltbGeQNr4b1h5XrttXtjPmHURzqq9WxuFuAxfdFyGuRYA8z7Rq5kksbCsdWfp2yo7PT8JDEKTm3ZWtb5EfGYaRT9YrAk3uRxPgeB9Kushz3MCRDBipN77KPKna/CnXdm/4b8jarpnuLEAg8QRVVmGziOC0VkPNTqh/0+XhURrqWkkMr9JlH3Unf42ZbtgNoJew5nUHieshiA9Y2B91U+0GyT4VesxeJjEz+zGm9NI/ixbd3QPvEnwudKMlx+OBeKLGSKsdr/WM668Ny99NDwtUMH+FMcWWlZtd47zljy0GpFri3AW8KZms3b7Iwxw02otqybtd7EbLcnkm1A3V+83A/lHP5VJzTITEnWK+9a19LEeIse+1MfWhlBAIHcVKn3ECo2Nj3o3XvVvlSPXm5fB2X0yjGi0tZW3vz8Ij5XmO+i7/HhfxGmtQM3yS13iGnEoOX5f8ASuOUHsfqPyFWeGxRXQ6j5eVdVWlHU8i7wk8pXbP5iQwibVT7P4T3eRphpawiBsV2fZDs3oL/AL2plrk4iKU9D13Sqk50fdw7IKptkI9/MolHOSf/AA5DVwTbWuHQ/h+tzWFj9hZpD6xlPnIKvhluI6w9IryfOl7BmDNZmH8oIpl/qhT/AGo2NSEYEAjgRf30x/8AEBlV1w+KA4Fon/UN5L+AKuPNhSdkE+9Co5r2T6cPharYmOiYrpFS03Dur/YibUxdlG7iR79f8td9mChjNgAwNmPM8x/54GpeZYfrImXmRp5jUfGqHZzE7soXk4t68R+49abg56WM3WqLU83dX+xeY+ZgbA2BFQqnZkugPcfn/wDyoNb5bnCjsFFFFVJCiiigCJmegV/usD6f+WpklOtxzqixEe8pXvHx5VOyPE78K34r2T6cPhasOMhtI9F0Osk5QfNn9ibXifDo4s6hh4/taiedUF2YKPGq9BPiyY8MpCD2nbsjyvy8hr32FZKdOU37Tr4rFUqMHns/juV0ePSCeRU1RrADe5i3A89SRUmdZ45o8TPh5YozopZGA1UgC7Aa3N9bX5U39D2ZxoZcHJGqTBi4JHabd0ZW/EnK3K/cSXTOM4gGNiyySGR2xEZYsVVoyLNowOpHYNzbS49Nvprne1jzn/rnolok7pcLUyxM4hb+UA/NcfOjEZhHuMQ6HsnQMCTpVrtPslhos2jwyRbsTYfrWUO5BYtINCTcDsroLV3zHYnDSKRGpie2jKWIv+JWOo8rHxqscInqmaZ9bmvbKK8iblaWjHjc/wDnuqS7WBPcL+6o+DDKXje142K3BuLgkEA8+FfMzktGfHStidonEes7HXZeH25D+UfM/tV5UTKYNyFBztc+Z1/2qXXHqyzTbPb4Kl6dGMfi/wByLm0u7C5/CQPNtB86v+gDLrz4mcjRIkjHiZG3j7uqX30o7UT2VU7zc+Q/3PwrWuhbKepy5XIs07tL+nRU9CqBv1Vqw8bRv3OJ1armrZVwi+23yP6ZgpsPpvMt0vykQ7yem8BfwvX582cxJWQowI3tLHQhl5EcjxFfp6sE6YNnThcaZoxaPEEyKRwWUHtj3kP+o91NnHNFow4eq6VRSXB9pUzWExTkjvDr6m/zvTHl+KEsYceo7iONQNp8PdFfmpsfJv8Ae3vrJRk4Tsz0HUKca+H9SPGq8cllOweLeHAgMPnVbUnIZN+ADuuv+nwIqNXXbukzxlrNoKKKKgk4YycoBbmwHpUuaIqbGoWOS/V/0ij31a5nxX1/ahckvZEOoTxSozdUxAbU2IHz/aptcMffcO7x/bnVZxUlqMp1JQleLszpsvkDYuUtIxMSGzNcksfuqeXeTyFu+40jDwLGoRFCqBYACwFIuyG1kcEYglQhbk9YuurG/bXj3C4vy0p5wuKSRQ8bq6nmpBHwqaeW2hSu5uWuwpbbYN8PNFj4NHV13u7eHsk+BHYPhbvrT5Nu8JFg4cXM5WOXdC2UuwJFyCFH2d038VNLeY4NZonibg6keXcR4g2PpVZ0Q4iNjNluLijk6t+sRJFVwCDZt0MOTEMD/wAxqXUjZ3G0Z5o2fBN2pO/nlxqFwSWPnI1v71Q9rc3OHhsh+tk7Mfh3t+kfEipWaThs2zCRrBYkw8e8eFurDtfyN6SMfjziJmnNwvsxA8kHMjvJ1+HKrQdo27i6ivO74OGHiCKFHL4mosydZMkfK+vzPwFTXawJPAa1y2bi3neU+Q8zqfhb31SvLJA14Cj6teKffUvaKKr8+xnVx2HtPoPAcz+3rXJjFydkeyrVY0oOT2RWphnxmLSGPjK6xqe5ebeQG8/kK/SmDwqxRpFGN1UVUUdyqLAe4VlPQPs3dpMfINBeOG/M/wAow8tEB/OK1010krKyPHVJuc3J7s9VQbc7Nrj8K8BsH9qNj9iRfZPkblT4E1f0VJQ/L+XTvh5milUpZisitxRlNtfI/DWr3Mot6Jx+E28xqPiKcumTYgyqcfh0vIo+uUDV0UaOBzZQLHvX8oBznIMzBAic/kPf4H9vdWetT1zLg6+AxSyuhN6Pb9HrZOTSRfyn33B+QrtiFszDxNQdm+zOyfhYeqkf6GrLHDtn0+VdCDvBHn6qtUZwooqNmDLukFrHiO+/KpbsVSu7HTEcY/6SP+9VjmfFfX9qWzjWO7fXdYMPTvqfjs+VrEIRa/EgVVTWpeVOWhJoqvgxksn8XEX/ACK0n92rHD5JmUnsYPEesDqPe4AqM6J9ORHxGCRuVj3j96jQifDtvwuynvTn+ZeB9birtdic4bhhJPVoF+bivp2Azj/5WT/q4f8A/ZVXKLLxjJaXOmV9IDDTER734o9D6qdD6EeVR8wz2KPGw47DPvajrEsVOnZYEG3tIbA8Li9cMTsHmg1fBzHyKP8A3GNU2Ny+aE2mhliN7fWRumvhvAXqrm2rMtGnFO6LnH5205nVSf4TiJJZTwIjvZE9wBPmB318C20FU0WHlt2Ukse5W19wrplGVz4mUQ4dDJIQSF3lW4Gp1dgPjVlKy2Kyhme53zXEDd3QdTx8q64bNkhiVEG83EngLnj4m3D0rjnmz2JwjomJhMTOCVuyMCAbE7yMRpcX10uK1PZPohwyqsmMczPxKKxSNSOVxZnt3kgH7tKmlPc04erKhdw3fJlkWKxOIcRxB3c8EhUk+dl7VvE6Uxv0UZoYutKRFrX6oy3k8uG5f9daVgtqsBE/0TL4TM44x4SNdxfF5CVjAvxYtx8abcOzEAuoU9wO9bzNuPlQopbIidac3eTb8mRdEm20sUqZbiRZSSkW8u40Ugv9W4sNCbjXtBjbW+myVi/TplBhxMOMi7BlFmYW0mhsUb8xX/DFars1mwxWFgxA062NWI7mt2h6NcelSLLOiiigArF+lbo7MTNjMIl4Tdpo1GsR5ug/m+ZA9nj7Ps7RRQB+Wsjk/hCG/Em/jcH96vMxHa9B+9edssIkGbzRxqERZY91VFgBIiMbAcBdzpXTMvaHl+9Pp/SxFb6kyJXtY4SbvECe8c/S9eKKsKOeb4eHqXMahXAFiARzHpwvW4bKbO4H6PBNFhYAZIo33hGhY76A+0Rfn31h2KF0YfhPyrcei/FdZleEP3Yur/6RKf5KVU3NFN6DGiACwAA7hXuiiljAooooA+Vl/TXBvYMN9zEKfeHX/NWoVnHTAv8A7vmPdJEf+6o/eglCUJ1AFyOAqF0d4jqs3w5GimaRPSRHUfFlqLHwHkKhQ4rqcXHNe3VzQyX8EZWPyp1R3SM9FWbNg6c8qEuX9bbtQSI36ZD1bDy7Sn9Iq2yHDpj8thWbfKSxRmQK7IWugLKSpBsTe4B14cKmdIEO/luMX/6eVh5qhYfECqboexobLYbkC2+uv4ZHHytSTQesF9Mw14sDlEMUIOhbExoz+LhFY38SxNMmU4jFOP4RBFEfwTGX5xrb41U4vB5kzEx5hhlHJfoptbxJnJqflSYxT9fLhpV/5cTxN8ZHB9woIKDpqwHW5a7AXaKSOQeQO6x9FdqrugTMy+DlgJ/iZbr4JKN7++JDTJt8VOExKseyMPNvesbUlf8ADzAbYyTkTAvqokJ+DrQSa1RRRQQFFFFAH586Uxu5zMx0BbDtr4RRj/LXDMGBYW10FOvS1sBiMTN9LwqiS6Kskdwr3S9mTesGBBAIuD2dL30ypxNA5jdXjccUkUqfVWAPrTITy6C5wzaouKKiYfMVbRuyfh76lg0xNPYQ4tbnwi+lan0FYvey4x84ppF/rbsnzkNZbTz0C4u0uNgPC6SL72Vvh1dUqDqXJrNFFFKGhRRRQB8pA6VIt7L8UO4of6syH9qf6TOkCO+Cxg7oZj/VBb9qCUY7hj2F/KPlVXnCdsjvX/auqZmFUDd4C1ybVy3ZJnCxxs7kWCRqzsfILcnjTJSTVhUYNSua5nu3WEbAsrYhXklw5UIh3yHeK1mCXC2Jsd61KexHSFDg8KIJIpXYO7AoUtZje3aYG978qfNiOjXCxYeJ8VhkkxDKDIJfrApOu6FN0Fr20HqaaZNm8IUMZw0G6wKkCNBoRY2sNPSljbmeYTpMac2w2X4iU/hOg/MVUgepplyTMsRN/HYN8OORaWJ7+im491Lr9EE8ZP0TMpYkJuFIdT+po5AGNra7tcJeijMZNJczLKeN2mcf1WcCgDz0rbXRpC+DhcNI+kpUgiNOJVj95uFuQJvbS7h0U5CcLl8auCskpMsgOhBcDdB7iEVAR33qp2W6IMLh3SWaRsQ6EFVKhIww1BKXJJHi1vCtDoA+0UUUEBRRRQAVW53kWHxcfV4mFJF5bw1UnmjDtKfEEGrKigDHdp+hd1u+Bl3x/NTGzD8kgFj3AMB4saz3McvxOEbdmilhN7dtSFJ/C3st6E1+pK5vGGBDAEHiCLg+YNAH5cTNG5gH4U09EGabmapfQTJJH4X3Q4+MVvWthm2Ky9zvNgsMSeJ6mMX87Csf27wS5Zm6SxKI4g0EyKosoUGzqoHeUfT8VS5N7kKKWxvtFeVa4uOBr1UEhRRRQB8pZ2qjvBiV74ph70NM1UW0C3WYd8bfFKCUJvRXlWHOAgnMERlbrd6Qopc2mcC7EX0AA9KoeiKAQ5zPCRbdjxEa/pljtb9Kk0ydET3yuDwab/Fc/vS1j5fou0cUt7LJJFfymTqjfw3rtQBt9FFFBAUUUUAFFFFABRRRQAUUUUAFFFFABRRRQAVl3T/lW9BBiQNY3MbfklFwT5Mij9VajVNtllH0rBT4f7TxncvykXtIfR1WgCH0aZr9Iy3DSE3ZU6tzz3ojuEnz3b+tMtY/0D7QJGJ8LLIqXZZIg7BSWYbrqobmNxDYd5rYKACiiigD5VZm8dzbvW3zqwkkA4kCq7GYgORYHT40EoyXo823wuEwKwzGTrFZzuqhOhseOi3vfnVLnGbHMszw7wxOpZoY1U2LdhyxY7ugADEnjYKTeuuyWzcOIzaXCThurD4nRW3SSjnd1GtrXOlbVs/sphMHf6PAiMRYvqzkdxZyWt4XtQBdUUUUEBRRRQAUUUUAFFFFABRRRQAUUUUAFFFFABRRRQBim3PRXiziJpsLHHLFI5cIHCupfVgQ9ltvFrWbhbSlqPL83whASPHwgcoxMY/+3dD5UUUAS4+kDOYvanlt3SQR/NowfjXb/wBV80OnWR+kQv8ACiigk5y7bZxL7LS6/wA3hw3zRjUaTC5ziuy0ePcHkyyxofO4VPfRRQA+dFnRxLhZRi8VZXVSI4lIbd3hYmQrpe1wFBI1vfu1CiiggKKKKACiiigAooooA//Z;container=0;" parent="v4nXMgOu6cCWpLo_1OXx-1" vertex="1">
          <mxGeometry x="150" y="429" width="43.41" height="60" as="geometry" />
        </mxCell>
        <mxCell id="natXReRZgglf_DfnrziI-6" value="" style="group" parent="v4nXMgOu6cCWpLo_1OXx-1" connectable="0" vertex="1">
          <mxGeometry x="93" y="217" width="1180" height="830" as="geometry" />
        </mxCell>
        <mxCell id="qhsESezhetcFB7Lr2Ghn-1" value="&lt;font style=&quot;font-size: 10px;&quot;&gt;EKS Service&lt;br style=&quot;border-color: var(--border-color); color: rgb(0, 0, 0); background-color: rgb(255, 255, 255);&quot;&gt;&lt;span style=&quot;color: rgb(0, 0, 0); background-color: rgb(255, 255, 255);&quot;&gt;DEMO&amp;nbsp; ENV&lt;/span&gt;&lt;/font&gt;" style="sketch=0;points=[[0,0,0],[0.25,0,0],[0.5,0,0],[0.75,0,0],[1,0,0],[0,1,0],[0.25,1,0],[0.5,1,0],[0.75,1,0],[1,1,0],[0,0.25,0],[0,0.5,0],[0,0.75,0],[1,0.25,0],[1,0.5,0],[1,0.75,0]];outlineConnect=0;fontColor=#232F3E;gradientColor=#F78E04;gradientDirection=north;fillColor=#D05C17;strokeColor=#ffffff;dashed=0;verticalLabelPosition=bottom;verticalAlign=top;align=center;html=1;fontSize=12;fontStyle=0;aspect=fixed;shape=mxgraph.aws4.resourceIcon;resIcon=mxgraph.aws4.eks_cloud;" parent="natXReRZgglf_DfnrziI-6" vertex="1">
          <mxGeometry x="590" y="44.148936170212764" width="52.97872340425532" height="52.97872340425532" as="geometry" />
        </mxCell>
        <mxCell id="Sl1rPWAZEebdRze67HxT-0" value="" style="outlineConnect=0;dashed=0;verticalLabelPosition=bottom;verticalAlign=top;align=center;html=1;shape=mxgraph.aws3.ecr;fillColor=#F58534;gradientColor=none;" parent="natXReRZgglf_DfnrziI-6" vertex="1">
          <mxGeometry x="410" y="420" width="50" height="45.91" as="geometry" />
        </mxCell>
        <mxCell id="Sl1rPWAZEebdRze67HxT-2" style="edgeStyle=orthogonalEdgeStyle;rounded=0;orthogonalLoop=1;jettySize=auto;html=1;" parent="natXReRZgglf_DfnrziI-6" source="qhsESezhetcFB7Lr2Ghn-1" target="qhsESezhetcFB7Lr2Ghn-1" edge="1">
          <mxGeometry relative="1" as="geometry" />
        </mxCell>
        <mxCell id="8Qq7uhaB4SwZ29idJvw9-1" value="" style="shape=image;verticalLabelPosition=bottom;labelBackgroundColor=default;verticalAlign=top;aspect=fixed;imageAspect=0;image=data:image/jpeg,/9j/4AAQSkZJRgABAQAAAQABAAD/2wCEAAoGBxQUExYTExQWFxYYGBgcGRkYGRkYHBkaGRwfICAiFx8ZHyoiISAnIBkZIzgjJysuMTExICE2OzYvOiowMS4BCwsLDw4PHRERHDAoIiQwMjAwMDAwLjAuMDIyMTAwMDAwMDIwMDAwMDIwMDAyMDAwMC4wMDAwMDAwMDAwMDAwMP/AABEIAQgAvwMBIgACEQEDEQH/xAAcAAACAwEBAQEAAAAAAAAAAAAABgQFBwMCAQj/xABNEAACAQIDBAcECAAMBQEJAAABAgMAEQQFIQYSMUEHEyJRYXGBMpGhsRQjQlJicoLBJDNDU3OSorKzwtHhCGOTo/AXFSU0VGSDw9Px/8QAGgEAAgMBAQAAAAAAAAAAAAAAAAMBAgQFBv/EAC0RAAIBAgUDAwQCAwEAAAAAAAABAgMRBBIhMUEFUXETImEykbHRgaEjQsEU/9oADAMBAAIRAxEAPwDZqKKKACiiigAooooAKKKV9r9vcJgAVkffmtpDHYvrwLckHix8gaAGelLaPpLwGFJUy9bIPsQ2cg9zNcIp8C1/Cs9xuY5tnNxGvUYU8gxSNh+N7b0vkBu+Aqqz7ZfB4OMxPiJJ8Wy2jigVd1XJAXfHaPHS1wTrYUE2LXOumbFyEjDxRQrrqfrX8Dc2UeW6fOlmXanMsS+59JxUjn7ELOpI/JCBf3Uz7JdFEktpcaTEnERLbrGH4zwQHuFz+U1p+UZRBhk6vDxJGvPdGp8WJ1Y+JJNLlNLYuoGKpshm8uphxBvzkmUH1EkgPwr6djc4j1EOIH5J0/yS3rczIO+vJmFU9VlvTMHbPc2wZ7c+Mhtp9d1jL6dcCp9KYMk6ZsXGQMRHFOumo+qfzuLofLdHnWrtKCLEXB4g8D50s53sDgMRc9T1Lm/bhtHqeZW24fVb1ZVVyVdNl1spt1hMd2YZN2W1zFJZZPGwvZgO9Sbc7UyV+etqOj/E4P66JuuiQ7wkjuskdtQzKNRb7yk246U59GfSf1pTC45h1hsIpjYCQ8lk5Bzybg3DQ23mJp7FGmjU6KKKkgKKKKACiiigAooooAKKKKACiilDpX2hbCYFjG27LMwijI4qWBLMPEIrWPfu0AK/SH0jymU4HLbmTe3HlQbzF+aQ+I1Bflra1riHkew2Hwq/ScxIllJ3hGTvrvHU3v8Axr3NyT2R/aqr2DzHAYCH6RNIJMTICFSMb7RJyW47Ks3E3I5DkbwM224E8hd1e/2VuLKO4a/Ggkvdo9qMViHTDYVSHl0VE4he927vcAL91NmxGwsOCHWPaXEH2pSPZvxEV+A724ny0HLozyHqoBipADPiVVyeO5EdURe4WsT3nvsKaZZOQpFSpwhkIn15bcK5MxNfBXqQBRvMyqO9iAPeaTqx2iPNFfFYEXBBB4EEEHyIr7UEhRRRUAFZb0m7DrGGxeGW0fGaMDRb8XQcl+8OA48L21IVU7RbXYLBnq55LuRcxqpkax+8BoAfxEXplNtPQpO1tSh6ItvzLu4HFPeQD6mRjrIAPYcni4HA/aA11F21GvzDn74dcSZMC7iO4eMFSjwsDewv90gFSDwsOIud86PtpPp2DjmNusF0lA5SLa5tyDAhgO5hWsztDHRRRQQFFFFABRRRQAUUUUAU21ufpgsNJiHF90WVeBd20VR5nieQueVYBiMRjM0xI3i0szXsL2SNb67o4Ig014nS+8x1e/8AiCzA3wuHHs9uVvMWRPgZK57MquBy+N0A+kYodYWtqEPs8eQUiw+8zGgk54LYrAYMA4xziJuPVrcIP0gi/m5se4Vw2qzGB8JLBDhYoUsCCoVSCrBrgIo7u88TUZmJJJJJOpJ1JPjUHPHtBJ5W95A/egDRei7Fl8rw5PFesQeSSMo9ygCmCqDo6w3V5dhV70L/APVZn/zCr+sU37maYrQpNttq0y+ANYPNJcRIeduLNbXdFx5kgc7jNsPsvmWaEYidxutqrTEgWP8AMxqDZeHIA8bnjTVjtnXxmcSSYhD9Gw6Q7gYHdluu8AORXfMhbyAOhp6pmbItNymXM9RK2B2MxOBmctPG0Dobom8LyXXdaxFhpvC978PR1oopUpOTuxiVgoooqCT6DSnP0d4WWWafEGWWSWR3J32QKCeyqhCDZVstyTw5cKa6KspNbENJ7mZbUdFe6pkwTsxAuYXIJP8ARvpr4Nx76OgbNjHipsK1wJY94A6WkiNiLHgSrG/5BWm1mmewDCZ9hJ1FlmkjJt96QmKT4OGPiTT6dRt2YqpBJXRtNFFFOEhRRRQAUUUUAFcpZQoLMQAASSTYADiSTwFencAEk2A1JPIVhnSf0gtjHOGwxIwwNiRxxDA/3L8Bz4nlYAq+lbaKLG40ywEmOOJYgx0DlWdiy/h7dgTxtfupkz2Ttog4RwwoPIRqf8xrPMyy5ogm/wAXBJH3bW089aYs02piLKUDOerhDfZAZYlDDXU2YHW1qiLTV0XnCUHlkrMsaq9pgTEI19p3VR5m9viBXjDbRxsbMCnjxHrbX4VIzJhv4Vz7IxMJJ5bu9e/lapKmx4aARosa8EVVHkosPlXSg0VhNQUUUUEnSOK+tUGUZiwxmLwkh1Rlmiv9qKVRe3gr7w9RVt/7ZgV+paaISCx3DIocA8OyTfWlHpPJi6nMYJESeE7tiR9bE51Ui43rE3t3FiNQDV4pPQo29xzqDtBmX0fDzT7m/wBUhbdvu71uV7G3urnsznK4vDx4hV3d8G6nXdZSVYX5i4NjzFql5jg1mikhf2ZEZD5MCD86rs9S260PWBxSyxpKhusiK6nwYAj4Guyi+lIHRZnTIZMsxGksDP1d79pQe0ov3G7DvU6aLTdn+fRYOLr5t7d3gvZXeN2vbmLcOJNDjaViFK6uV+0+YnC4zBuT9TP1kEhPBXJVoj798eRalfpq+rbBzj+TaX3gxMP7pqJt30hYbGYZ8OsMwN1ZXbq1Csp46Mx4bw8idaj7cY2afK8FLOhWQyMp3uLgI1nty3goP+1qdGNmmLbumjeAa+1kvRN0ilimBxb3JssErHj3RyE8+SsePA62vrVPEhRRRQAUUUs9Im1IwGEaUW61uxEDrdyDqR3KAWPkBzoAR+mjbfVsugbTT6Q4PfqIwfKxb0X7wpQ2cyjcAlcdo+yD9kHn5n4VB2fwBmkMshLANcltS7nXtHnqbnz8aZ5Ht51kxFX/AFX8ne6Xglb16i8fsVcSkuKxQhiG87P1ca8BpfU9w0LE91+6tEXZ3KMrRBjis0zi/bRpL95SJQQqg6bzC/jyqi6FcOrY+R29pIHKjxZ0BPuuP1Ve9K+TxnqyiA4jE4mGISN2jGu6QAn3VuASBxux507a0Tk1JOcpSlu2Gc7KZfmGFebLBEsqC4EQ3AxAvuSxkDdJHA2BvbiLg5zhJw+Gmic6AApfQ6ngPUfE08ts42UYvCzwSySQzSLDMGte8hsL7oA3b9ocwVtc71dMZ0S9ZPJJ9J3Y3kdwgiuyhmJsGL20va9vShSS50FuLY7bO4/r8NBMeMkSMfzFRvfG9T6h5NliYeCPDxlika2BY3J5knxJJOmlTKzPfQegooooJEnbPo4XFzNPHN1cj7u+rrvqxVQoIsQVNgBzGlUOE6HZd4b+IiVb67iMWI8L2APv9a1SirqpJKxRxiyJk+WR4eFIIRZEFhfUm5uSTzJJJPnUuiiqFzPelHZ51Zcywt1kjsZSvGy+zIO/dHZa/FbX0Bve7M53BmmFKyojMLLPEdQDxDLz3SRcHkRa9xTIRfQ1lO1OSTZViVxmE/iGa27rupvcY3/A1uyeRAHELdkXmVueBb9ruPWW7E4CFt+PDJvA3BcvLY/h6xmt6UudOB/g2H/pz/hv/tTZsxtBFjYBNFcWO66HijgAkHv0IIPMH0pO6a5L/RIubPI3u3F/z/CiN82pZq6shFzvK9z6xB2dN4D7J7x4fI1r/RLtscZEcPO18RCOJ4yx8A/5hoG8wftWCC6gggi4OhHhS9DPLgcSksRs0bbyE8GHAq3gQSp8DVqFXN7XubOo4JU/8kNnv8M/TtFV2z+bx4vDxYiP2ZFBtzU8GVrc1YFT4irGtByT5X596Us+ONzBkjN44SYohyLXs7erC1+5FNbD0gZ79EwM0ymz7u5H/SSdlT6X3vIGsI2Rwd3MhGiCw/Mf9B86pUlli2Pw1F1qqgufxyMGDw4hjVByHvPM+pryTXuZta8Vzd9WeysopRjstCHsTmIwmaoX0R2aJieSzWKnyDblz3A1qu02VGcwMPahxMUlu8KSre5WJ9Kx3aXA7w6wC9hZh+Hv9P38KddhekeNo1gxr7kigBZm9lwOHWH7LAcSdDxvc2rZdyipI8riaXpVZRez1XgfcRh0cbrqGF1axF+0jBlPmCAfSulUOdbaYPDxlzOkht2UidXdvIA6DxNhXbY3PWxmH+kND1QMjqo3t7eVbdoGw57w4cVNLyu1xd1excUUUVUkKKKKACiivKODexBsbGxvYjiD41IHDM8xjgjMsrbqAqCfF2Cj4sKnTMOHdS/t3k7YrBTQpq5Cso4bxRg27r32t60r4DajOFRY2y9pHAA32V0vbmwvYnvsR5CrKN1oUbs9TQ6Sek/aXDLhZsMJEeZ91dwHe3e0CS9tFIAuAdb2qBNlWd43szyJhYjxVCAbeUbMx8mcCrnJNjsDlydfIyll/lpioC/0a+yp97eNWSUXdu/gG2z10WZQ0GCUurLJK7SMrAgjgq3B1HZRTbxpV6UcR1mZYeHlFGp/UzMx+CJTps/tYuMndMNGxhjHbmcFQzH2VjXj3klrWA4ag1mc2N+k5hicQNV3iF59kWRCPNUv60arNJ9htCOepGK7r+tyfULOsH1kZt7S6r+49R+1TaKyxk4u6PT1acakHCWzLToJ2j3JnwLnsy3kivykUdpR+ZRvfoPfWzV+YcTI+FxSzRaMjrKnLUG9j4EggjuNfpTLcck0UcyG6SIrr5MAR866cXdXR46rTdObg90Zb/xA5rrhsKDw3pnH9hP/AMtLOQwdXh1727R/Vw+Fq8dK2KM+azLyQxRL6KL/ANt3qwl0AA4D9qzYmWiR2Oi0/dKp2VvucqKKKyHdCqfH5AGO9GQp+6fZ9O741cUVaE5Rd0JrUKdaNpK4qYLBAYmKGb2TNEslj9hnXesePsk61+jBAqIERQqqAFVRYKBoAAOAFfnvafDkOHGm8LXHJh/tb3VvGzOaDFYSGcWvJGC3g40cejBh6Vrk80Ezy9Wl6VVw7P8ArgkUUVQ7bzTQwLioBdsO++6cpISLSKfQh78ty9JSu7A3YvqBUTKMyjxEKTwtvI4uO8d4buINwR3ipdBJE2lzdMLA87xu6oAWEahmsTa+pAsOJN9BSztHsv8ASwuNwGIMMzop3kZkWZbdnfKG4YCwvrpoR3OLa8deWvd41nOb4rEZNKTCglwMrErGSR1Ltqyo2u6CbkCxB4WuCTeGr03KS03KXG5pnmFNpGnsPtdXHMht+MI3xINQ/wD1Px40M0d/GNL/ACp4wXSrgmH1gmiPcU3x6GMn5CpTdIGVtq0wP5oJT846Zd8xKW7MWMftli3yqLELLuytimiZ0VNVCOwABBA1C6jXSqTKdl8fmEgeUyhec0++Qo/5asbt5LYeIrTck2xwM8qwYaQlzchVhlUaDUklAB5nwHOr+q53HZWJy35FDaIxZVljRwXDMOrQm280kg7TnvIAZu7sgDSwrPdmsPuxX+8b+g0H7n1qXt9nZx+MEURvDFdVI4E/bfy0AHgB96u8aBQFGgAAHkKXUeWNuXqdTpdHNN1OFovJ6ooorOd4qNp4Lor/AHTY+Tf7ge+tU6Ds163L+qJ7UEjJ+lu2vu3iv6aznM4t6J1/CSPMaj4irvoBx+7isRBfSSFXHnE1vlL8K3YeV427Hm+q08tbMuV+BQxMnW5nKx13sTO3/cdh8hTBKdaWcibexQY8zI3vB/1pjJpGJ+peDodIVqDfd/8AAooopB1Aoorji8YkYu7W7hzPkKEm9EVlKMVmk7I85jhRJGynzB7iOFMHQfn2kuCc98sXkbB1Hrut6t3UhY/OXk7KAqp0sNWbzt8hXLA4ibCzRTqCkiEOlxoeRB8CCVI7jW6lSkoNM811DE06tROHHPc/RUy2NeCKg7M7RwY6ESQt2gBvxk9uNu5h3dzcDU8ilSVmZ4u6M9nD5LiC6qWy6du0ouTh3PcO7u7xpxUbz7hsQkiLJGwdGAKspuCDzBFfMZhUlRo5FDo4IZTqCD31neIw+LyZ2eAHEYBiWZGJvFfjcj2T+O26ftAGxqfr8/kj6fBpNcsTh0kRo5FV0YWZWAYEeINVOzu2GFxYAikAk5xPZZB5Dg3mpIq7qrTW5a9xPxvRfgHJKrLFf+bk09BIGA8q5wdFOBX2mxD/AJpFH+Gi06VCzXOIMOu9iJUjHLeOp/KvFj4AGpU5bXIyxOWS7PYfCgiCFUvoW1ZmA+8zEsR4XpX6U9rRBGcLC310g7ZB/i4z8mbgO4XOml6najpUZgY8EpQcOucdr/7aHQebXPgONJmVYUTSFppLkm5DNd3PMknX9zTqdJyldiqlRRWh92cxCJIQ2m8AFPIa8PXT3Uy0v53k+5eSMdjmv3fLw+Xy+5RnVrJKdOTd35vDxquIoSvdHU6Z1CEUqctFw/2X9FANFYjvhaonRJP1eaQjkwmQ+QjZvnGKl1S7JybmZRt3STf4cg/etWG5OL1he2L8kXJl3MVunkZF9wb/AEpkqjzGLqsynU6buJnUeTSMB7wRV5VcSvcvA3pEr0WvkK+MwAuTYDiTUbM8wEK3IuTwHf5+FLs+KlxDBdT3Kug/88TVaVGU9eB+Lx8KHt3l2/ZYZjn/ABWL+sf8o/c1HwWUSTHfkJAPNtWPkDyqyyvJFjsz2Z/7K+XefGrGWZV4n/WulSw8YLU8risfUrS1f6/g5YPARxDsLr3nUn1r5mWHSRCr6dx5g94rlLjyfZFvHnUVmJ1JvWi6tYxK97tlVgQ8U6WmMB31XrlLDcVmAL9kglQNSL62tWqpgM/jF45sLi4zqjkrdl5cAn95vM1ncsQYWYXFd8ozjGYP/wCFnYJe/Vt2k9AeH6d01nnTNUKo1bTbV5vhYf4ThYoTISiSqytZrE9lRI+tgT2tPlSfuZg4604icltbGeQNr4b1h5XrttXtjPmHURzqq9WxuFuAxfdFyGuRYA8z7Rq5kksbCsdWfp2yo7PT8JDEKTm3ZWtb5EfGYaRT9YrAk3uRxPgeB9Kushz3MCRDBipN77KPKna/CnXdm/4b8jarpnuLEAg8QRVVmGziOC0VkPNTqh/0+XhURrqWkkMr9JlH3Unf42ZbtgNoJew5nUHieshiA9Y2B91U+0GyT4VesxeJjEz+zGm9NI/ixbd3QPvEnwudKMlx+OBeKLGSKsdr/WM668Ny99NDwtUMH+FMcWWlZtd47zljy0GpFri3AW8KZms3b7Iwxw02otqybtd7EbLcnkm1A3V+83A/lHP5VJzTITEnWK+9a19LEeIse+1MfWhlBAIHcVKn3ECo2Nj3o3XvVvlSPXm5fB2X0yjGi0tZW3vz8Ij5XmO+i7/HhfxGmtQM3yS13iGnEoOX5f8ASuOUHsfqPyFWeGxRXQ6j5eVdVWlHU8i7wk8pXbP5iQwibVT7P4T3eRphpawiBsV2fZDs3oL/AL2plrk4iKU9D13Sqk50fdw7IKptkI9/MolHOSf/AA5DVwTbWuHQ/h+tzWFj9hZpD6xlPnIKvhluI6w9IryfOl7BmDNZmH8oIpl/qhT/AGo2NSEYEAjgRf30x/8AEBlV1w+KA4Fon/UN5L+AKuPNhSdkE+9Co5r2T6cPharYmOiYrpFS03Dur/YibUxdlG7iR79f8td9mChjNgAwNmPM8x/54GpeZYfrImXmRp5jUfGqHZzE7soXk4t68R+49abg56WM3WqLU83dX+xeY+ZgbA2BFQqnZkugPcfn/wDyoNb5bnCjsFFFFVJCiiigCJmegV/usD6f+WpklOtxzqixEe8pXvHx5VOyPE78K34r2T6cPhasOMhtI9F0Osk5QfNn9ibXifDo4s6hh4/taiedUF2YKPGq9BPiyY8MpCD2nbsjyvy8hr32FZKdOU37Tr4rFUqMHns/juV0ePSCeRU1RrADe5i3A89SRUmdZ45o8TPh5YozopZGA1UgC7Aa3N9bX5U39D2ZxoZcHJGqTBi4JHabd0ZW/EnK3K/cSXTOM4gGNiyySGR2xEZYsVVoyLNowOpHYNzbS49Nvprne1jzn/rnolok7pcLUyxM4hb+UA/NcfOjEZhHuMQ6HsnQMCTpVrtPslhos2jwyRbsTYfrWUO5BYtINCTcDsroLV3zHYnDSKRGpie2jKWIv+JWOo8rHxqscInqmaZ9bmvbKK8iblaWjHjc/wDnuqS7WBPcL+6o+DDKXje142K3BuLgkEA8+FfMzktGfHStidonEes7HXZeH25D+UfM/tV5UTKYNyFBztc+Z1/2qXXHqyzTbPb4Kl6dGMfi/wByLm0u7C5/CQPNtB86v+gDLrz4mcjRIkjHiZG3j7uqX30o7UT2VU7zc+Q/3PwrWuhbKepy5XIs07tL+nRU9CqBv1Vqw8bRv3OJ1armrZVwi+23yP6ZgpsPpvMt0vykQ7yem8BfwvX582cxJWQowI3tLHQhl5EcjxFfp6sE6YNnThcaZoxaPEEyKRwWUHtj3kP+o91NnHNFow4eq6VRSXB9pUzWExTkjvDr6m/zvTHl+KEsYceo7iONQNp8PdFfmpsfJv8Ae3vrJRk4Tsz0HUKca+H9SPGq8cllOweLeHAgMPnVbUnIZN+ADuuv+nwIqNXXbukzxlrNoKKKKgk4YycoBbmwHpUuaIqbGoWOS/V/0ij31a5nxX1/ahckvZEOoTxSozdUxAbU2IHz/aptcMffcO7x/bnVZxUlqMp1JQleLszpsvkDYuUtIxMSGzNcksfuqeXeTyFu+40jDwLGoRFCqBYACwFIuyG1kcEYglQhbk9YuurG/bXj3C4vy0p5wuKSRQ8bq6nmpBHwqaeW2hSu5uWuwpbbYN8PNFj4NHV13u7eHsk+BHYPhbvrT5Nu8JFg4cXM5WOXdC2UuwJFyCFH2d038VNLeY4NZonibg6keXcR4g2PpVZ0Q4iNjNluLijk6t+sRJFVwCDZt0MOTEMD/wAxqXUjZ3G0Z5o2fBN2pO/nlxqFwSWPnI1v71Q9rc3OHhsh+tk7Mfh3t+kfEipWaThs2zCRrBYkw8e8eFurDtfyN6SMfjziJmnNwvsxA8kHMjvJ1+HKrQdo27i6ivO74OGHiCKFHL4mosydZMkfK+vzPwFTXawJPAa1y2bi3neU+Q8zqfhb31SvLJA14Cj6teKffUvaKKr8+xnVx2HtPoPAcz+3rXJjFydkeyrVY0oOT2RWphnxmLSGPjK6xqe5ebeQG8/kK/SmDwqxRpFGN1UVUUdyqLAe4VlPQPs3dpMfINBeOG/M/wAow8tEB/OK1010krKyPHVJuc3J7s9VQbc7Nrj8K8BsH9qNj9iRfZPkblT4E1f0VJQ/L+XTvh5milUpZisitxRlNtfI/DWr3Mot6Jx+E28xqPiKcumTYgyqcfh0vIo+uUDV0UaOBzZQLHvX8oBznIMzBAic/kPf4H9vdWetT1zLg6+AxSyuhN6Pb9HrZOTSRfyn33B+QrtiFszDxNQdm+zOyfhYeqkf6GrLHDtn0+VdCDvBHn6qtUZwooqNmDLukFrHiO+/KpbsVSu7HTEcY/6SP+9VjmfFfX9qWzjWO7fXdYMPTvqfjs+VrEIRa/EgVVTWpeVOWhJoqvgxksn8XEX/ACK0n92rHD5JmUnsYPEesDqPe4AqM6J9ORHxGCRuVj3j96jQifDtvwuynvTn+ZeB9birtdic4bhhJPVoF+bivp2Azj/5WT/q4f8A/ZVXKLLxjJaXOmV9IDDTER734o9D6qdD6EeVR8wz2KPGw47DPvajrEsVOnZYEG3tIbA8Li9cMTsHmg1fBzHyKP8A3GNU2Ny+aE2mhliN7fWRumvhvAXqrm2rMtGnFO6LnH5205nVSf4TiJJZTwIjvZE9wBPmB318C20FU0WHlt2Ukse5W19wrplGVz4mUQ4dDJIQSF3lW4Gp1dgPjVlKy2Kyhme53zXEDd3QdTx8q64bNkhiVEG83EngLnj4m3D0rjnmz2JwjomJhMTOCVuyMCAbE7yMRpcX10uK1PZPohwyqsmMczPxKKxSNSOVxZnt3kgH7tKmlPc04erKhdw3fJlkWKxOIcRxB3c8EhUk+dl7VvE6Uxv0UZoYutKRFrX6oy3k8uG5f9daVgtqsBE/0TL4TM44x4SNdxfF5CVjAvxYtx8abcOzEAuoU9wO9bzNuPlQopbIidac3eTb8mRdEm20sUqZbiRZSSkW8u40Ugv9W4sNCbjXtBjbW+myVi/TplBhxMOMi7BlFmYW0mhsUb8xX/DFars1mwxWFgxA062NWI7mt2h6NcelSLLOiiigArF+lbo7MTNjMIl4Tdpo1GsR5ug/m+ZA9nj7Ps7RRQB+Wsjk/hCG/Em/jcH96vMxHa9B+9edssIkGbzRxqERZY91VFgBIiMbAcBdzpXTMvaHl+9Pp/SxFb6kyJXtY4SbvECe8c/S9eKKsKOeb4eHqXMahXAFiARzHpwvW4bKbO4H6PBNFhYAZIo33hGhY76A+0Rfn31h2KF0YfhPyrcei/FdZleEP3Yur/6RKf5KVU3NFN6DGiACwAA7hXuiiljAooooA+Vl/TXBvYMN9zEKfeHX/NWoVnHTAv8A7vmPdJEf+6o/eglCUJ1AFyOAqF0d4jqs3w5GimaRPSRHUfFlqLHwHkKhQ4rqcXHNe3VzQyX8EZWPyp1R3SM9FWbNg6c8qEuX9bbtQSI36ZD1bDy7Sn9Iq2yHDpj8thWbfKSxRmQK7IWugLKSpBsTe4B14cKmdIEO/luMX/6eVh5qhYfECqboexobLYbkC2+uv4ZHHytSTQesF9Mw14sDlEMUIOhbExoz+LhFY38SxNMmU4jFOP4RBFEfwTGX5xrb41U4vB5kzEx5hhlHJfoptbxJnJqflSYxT9fLhpV/5cTxN8ZHB9woIKDpqwHW5a7AXaKSOQeQO6x9FdqrugTMy+DlgJ/iZbr4JKN7++JDTJt8VOExKseyMPNvesbUlf8ADzAbYyTkTAvqokJ+DrQSa1RRRQQFFFFAH586Uxu5zMx0BbDtr4RRj/LXDMGBYW10FOvS1sBiMTN9LwqiS6Kskdwr3S9mTesGBBAIuD2dL30ypxNA5jdXjccUkUqfVWAPrTITy6C5wzaouKKiYfMVbRuyfh76lg0xNPYQ4tbnwi+lan0FYvey4x84ppF/rbsnzkNZbTz0C4u0uNgPC6SL72Vvh1dUqDqXJrNFFFKGhRRRQB8pA6VIt7L8UO4of6syH9qf6TOkCO+Cxg7oZj/VBb9qCUY7hj2F/KPlVXnCdsjvX/auqZmFUDd4C1ybVy3ZJnCxxs7kWCRqzsfILcnjTJSTVhUYNSua5nu3WEbAsrYhXklw5UIh3yHeK1mCXC2Jsd61KexHSFDg8KIJIpXYO7AoUtZje3aYG978qfNiOjXCxYeJ8VhkkxDKDIJfrApOu6FN0Fr20HqaaZNm8IUMZw0G6wKkCNBoRY2sNPSljbmeYTpMac2w2X4iU/hOg/MVUgepplyTMsRN/HYN8OORaWJ7+im491Lr9EE8ZP0TMpYkJuFIdT+po5AGNra7tcJeijMZNJczLKeN2mcf1WcCgDz0rbXRpC+DhcNI+kpUgiNOJVj95uFuQJvbS7h0U5CcLl8auCskpMsgOhBcDdB7iEVAR33qp2W6IMLh3SWaRsQ6EFVKhIww1BKXJJHi1vCtDoA+0UUUEBRRRQAVW53kWHxcfV4mFJF5bw1UnmjDtKfEEGrKigDHdp+hd1u+Bl3x/NTGzD8kgFj3AMB4saz3McvxOEbdmilhN7dtSFJ/C3st6E1+pK5vGGBDAEHiCLg+YNAH5cTNG5gH4U09EGabmapfQTJJH4X3Q4+MVvWthm2Ky9zvNgsMSeJ6mMX87Csf27wS5Zm6SxKI4g0EyKosoUGzqoHeUfT8VS5N7kKKWxvtFeVa4uOBr1UEhRRRQB8pZ2qjvBiV74ph70NM1UW0C3WYd8bfFKCUJvRXlWHOAgnMERlbrd6Qopc2mcC7EX0AA9KoeiKAQ5zPCRbdjxEa/pljtb9Kk0ydET3yuDwab/Fc/vS1j5fou0cUt7LJJFfymTqjfw3rtQBt9FFFBAUUUUAFFFFABRRRQAUUUUAFFFFABRRRQAVl3T/lW9BBiQNY3MbfklFwT5Mij9VajVNtllH0rBT4f7TxncvykXtIfR1WgCH0aZr9Iy3DSE3ZU6tzz3ojuEnz3b+tMtY/0D7QJGJ8LLIqXZZIg7BSWYbrqobmNxDYd5rYKACiiigD5VZm8dzbvW3zqwkkA4kCq7GYgORYHT40EoyXo823wuEwKwzGTrFZzuqhOhseOi3vfnVLnGbHMszw7wxOpZoY1U2LdhyxY7ugADEnjYKTeuuyWzcOIzaXCThurD4nRW3SSjnd1GtrXOlbVs/sphMHf6PAiMRYvqzkdxZyWt4XtQBdUUUUEBRRRQAUUUUAFFFFABRRRQAUUUUAFFFFABRRRQBim3PRXiziJpsLHHLFI5cIHCupfVgQ9ltvFrWbhbSlqPL83whASPHwgcoxMY/+3dD5UUUAS4+kDOYvanlt3SQR/NowfjXb/wBV80OnWR+kQv8ACiigk5y7bZxL7LS6/wA3hw3zRjUaTC5ziuy0ePcHkyyxofO4VPfRRQA+dFnRxLhZRi8VZXVSI4lIbd3hYmQrpe1wFBI1vfu1CiiggKKKKACiiigAooooA//Z;" vertex="1" parent="natXReRZgglf_DfnrziI-6">
          <mxGeometry x="400" y="628.65" width="43.43" height="60.03" as="geometry" />
        </mxCell>
        <mxCell id="8Qq7uhaB4SwZ29idJvw9-5" value="AWS Cloud" style="text;html=1;strokeColor=#6c8ebf;fillColor=#dae8fc;align=center;verticalAlign=middle;whiteSpace=wrap;rounded=0;" vertex="1" parent="v4nXMgOu6cCWpLo_1OXx-1">
          <mxGeometry x="63" y="211" width="67" height="19" as="geometry" />
        </mxCell>
        <mxCell id="8Qq7uhaB4SwZ29idJvw9-7" value="VPC" style="text;html=1;strokeColor=#6c8ebf;fillColor=#dae8fc;align=center;verticalAlign=middle;whiteSpace=wrap;rounded=0;" vertex="1" parent="v4nXMgOu6cCWpLo_1OXx-1">
          <mxGeometry x="128" y="240" width="53" height="20" as="geometry" />
        </mxCell>
      </root>
    </mxGraphModel>
  </diagram>
  <diagram id="EQiqyVV67sNjRUtDIGQk" name="Fullflow-CICD (DEMO Env)">
    <mxGraphModel dx="2021" dy="1843" grid="1" gridSize="10" guides="1" tooltips="1" connect="1" arrows="1" fold="1" page="1" pageScale="1" pageWidth="827" pageHeight="1169" math="0" shadow="0">
      <root>
        <mxCell id="0" />
        <mxCell id="1" parent="0" />
        <mxCell id="8kp8VVGvxcOMexEV5414-17" value="Commit new code" style="text;html=1;align=center;verticalAlign=middle;resizable=0;points=[];autosize=1;strokeColor=none;fillColor=none;" parent="1" vertex="1">
          <mxGeometry x="226" y="58" width="120" height="30" as="geometry" />
        </mxCell>
        <mxCell id="8kp8VVGvxcOMexEV5414-45" style="edgeStyle=none;shape=connector;rounded=0;orthogonalLoop=1;jettySize=auto;html=1;labelBackgroundColor=default;strokeColor=default;align=center;verticalAlign=middle;fontFamily=Helvetica;fontSize=11;fontColor=default;endArrow=classic;" parent="1" edge="1">
          <mxGeometry relative="1" as="geometry">
            <mxPoint x="470" y="730" as="sourcePoint" />
            <mxPoint x="470" y="530" as="targetPoint" />
            <Array as="points">
              <mxPoint x="470" y="680" />
            </Array>
          </mxGeometry>
        </mxCell>
        <mxCell id="8kp8VVGvxcOMexEV5414-20" value="&lt;font style=&quot;&quot;&gt;&lt;i style=&quot;&quot;&gt;&lt;font style=&quot;font-size: 12px;&quot;&gt;&lt;b&gt;Pull source code &amp;amp; run build&amp;nbsp;&lt;/b&gt;&lt;/font&gt;&lt;br&gt;&lt;/i&gt;&lt;/font&gt;" style="text;html=1;align=center;verticalAlign=middle;resizable=0;points=[];autosize=1;strokeColor=none;fillColor=none;rotation=-90;" parent="1" vertex="1">
          <mxGeometry x="389" y="249" width="190" height="30" as="geometry" />
        </mxCell>
        <mxCell id="8kp8VVGvxcOMexEV5414-22" value="Message notification" style="text;html=1;align=center;verticalAlign=middle;resizable=0;points=[];autosize=1;strokeColor=none;fillColor=none;" parent="1" vertex="1">
          <mxGeometry x="233" y="417" width="130" height="30" as="geometry" />
        </mxCell>
        <mxCell id="8kp8VVGvxcOMexEV5414-32" value="" style="endArrow=classic;html=1;rounded=0;" parent="1" edge="1">
          <mxGeometry width="50" height="50" relative="1" as="geometry">
            <mxPoint x="390" y="440" as="sourcePoint" />
            <mxPoint x="200" y="440" as="targetPoint" />
          </mxGeometry>
        </mxCell>
        <mxCell id="8kp8VVGvxcOMexEV5414-34" value="" style="endArrow=classic;html=1;rounded=0;entryX=-0.029;entryY=0.447;entryDx=0;entryDy=0;entryPerimeter=0;exitX=1.049;exitY=0.447;exitDx=0;exitDy=0;exitPerimeter=0;" parent="1" source="8kp8VVGvxcOMexEV5414-35" target="8kp8VVGvxcOMexEV5414-33" edge="1">
          <mxGeometry width="50" height="50" relative="1" as="geometry">
            <mxPoint x="200" y="83" as="sourcePoint" />
            <mxPoint x="230" y="40" as="targetPoint" />
          </mxGeometry>
        </mxCell>
        <mxCell id="8kp8VVGvxcOMexEV5414-36" value="" style="endArrow=classic;html=1;rounded=0;exitX=1.025;exitY=0.989;exitDx=0;exitDy=0;exitPerimeter=0;entryX=0.5;entryY=1;entryDx=0;entryDy=0;" parent="1" target="8kp8VVGvxcOMexEV5414-33" edge="1">
          <mxGeometry width="50" height="50" relative="1" as="geometry">
            <mxPoint x="470.3299999999999" y="358" as="sourcePoint" />
            <mxPoint x="470" y="175" as="targetPoint" />
          </mxGeometry>
        </mxCell>
        <mxCell id="8kp8VVGvxcOMexEV5414-47" value="&lt;b style=&quot;border-color: var(--border-color); font-size: 14px;&quot;&gt;Deploy code&amp;nbsp; to eks cluster&lt;br style=&quot;border-color: var(--border-color);&quot;&gt;(Helmchart)&lt;/b&gt;" style="text;html=1;align=center;verticalAlign=middle;resizable=0;points=[];autosize=1;strokeColor=none;fillColor=none;fontSize=11;fontFamily=Helvetica;fontColor=default;rotation=0;" parent="1" vertex="1">
          <mxGeometry x="372.97" y="587" width="200" height="50" as="geometry" />
        </mxCell>
        <mxCell id="8kp8VVGvxcOMexEV5414-49" value="" style="group" parent="1" vertex="1" connectable="0">
          <mxGeometry x="440" y="680" width="150" height="210" as="geometry" />
        </mxCell>
        <mxCell id="DXkEfNUYiundVsrWyW-e-7" value="" style="group" vertex="1" connectable="0" parent="8kp8VVGvxcOMexEV5414-49">
          <mxGeometry x="-35.129999999999995" y="50" width="160" height="160" as="geometry" />
        </mxCell>
        <mxCell id="DXkEfNUYiundVsrWyW-e-8" value="" style="whiteSpace=wrap;html=1;aspect=fixed;fontFamily=Helvetica;fontSize=11;fontColor=default;" vertex="1" parent="DXkEfNUYiundVsrWyW-e-7">
          <mxGeometry x="-5" width="160" height="160" as="geometry" />
        </mxCell>
        <mxCell id="DXkEfNUYiundVsrWyW-e-9" value="&lt;font color=&quot;#000000&quot;&gt;&lt;font style=&quot;font-size: 10px;&quot;&gt;&amp;nbsp;Elastic Kubernetes Service (EKS)&lt;/font&gt;&amp;nbsp;&lt;/font&gt;&lt;br style=&quot;border-color: var(--border-color); color: rgb(0, 0, 0); background-color: rgb(255, 255, 255);&quot;&gt;&lt;span style=&quot;color: rgb(0, 0, 0); background-color: rgb(255, 255, 255);&quot;&gt;DEMO ENV2&lt;/span&gt;" style="sketch=0;points=[[0,0,0],[0.25,0,0],[0.5,0,0],[0.75,0,0],[1,0,0],[0,1,0],[0.25,1,0],[0.5,1,0],[0.75,1,0],[1,1,0],[0,0.25,0],[0,0.5,0],[0,0.75,0],[1,0.25,0],[1,0.5,0],[1,0.75,0]];outlineConnect=0;fontColor=#232F3E;gradientColor=#F78E04;gradientDirection=north;fillColor=#D05C17;strokeColor=#ffffff;dashed=0;verticalLabelPosition=bottom;verticalAlign=top;align=center;html=1;fontSize=12;fontStyle=0;aspect=fixed;shape=mxgraph.aws4.resourceIcon;resIcon=mxgraph.aws4.eks_cloud;" vertex="1" parent="DXkEfNUYiundVsrWyW-e-7">
          <mxGeometry x="30" y="22" width="90" height="90" as="geometry" />
        </mxCell>
        <mxCell id="DXkEfNUYiundVsrWyW-e-10" style="edgeStyle=orthogonalEdgeStyle;rounded=0;orthogonalLoop=1;jettySize=auto;html=1;" edge="1" parent="DXkEfNUYiundVsrWyW-e-7" source="DXkEfNUYiundVsrWyW-e-9" target="DXkEfNUYiundVsrWyW-e-9">
          <mxGeometry relative="1" as="geometry" />
        </mxCell>
        <mxCell id="8kp8VVGvxcOMexEV5414-50" value="" style="group" parent="1" vertex="1" connectable="0">
          <mxGeometry x="150" y="730" width="160" height="160" as="geometry" />
        </mxCell>
        <mxCell id="8kp8VVGvxcOMexEV5414-51" value="" style="whiteSpace=wrap;html=1;aspect=fixed;fontFamily=Helvetica;fontSize=11;fontColor=default;" parent="8kp8VVGvxcOMexEV5414-50" vertex="1">
          <mxGeometry x="-5" width="160" height="160" as="geometry" />
        </mxCell>
        <mxCell id="DXkEfNUYiundVsrWyW-e-1" value="&lt;font color=&quot;#000000&quot;&gt;&lt;font style=&quot;font-size: 10px;&quot;&gt;&amp;nbsp;Elastic Kubernetes Service (EKS)&lt;/font&gt;&amp;nbsp;&lt;/font&gt;&lt;br style=&quot;border-color: var(--border-color); color: rgb(0, 0, 0); background-color: rgb(255, 255, 255);&quot;&gt;&lt;span style=&quot;color: rgb(0, 0, 0); background-color: rgb(255, 255, 255);&quot;&gt;DEMO ENV1&lt;/span&gt;" style="sketch=0;points=[[0,0,0],[0.25,0,0],[0.5,0,0],[0.75,0,0],[1,0,0],[0,1,0],[0.25,1,0],[0.5,1,0],[0.75,1,0],[1,1,0],[0,0.25,0],[0,0.5,0],[0,0.75,0],[1,0.25,0],[1,0.5,0],[1,0.75,0]];outlineConnect=0;fontColor=#232F3E;gradientColor=#F78E04;gradientDirection=north;fillColor=#D05C17;strokeColor=#ffffff;dashed=0;verticalLabelPosition=bottom;verticalAlign=top;align=center;html=1;fontSize=12;fontStyle=0;aspect=fixed;shape=mxgraph.aws4.resourceIcon;resIcon=mxgraph.aws4.eks_cloud;" vertex="1" parent="8kp8VVGvxcOMexEV5414-50">
          <mxGeometry x="30" y="22" width="90" height="90" as="geometry" />
        </mxCell>
        <mxCell id="DXkEfNUYiundVsrWyW-e-2" style="edgeStyle=orthogonalEdgeStyle;rounded=0;orthogonalLoop=1;jettySize=auto;html=1;" edge="1" parent="8kp8VVGvxcOMexEV5414-50" source="DXkEfNUYiundVsrWyW-e-1" target="DXkEfNUYiundVsrWyW-e-1">
          <mxGeometry relative="1" as="geometry" />
        </mxCell>
        <mxCell id="8kp8VVGvxcOMexEV5414-56" value="" style="edgeStyle=segmentEdgeStyle;endArrow=classic;html=1;curved=0;rounded=0;endSize=8;startSize=8;labelBackgroundColor=default;strokeColor=default;align=center;verticalAlign=middle;fontFamily=Helvetica;fontSize=11;fontColor=default;shape=connector;exitX=0.453;exitY=0.99;exitDx=0;exitDy=0;exitPerimeter=0;" parent="1" source="8kp8VVGvxcOMexEV5414-25" edge="1">
          <mxGeometry width="50" height="50" relative="1" as="geometry">
            <mxPoint x="469" y="577" as="sourcePoint" />
            <mxPoint x="719" y="728" as="targetPoint" />
            <Array as="points">
              <mxPoint x="468" y="650" />
              <mxPoint x="719" y="650" />
            </Array>
          </mxGeometry>
        </mxCell>
        <mxCell id="8kp8VVGvxcOMexEV5414-57" value="" style="edgeStyle=segmentEdgeStyle;endArrow=classic;html=1;curved=0;rounded=0;endSize=8;startSize=8;labelBackgroundColor=default;strokeColor=default;align=center;verticalAlign=middle;fontFamily=Helvetica;fontSize=11;fontColor=default;shape=connector;" parent="1" edge="1">
          <mxGeometry width="50" height="50" relative="1" as="geometry">
            <mxPoint x="470" y="530" as="sourcePoint" />
            <mxPoint x="229" y="730" as="targetPoint" />
            <Array as="points">
              <mxPoint x="470" y="650" />
              <mxPoint x="229" y="650" />
            </Array>
          </mxGeometry>
        </mxCell>
        <mxCell id="8kp8VVGvxcOMexEV5414-65" value="" style="edgeStyle=elbowEdgeStyle;elbow=horizontal;endArrow=classic;html=1;curved=0;rounded=0;endSize=8;startSize=8;labelBackgroundColor=default;strokeColor=default;align=center;verticalAlign=middle;fontFamily=Helvetica;fontSize=11;fontColor=default;shape=connector;entryX=-0.021;entryY=0.566;entryDx=0;entryDy=0;entryPerimeter=0;" parent="1" edge="1">
          <mxGeometry width="50" height="50" relative="1" as="geometry">
            <mxPoint x="553" y="439" as="sourcePoint" />
            <mxPoint x="919.9970000000001" y="359.9380000000001" as="targetPoint" />
            <Array as="points">
              <mxPoint x="680" y="400" />
            </Array>
          </mxGeometry>
        </mxCell>
        <mxCell id="8kp8VVGvxcOMexEV5414-67" value="" style="edgeStyle=segmentEdgeStyle;endArrow=classic;html=1;curved=0;rounded=0;endSize=8;startSize=8;labelBackgroundColor=default;strokeColor=default;align=center;verticalAlign=middle;fontFamily=Helvetica;fontSize=11;fontColor=default;shape=connector;" parent="1" edge="1">
          <mxGeometry width="50" height="50" relative="1" as="geometry">
            <mxPoint x="680" y="440" as="sourcePoint" />
            <mxPoint x="920" y="520" as="targetPoint" />
            <Array as="points">
              <mxPoint x="680" y="520" />
            </Array>
          </mxGeometry>
        </mxCell>
        <mxCell id="8kp8VVGvxcOMexEV5414-68" value="Build Docker Image &lt;br&gt;ussing Dockerfile" style="text;html=1;align=center;verticalAlign=middle;resizable=0;points=[];autosize=1;strokeColor=none;fillColor=none;fontSize=11;fontFamily=Helvetica;fontColor=default;" parent="1" vertex="1">
          <mxGeometry x="730" y="323" width="120" height="40" as="geometry" />
        </mxCell>
        <mxCell id="8kp8VVGvxcOMexEV5414-69" value="Push Image to &lt;br&gt;AWS&amp;nbsp;Elastic Container Registry (ECR)&lt;br&gt;&amp;nbsp;" style="text;html=1;align=center;verticalAlign=middle;resizable=0;points=[];autosize=1;strokeColor=none;fillColor=none;fontSize=11;fontFamily=Helvetica;fontColor=default;" parent="1" vertex="1">
          <mxGeometry x="699" y="487" width="210" height="50" as="geometry" />
        </mxCell>
        <mxCell id="8kp8VVGvxcOMexEV5414-73" value="" style="group" parent="1" vertex="1" connectable="0">
          <mxGeometry x="71" y="365" width="127" height="127" as="geometry" />
        </mxCell>
        <mxCell id="8kp8VVGvxcOMexEV5414-70" value="" style="shape=ext;double=1;whiteSpace=wrap;html=1;aspect=fixed;fontFamily=Helvetica;fontSize=11;fontColor=default;" parent="8kp8VVGvxcOMexEV5414-73" vertex="1">
          <mxGeometry width="127" height="127" as="geometry" />
        </mxCell>
        <mxCell id="8kp8VVGvxcOMexEV5414-15" value="Google chat Space" style="shape=image;verticalLabelPosition=bottom;labelBackgroundColor=default;verticalAlign=top;aspect=fixed;imageAspect=0;image=data:image/png,iVBORw0KGgoAAAANSUhEUgAAAN0AAADkCAMAAAArb9FNAAAA8FBMVEX///8ArEf7vAQmhPwAZtoAgy3qQzUAqkD81XH7ugD7wTNkyIkAslEApzfH3f7A584FfPwJa+AnhP8AgzYAsUgAYeK9pFP2mxbfTjfpOjcAYdkAfyNkrnpwoefA3cgAexQAoEDpOCfxiIH2/PnpMyEAXNhFvXBbw4Dvdm7wgHgVb9zyjoc6umlRwHmxxu+Utexnnu3Wx5D7zIlUkuTub27Q4Pc9geDoLyvy+P2Vue4id94AZea+qWfyojLeQSXooJSy2b8bpU0gkEQgtVtQpGmfxqiY1qzP5te25Md+toyAz5vN7Nfn9Oxprn2U2Kxyy5EQhlipAAAEDUlEQVR4nO3aa1PaQBSH8aXVpJZGe1Nb1FIKQluvrbW1dxUBFW2//7fpcFOQhOyeBHLO6f95zTD5zSZnBzbGDLW4u7dh1f6HB7Pto0nY4sFcYbNg1/LKwky7t/opke3wc6EwZ93yyr3ZtvrlbQLcnostC93LEpl3tL/pYstE51XeEXUHjrhMdFTehisuGx2Nt+uMy0hH4R29d8ZlpfMqzqPlq9O0zFbnOU9OwtJlp3PlHRKWLkOdI29PmM4ruYyWA2k6p8n5jYDLVudV3ljrKLiMdQ6rJ1FnzxOpsx4tMnW2PKE6S55UnR1PrM5qY5Crs+EJ1lnwJOvi9z3RutjRIlsXxxOui+FJ103middNnJzydZN4CnReZUuzLnr1VOgieTp0Ximcp0QXwdOiC+ep0YXy9OjCNgZFuhCeJt04T5VubN/TpfNKW5p1d3jadKM8dboRnj7d8ORUqBviadTd8lTqbng6dYPRolTX52nV9XhE3QJ7XZf3hNL3Hw9n288XhH79NvcpPV4c+5043ZaC54R8MbocJeiggw466KCDDjrooIMOOuiggw466KCDDjrooIMOOuiggw466KCDDjrooIMOOuiggw466KCDDjrooIMOOuiggw466KCDDjrooIMOOuj+U91TSmJ0zyitvYq8jnL10TQi4XJmnlIxUlfe9mkXMpVS1vHCpaxjhktXxw2Xqo4dLk0dP1yKOoa49HQccanpWOLS0pWrHHEp6Zji0tFxxaWi4/nMdUpBx3bl0tAxxiXX8b0tc8l1nFcusY43LqGOOS6ZjjsukY49LpGOPS6Jjj8ugU4Ajq6TgKPqjnck4Ii6+RMROKruddbXbRd00PEMOuh4Bh10PINOsO5Usa5uztbU6vyaaSjWNU1Lsa5taA+eCF3dGNMoKtUFzc5/rqeEe1OAzq+XO3+6HhMWT4LuvHfWceHO468LLgeHcOvOPPa6oHZ7fnrtyuOuC/LloZP9RtFttPDW+X5z9H2aqzMnH2edH9Ra5m6t9dNicc0yms6ffoFfz7fHbN31azUu1q26PiHhqvlpd9lsX4XanMoTzhH8Wvz38qjmrgvE4Ai6IJ/1NdvnrJOEc9aJwrnqZOEcdXKmZS8nnTSck04czkUnaJ8bZK8TiLPXScRZ60Z/RUrJUhfUJOIsdfKmZS8rnb+T9WUSs9H5OyJvS2Olk4uz0AVSb0tjoRM6LXvF6UTj4nSycTG6QO5A6TZRJ3afGzRJJ3gr6DdBJx83QSf9mesUqdOAi9QJ3wr6Reh04CJ0Km5LE6HzqzpwoTo1uDCdHlyIThFu/GRZy0Dp9idQjDMtXzHuzoOnDWdauVuepoHSb+mGF+jDGXO1HfReXbqM/6zE2s187e95Cm8uTa1/4kK3+5LRX0YAAAAASUVORK5CYII=;" parent="8kp8VVGvxcOMexEV5414-73" vertex="1">
          <mxGeometry x="14" y="6.089999999999975" width="95" height="98.01" as="geometry" />
        </mxCell>
        <mxCell id="8kp8VVGvxcOMexEV5414-74" value="" style="group" parent="1" vertex="1" connectable="0">
          <mxGeometry x="400" y="18" width="140" height="140" as="geometry" />
        </mxCell>
        <mxCell id="8kp8VVGvxcOMexEV5414-33" value="" style="whiteSpace=wrap;html=1;aspect=fixed;" parent="8kp8VVGvxcOMexEV5414-74" vertex="1">
          <mxGeometry width="140" height="140" as="geometry" />
        </mxCell>
        <mxCell id="a15QQxg-1uekY9o79v2H-1" value="Github Repositories" style="dashed=0;outlineConnect=0;html=1;align=center;labelPosition=center;verticalLabelPosition=bottom;verticalAlign=top;shape=mxgraph.weblogos.github" vertex="1" parent="8kp8VVGvxcOMexEV5414-74">
          <mxGeometry x="32.5" y="15.770000000000003" width="75" height="75" as="geometry" />
        </mxCell>
        <mxCell id="8kp8VVGvxcOMexEV5414-75" value="" style="group" parent="1" vertex="1" connectable="0">
          <mxGeometry x="66.5" y="22" width="130.5" height="138" as="geometry" />
        </mxCell>
        <mxCell id="8kp8VVGvxcOMexEV5414-35" value="" style="whiteSpace=wrap;html=1;aspect=fixed;" parent="8kp8VVGvxcOMexEV5414-75" vertex="1">
          <mxGeometry width="130.5" height="130.5" as="geometry" />
        </mxCell>
        <mxCell id="8kp8VVGvxcOMexEV5414-2" value="Developer&lt;br&gt;(Local PC/ Laptop)" style="shape=mxgraph.signs.tech.computer;html=1;pointerEvents=1;fillColor=#000000;strokeColor=none;verticalLabelPosition=bottom;verticalAlign=top;align=center;" parent="8kp8VVGvxcOMexEV5414-75" vertex="1">
          <mxGeometry x="25.796511627906977" y="11.767441860465116" width="78.90697674418605" height="83.44186046511628" as="geometry" />
        </mxCell>
        <mxCell id="GcVd7rpZ52xv7i8IUGn3-1" value="" style="ellipse;shape=doubleEllipse;whiteSpace=wrap;html=1;fontFamily=Helvetica;fontSize=11;fontColor=default;" parent="1" vertex="1">
          <mxGeometry x="-260" y="573" height="67" as="geometry" />
        </mxCell>
        <mxCell id="GcVd7rpZ52xv7i8IUGn3-2" value="" style="ellipse;shape=doubleEllipse;whiteSpace=wrap;html=1;fontFamily=Helvetica;fontSize=11;fontColor=default;" parent="1" vertex="1">
          <mxGeometry x="-40" y="-300" height="20" as="geometry" />
        </mxCell>
        <mxCell id="jGH_asHIfkDDXDCSUqxY-2" value="" style="group" parent="1" vertex="1" connectable="0">
          <mxGeometry x="390" y="360" width="173" height="173" as="geometry" />
        </mxCell>
        <mxCell id="8kp8VVGvxcOMexEV5414-25" value="" style="whiteSpace=wrap;html=1;aspect=fixed;" parent="jGH_asHIfkDDXDCSUqxY-2" vertex="1">
          <mxGeometry width="173" height="173" as="geometry" />
        </mxCell>
        <mxCell id="8kp8VVGvxcOMexEV5414-4" value="DEMO Jenkins CI/CD" style="shape=image;verticalLabelPosition=bottom;labelBackgroundColor=default;verticalAlign=top;aspect=fixed;imageAspect=0;image=data:image/jpeg,/9j/4AAQSkZJRgABAQAAAQABAAD/2wCEAAoGBxQUExYTExQWFxYYGBgcGRkYGRkYHBkaGRwfICAiFx8ZHyoiISAnIBkZIzgjJysuMTExICE2OzYvOiowMS4BCwsLDw4PHRERHDAoIiQwMjAwMDAwLjAuMDIyMTAwMDAwMDIwMDAwMDIwMDAyMDAwMC4wMDAwMDAwMDAwMDAwMP/AABEIAQgAvwMBIgACEQEDEQH/xAAcAAACAwEBAQEAAAAAAAAAAAAABgQFBwMCAQj/xABNEAACAQIDBAcECAAMBQEJAAABAgMAEQQFIQYSMUEHEyJRYXGBMpGhsRQjQlJicoLBJDNDU3OSorKzwtHhCGOTo/AXFSU0VGSDw9Px/8QAGgEAAgMBAQAAAAAAAAAAAAAAAAMBAgQFBv/EAC0RAAIBAgUDAwQCAwEAAAAAAAABAgMRBBIhMUEFUXETImEykbHRgaEjQsEU/9oADAMBAAIRAxEAPwDZqKKKACiiigAooooAKKKV9r9vcJgAVkffmtpDHYvrwLckHix8gaAGelLaPpLwGFJUy9bIPsQ2cg9zNcIp8C1/Cs9xuY5tnNxGvUYU8gxSNh+N7b0vkBu+Aqqz7ZfB4OMxPiJJ8Wy2jigVd1XJAXfHaPHS1wTrYUE2LXOumbFyEjDxRQrrqfrX8Dc2UeW6fOlmXanMsS+59JxUjn7ELOpI/JCBf3Uz7JdFEktpcaTEnERLbrGH4zwQHuFz+U1p+UZRBhk6vDxJGvPdGp8WJ1Y+JJNLlNLYuoGKpshm8uphxBvzkmUH1EkgPwr6djc4j1EOIH5J0/yS3rczIO+vJmFU9VlvTMHbPc2wZ7c+Mhtp9d1jL6dcCp9KYMk6ZsXGQMRHFOumo+qfzuLofLdHnWrtKCLEXB4g8D50s53sDgMRc9T1Lm/bhtHqeZW24fVb1ZVVyVdNl1spt1hMd2YZN2W1zFJZZPGwvZgO9Sbc7UyV+etqOj/E4P66JuuiQ7wkjuskdtQzKNRb7yk246U59GfSf1pTC45h1hsIpjYCQ8lk5Bzybg3DQ23mJp7FGmjU6KKKkgKKKKACiiigAooooAKKKKACiilDpX2hbCYFjG27LMwijI4qWBLMPEIrWPfu0AK/SH0jymU4HLbmTe3HlQbzF+aQ+I1Bflra1riHkew2Hwq/ScxIllJ3hGTvrvHU3v8Axr3NyT2R/aqr2DzHAYCH6RNIJMTICFSMb7RJyW47Ks3E3I5DkbwM224E8hd1e/2VuLKO4a/Ggkvdo9qMViHTDYVSHl0VE4he927vcAL91NmxGwsOCHWPaXEH2pSPZvxEV+A724ny0HLozyHqoBipADPiVVyeO5EdURe4WsT3nvsKaZZOQpFSpwhkIn15bcK5MxNfBXqQBRvMyqO9iAPeaTqx2iPNFfFYEXBBB4EEEHyIr7UEhRRRUAFZb0m7DrGGxeGW0fGaMDRb8XQcl+8OA48L21IVU7RbXYLBnq55LuRcxqpkax+8BoAfxEXplNtPQpO1tSh6ItvzLu4HFPeQD6mRjrIAPYcni4HA/aA11F21GvzDn74dcSZMC7iO4eMFSjwsDewv90gFSDwsOIud86PtpPp2DjmNusF0lA5SLa5tyDAhgO5hWsztDHRRRQQFFFFABRRRQAUUUUAU21ufpgsNJiHF90WVeBd20VR5nieQueVYBiMRjM0xI3i0szXsL2SNb67o4Ig014nS+8x1e/8AiCzA3wuHHs9uVvMWRPgZK57MquBy+N0A+kYodYWtqEPs8eQUiw+8zGgk54LYrAYMA4xziJuPVrcIP0gi/m5se4Vw2qzGB8JLBDhYoUsCCoVSCrBrgIo7u88TUZmJJJJJOpJ1JPjUHPHtBJ5W95A/egDRei7Fl8rw5PFesQeSSMo9ygCmCqDo6w3V5dhV70L/APVZn/zCr+sU37maYrQpNttq0y+ANYPNJcRIeduLNbXdFx5kgc7jNsPsvmWaEYidxutqrTEgWP8AMxqDZeHIA8bnjTVjtnXxmcSSYhD9Gw6Q7gYHdluu8AORXfMhbyAOhp6pmbItNymXM9RK2B2MxOBmctPG0Dobom8LyXXdaxFhpvC978PR1oopUpOTuxiVgoooqCT6DSnP0d4WWWafEGWWSWR3J32QKCeyqhCDZVstyTw5cKa6KspNbENJ7mZbUdFe6pkwTsxAuYXIJP8ARvpr4Nx76OgbNjHipsK1wJY94A6WkiNiLHgSrG/5BWm1mmewDCZ9hJ1FlmkjJt96QmKT4OGPiTT6dRt2YqpBJXRtNFFFOEhRRRQAUUUUAFcpZQoLMQAASSTYADiSTwFencAEk2A1JPIVhnSf0gtjHOGwxIwwNiRxxDA/3L8Bz4nlYAq+lbaKLG40ywEmOOJYgx0DlWdiy/h7dgTxtfupkz2Ttog4RwwoPIRqf8xrPMyy5ogm/wAXBJH3bW089aYs02piLKUDOerhDfZAZYlDDXU2YHW1qiLTV0XnCUHlkrMsaq9pgTEI19p3VR5m9viBXjDbRxsbMCnjxHrbX4VIzJhv4Vz7IxMJJ5bu9e/lapKmx4aARosa8EVVHkosPlXSg0VhNQUUUUEnSOK+tUGUZiwxmLwkh1Rlmiv9qKVRe3gr7w9RVt/7ZgV+paaISCx3DIocA8OyTfWlHpPJi6nMYJESeE7tiR9bE51Ui43rE3t3FiNQDV4pPQo29xzqDtBmX0fDzT7m/wBUhbdvu71uV7G3urnsznK4vDx4hV3d8G6nXdZSVYX5i4NjzFql5jg1mikhf2ZEZD5MCD86rs9S260PWBxSyxpKhusiK6nwYAj4Guyi+lIHRZnTIZMsxGksDP1d79pQe0ov3G7DvU6aLTdn+fRYOLr5t7d3gvZXeN2vbmLcOJNDjaViFK6uV+0+YnC4zBuT9TP1kEhPBXJVoj798eRalfpq+rbBzj+TaX3gxMP7pqJt30hYbGYZ8OsMwN1ZXbq1Csp46Mx4bw8idaj7cY2afK8FLOhWQyMp3uLgI1nty3goP+1qdGNmmLbumjeAa+1kvRN0ilimBxb3JssErHj3RyE8+SsePA62vrVPEhRRRQAUUUs9Im1IwGEaUW61uxEDrdyDqR3KAWPkBzoAR+mjbfVsugbTT6Q4PfqIwfKxb0X7wpQ2cyjcAlcdo+yD9kHn5n4VB2fwBmkMshLANcltS7nXtHnqbnz8aZ5Ht51kxFX/AFX8ne6Xglb16i8fsVcSkuKxQhiG87P1ca8BpfU9w0LE91+6tEXZ3KMrRBjis0zi/bRpL95SJQQqg6bzC/jyqi6FcOrY+R29pIHKjxZ0BPuuP1Ve9K+TxnqyiA4jE4mGISN2jGu6QAn3VuASBxux507a0Tk1JOcpSlu2Gc7KZfmGFebLBEsqC4EQ3AxAvuSxkDdJHA2BvbiLg5zhJw+Gmic6AApfQ6ngPUfE08ts42UYvCzwSySQzSLDMGte8hsL7oA3b9ocwVtc71dMZ0S9ZPJJ9J3Y3kdwgiuyhmJsGL20va9vShSS50FuLY7bO4/r8NBMeMkSMfzFRvfG9T6h5NliYeCPDxlika2BY3J5knxJJOmlTKzPfQegooooJEnbPo4XFzNPHN1cj7u+rrvqxVQoIsQVNgBzGlUOE6HZd4b+IiVb67iMWI8L2APv9a1SirqpJKxRxiyJk+WR4eFIIRZEFhfUm5uSTzJJJPnUuiiqFzPelHZ51Zcywt1kjsZSvGy+zIO/dHZa/FbX0Bve7M53BmmFKyojMLLPEdQDxDLz3SRcHkRa9xTIRfQ1lO1OSTZViVxmE/iGa27rupvcY3/A1uyeRAHELdkXmVueBb9ruPWW7E4CFt+PDJvA3BcvLY/h6xmt6UudOB/g2H/pz/hv/tTZsxtBFjYBNFcWO66HijgAkHv0IIPMH0pO6a5L/RIubPI3u3F/z/CiN82pZq6shFzvK9z6xB2dN4D7J7x4fI1r/RLtscZEcPO18RCOJ4yx8A/5hoG8wftWCC6gggi4OhHhS9DPLgcSksRs0bbyE8GHAq3gQSp8DVqFXN7XubOo4JU/8kNnv8M/TtFV2z+bx4vDxYiP2ZFBtzU8GVrc1YFT4irGtByT5X596Us+ONzBkjN44SYohyLXs7erC1+5FNbD0gZ79EwM0ymz7u5H/SSdlT6X3vIGsI2Rwd3MhGiCw/Mf9B86pUlli2Pw1F1qqgufxyMGDw4hjVByHvPM+pryTXuZta8Vzd9WeysopRjstCHsTmIwmaoX0R2aJieSzWKnyDblz3A1qu02VGcwMPahxMUlu8KSre5WJ9Kx3aXA7w6wC9hZh+Hv9P38KddhekeNo1gxr7kigBZm9lwOHWH7LAcSdDxvc2rZdyipI8riaXpVZRez1XgfcRh0cbrqGF1axF+0jBlPmCAfSulUOdbaYPDxlzOkht2UidXdvIA6DxNhXbY3PWxmH+kND1QMjqo3t7eVbdoGw57w4cVNLyu1xd1excUUUVUkKKKKACiivKODexBsbGxvYjiD41IHDM8xjgjMsrbqAqCfF2Cj4sKnTMOHdS/t3k7YrBTQpq5Cso4bxRg27r32t60r4DajOFRY2y9pHAA32V0vbmwvYnvsR5CrKN1oUbs9TQ6Sek/aXDLhZsMJEeZ91dwHe3e0CS9tFIAuAdb2qBNlWd43szyJhYjxVCAbeUbMx8mcCrnJNjsDlydfIyll/lpioC/0a+yp97eNWSUXdu/gG2z10WZQ0GCUurLJK7SMrAgjgq3B1HZRTbxpV6UcR1mZYeHlFGp/UzMx+CJTps/tYuMndMNGxhjHbmcFQzH2VjXj3klrWA4ag1mc2N+k5hicQNV3iF59kWRCPNUv60arNJ9htCOepGK7r+tyfULOsH1kZt7S6r+49R+1TaKyxk4u6PT1acakHCWzLToJ2j3JnwLnsy3kivykUdpR+ZRvfoPfWzV+YcTI+FxSzRaMjrKnLUG9j4EggjuNfpTLcck0UcyG6SIrr5MAR866cXdXR46rTdObg90Zb/xA5rrhsKDw3pnH9hP/AMtLOQwdXh1727R/Vw+Fq8dK2KM+azLyQxRL6KL/ANt3qwl0AA4D9qzYmWiR2Oi0/dKp2VvucqKKKyHdCqfH5AGO9GQp+6fZ9O741cUVaE5Rd0JrUKdaNpK4qYLBAYmKGb2TNEslj9hnXesePsk61+jBAqIERQqqAFVRYKBoAAOAFfnvafDkOHGm8LXHJh/tb3VvGzOaDFYSGcWvJGC3g40cejBh6Vrk80Ezy9Wl6VVw7P8ArgkUUVQ7bzTQwLioBdsO++6cpISLSKfQh78ty9JSu7A3YvqBUTKMyjxEKTwtvI4uO8d4buINwR3ipdBJE2lzdMLA87xu6oAWEahmsTa+pAsOJN9BSztHsv8ASwuNwGIMMzop3kZkWZbdnfKG4YCwvrpoR3OLa8deWvd41nOb4rEZNKTCglwMrErGSR1Ltqyo2u6CbkCxB4WuCTeGr03KS03KXG5pnmFNpGnsPtdXHMht+MI3xINQ/wD1Px40M0d/GNL/ACp4wXSrgmH1gmiPcU3x6GMn5CpTdIGVtq0wP5oJT846Zd8xKW7MWMftli3yqLELLuytimiZ0VNVCOwABBA1C6jXSqTKdl8fmEgeUyhec0++Qo/5asbt5LYeIrTck2xwM8qwYaQlzchVhlUaDUklAB5nwHOr+q53HZWJy35FDaIxZVljRwXDMOrQm280kg7TnvIAZu7sgDSwrPdmsPuxX+8b+g0H7n1qXt9nZx+MEURvDFdVI4E/bfy0AHgB96u8aBQFGgAAHkKXUeWNuXqdTpdHNN1OFovJ6ooorOd4qNp4Lor/AHTY+Tf7ge+tU6Ds163L+qJ7UEjJ+lu2vu3iv6aznM4t6J1/CSPMaj4irvoBx+7isRBfSSFXHnE1vlL8K3YeV427Hm+q08tbMuV+BQxMnW5nKx13sTO3/cdh8hTBKdaWcibexQY8zI3vB/1pjJpGJ+peDodIVqDfd/8AAooopB1Aoorji8YkYu7W7hzPkKEm9EVlKMVmk7I85jhRJGynzB7iOFMHQfn2kuCc98sXkbB1Hrut6t3UhY/OXk7KAqp0sNWbzt8hXLA4ibCzRTqCkiEOlxoeRB8CCVI7jW6lSkoNM811DE06tROHHPc/RUy2NeCKg7M7RwY6ESQt2gBvxk9uNu5h3dzcDU8ilSVmZ4u6M9nD5LiC6qWy6du0ouTh3PcO7u7xpxUbz7hsQkiLJGwdGAKspuCDzBFfMZhUlRo5FDo4IZTqCD31neIw+LyZ2eAHEYBiWZGJvFfjcj2T+O26ftAGxqfr8/kj6fBpNcsTh0kRo5FV0YWZWAYEeINVOzu2GFxYAikAk5xPZZB5Dg3mpIq7qrTW5a9xPxvRfgHJKrLFf+bk09BIGA8q5wdFOBX2mxD/AJpFH+Gi06VCzXOIMOu9iJUjHLeOp/KvFj4AGpU5bXIyxOWS7PYfCgiCFUvoW1ZmA+8zEsR4XpX6U9rRBGcLC310g7ZB/i4z8mbgO4XOml6najpUZgY8EpQcOucdr/7aHQebXPgONJmVYUTSFppLkm5DNd3PMknX9zTqdJyldiqlRRWh92cxCJIQ2m8AFPIa8PXT3Uy0v53k+5eSMdjmv3fLw+Xy+5RnVrJKdOTd35vDxquIoSvdHU6Z1CEUqctFw/2X9FANFYjvhaonRJP1eaQjkwmQ+QjZvnGKl1S7JybmZRt3STf4cg/etWG5OL1he2L8kXJl3MVunkZF9wb/AEpkqjzGLqsynU6buJnUeTSMB7wRV5VcSvcvA3pEr0WvkK+MwAuTYDiTUbM8wEK3IuTwHf5+FLs+KlxDBdT3Kug/88TVaVGU9eB+Lx8KHt3l2/ZYZjn/ABWL+sf8o/c1HwWUSTHfkJAPNtWPkDyqyyvJFjsz2Z/7K+XefGrGWZV4n/WulSw8YLU8risfUrS1f6/g5YPARxDsLr3nUn1r5mWHSRCr6dx5g94rlLjyfZFvHnUVmJ1JvWi6tYxK97tlVgQ8U6WmMB31XrlLDcVmAL9kglQNSL62tWqpgM/jF45sLi4zqjkrdl5cAn95vM1ncsQYWYXFd8ozjGYP/wCFnYJe/Vt2k9AeH6d01nnTNUKo1bTbV5vhYf4ThYoTISiSqytZrE9lRI+tgT2tPlSfuZg4604icltbGeQNr4b1h5XrttXtjPmHURzqq9WxuFuAxfdFyGuRYA8z7Rq5kksbCsdWfp2yo7PT8JDEKTm3ZWtb5EfGYaRT9YrAk3uRxPgeB9Kushz3MCRDBipN77KPKna/CnXdm/4b8jarpnuLEAg8QRVVmGziOC0VkPNTqh/0+XhURrqWkkMr9JlH3Unf42ZbtgNoJew5nUHieshiA9Y2B91U+0GyT4VesxeJjEz+zGm9NI/ixbd3QPvEnwudKMlx+OBeKLGSKsdr/WM668Ny99NDwtUMH+FMcWWlZtd47zljy0GpFri3AW8KZms3b7Iwxw02otqybtd7EbLcnkm1A3V+83A/lHP5VJzTITEnWK+9a19LEeIse+1MfWhlBAIHcVKn3ECo2Nj3o3XvVvlSPXm5fB2X0yjGi0tZW3vz8Ij5XmO+i7/HhfxGmtQM3yS13iGnEoOX5f8ASuOUHsfqPyFWeGxRXQ6j5eVdVWlHU8i7wk8pXbP5iQwibVT7P4T3eRphpawiBsV2fZDs3oL/AL2plrk4iKU9D13Sqk50fdw7IKptkI9/MolHOSf/AA5DVwTbWuHQ/h+tzWFj9hZpD6xlPnIKvhluI6w9IryfOl7BmDNZmH8oIpl/qhT/AGo2NSEYEAjgRf30x/8AEBlV1w+KA4Fon/UN5L+AKuPNhSdkE+9Co5r2T6cPharYmOiYrpFS03Dur/YibUxdlG7iR79f8td9mChjNgAwNmPM8x/54GpeZYfrImXmRp5jUfGqHZzE7soXk4t68R+49abg56WM3WqLU83dX+xeY+ZgbA2BFQqnZkugPcfn/wDyoNb5bnCjsFFFFVJCiiigCJmegV/usD6f+WpklOtxzqixEe8pXvHx5VOyPE78K34r2T6cPhasOMhtI9F0Osk5QfNn9ibXifDo4s6hh4/taiedUF2YKPGq9BPiyY8MpCD2nbsjyvy8hr32FZKdOU37Tr4rFUqMHns/juV0ePSCeRU1RrADe5i3A89SRUmdZ45o8TPh5YozopZGA1UgC7Aa3N9bX5U39D2ZxoZcHJGqTBi4JHabd0ZW/EnK3K/cSXTOM4gGNiyySGR2xEZYsVVoyLNowOpHYNzbS49Nvprne1jzn/rnolok7pcLUyxM4hb+UA/NcfOjEZhHuMQ6HsnQMCTpVrtPslhos2jwyRbsTYfrWUO5BYtINCTcDsroLV3zHYnDSKRGpie2jKWIv+JWOo8rHxqscInqmaZ9bmvbKK8iblaWjHjc/wDnuqS7WBPcL+6o+DDKXje142K3BuLgkEA8+FfMzktGfHStidonEes7HXZeH25D+UfM/tV5UTKYNyFBztc+Z1/2qXXHqyzTbPb4Kl6dGMfi/wByLm0u7C5/CQPNtB86v+gDLrz4mcjRIkjHiZG3j7uqX30o7UT2VU7zc+Q/3PwrWuhbKepy5XIs07tL+nRU9CqBv1Vqw8bRv3OJ1armrZVwi+23yP6ZgpsPpvMt0vykQ7yem8BfwvX582cxJWQowI3tLHQhl5EcjxFfp6sE6YNnThcaZoxaPEEyKRwWUHtj3kP+o91NnHNFow4eq6VRSXB9pUzWExTkjvDr6m/zvTHl+KEsYceo7iONQNp8PdFfmpsfJv8Ae3vrJRk4Tsz0HUKca+H9SPGq8cllOweLeHAgMPnVbUnIZN+ADuuv+nwIqNXXbukzxlrNoKKKKgk4YycoBbmwHpUuaIqbGoWOS/V/0ij31a5nxX1/ahckvZEOoTxSozdUxAbU2IHz/aptcMffcO7x/bnVZxUlqMp1JQleLszpsvkDYuUtIxMSGzNcksfuqeXeTyFu+40jDwLGoRFCqBYACwFIuyG1kcEYglQhbk9YuurG/bXj3C4vy0p5wuKSRQ8bq6nmpBHwqaeW2hSu5uWuwpbbYN8PNFj4NHV13u7eHsk+BHYPhbvrT5Nu8JFg4cXM5WOXdC2UuwJFyCFH2d038VNLeY4NZonibg6keXcR4g2PpVZ0Q4iNjNluLijk6t+sRJFVwCDZt0MOTEMD/wAxqXUjZ3G0Z5o2fBN2pO/nlxqFwSWPnI1v71Q9rc3OHhsh+tk7Mfh3t+kfEipWaThs2zCRrBYkw8e8eFurDtfyN6SMfjziJmnNwvsxA8kHMjvJ1+HKrQdo27i6ivO74OGHiCKFHL4mosydZMkfK+vzPwFTXawJPAa1y2bi3neU+Q8zqfhb31SvLJA14Cj6teKffUvaKKr8+xnVx2HtPoPAcz+3rXJjFydkeyrVY0oOT2RWphnxmLSGPjK6xqe5ebeQG8/kK/SmDwqxRpFGN1UVUUdyqLAe4VlPQPs3dpMfINBeOG/M/wAow8tEB/OK1010krKyPHVJuc3J7s9VQbc7Nrj8K8BsH9qNj9iRfZPkblT4E1f0VJQ/L+XTvh5milUpZisitxRlNtfI/DWr3Mot6Jx+E28xqPiKcumTYgyqcfh0vIo+uUDV0UaOBzZQLHvX8oBznIMzBAic/kPf4H9vdWetT1zLg6+AxSyuhN6Pb9HrZOTSRfyn33B+QrtiFszDxNQdm+zOyfhYeqkf6GrLHDtn0+VdCDvBHn6qtUZwooqNmDLukFrHiO+/KpbsVSu7HTEcY/6SP+9VjmfFfX9qWzjWO7fXdYMPTvqfjs+VrEIRa/EgVVTWpeVOWhJoqvgxksn8XEX/ACK0n92rHD5JmUnsYPEesDqPe4AqM6J9ORHxGCRuVj3j96jQifDtvwuynvTn+ZeB9birtdic4bhhJPVoF+bivp2Azj/5WT/q4f8A/ZVXKLLxjJaXOmV9IDDTER734o9D6qdD6EeVR8wz2KPGw47DPvajrEsVOnZYEG3tIbA8Li9cMTsHmg1fBzHyKP8A3GNU2Ny+aE2mhliN7fWRumvhvAXqrm2rMtGnFO6LnH5205nVSf4TiJJZTwIjvZE9wBPmB318C20FU0WHlt2Ukse5W19wrplGVz4mUQ4dDJIQSF3lW4Gp1dgPjVlKy2Kyhme53zXEDd3QdTx8q64bNkhiVEG83EngLnj4m3D0rjnmz2JwjomJhMTOCVuyMCAbE7yMRpcX10uK1PZPohwyqsmMczPxKKxSNSOVxZnt3kgH7tKmlPc04erKhdw3fJlkWKxOIcRxB3c8EhUk+dl7VvE6Uxv0UZoYutKRFrX6oy3k8uG5f9daVgtqsBE/0TL4TM44x4SNdxfF5CVjAvxYtx8abcOzEAuoU9wO9bzNuPlQopbIidac3eTb8mRdEm20sUqZbiRZSSkW8u40Ugv9W4sNCbjXtBjbW+myVi/TplBhxMOMi7BlFmYW0mhsUb8xX/DFars1mwxWFgxA062NWI7mt2h6NcelSLLOiiigArF+lbo7MTNjMIl4Tdpo1GsR5ug/m+ZA9nj7Ps7RRQB+Wsjk/hCG/Em/jcH96vMxHa9B+9edssIkGbzRxqERZY91VFgBIiMbAcBdzpXTMvaHl+9Pp/SxFb6kyJXtY4SbvECe8c/S9eKKsKOeb4eHqXMahXAFiARzHpwvW4bKbO4H6PBNFhYAZIo33hGhY76A+0Rfn31h2KF0YfhPyrcei/FdZleEP3Yur/6RKf5KVU3NFN6DGiACwAA7hXuiiljAooooA+Vl/TXBvYMN9zEKfeHX/NWoVnHTAv8A7vmPdJEf+6o/eglCUJ1AFyOAqF0d4jqs3w5GimaRPSRHUfFlqLHwHkKhQ4rqcXHNe3VzQyX8EZWPyp1R3SM9FWbNg6c8qEuX9bbtQSI36ZD1bDy7Sn9Iq2yHDpj8thWbfKSxRmQK7IWugLKSpBsTe4B14cKmdIEO/luMX/6eVh5qhYfECqboexobLYbkC2+uv4ZHHytSTQesF9Mw14sDlEMUIOhbExoz+LhFY38SxNMmU4jFOP4RBFEfwTGX5xrb41U4vB5kzEx5hhlHJfoptbxJnJqflSYxT9fLhpV/5cTxN8ZHB9woIKDpqwHW5a7AXaKSOQeQO6x9FdqrugTMy+DlgJ/iZbr4JKN7++JDTJt8VOExKseyMPNvesbUlf8ADzAbYyTkTAvqokJ+DrQSa1RRRQQFFFFAH586Uxu5zMx0BbDtr4RRj/LXDMGBYW10FOvS1sBiMTN9LwqiS6Kskdwr3S9mTesGBBAIuD2dL30ypxNA5jdXjccUkUqfVWAPrTITy6C5wzaouKKiYfMVbRuyfh76lg0xNPYQ4tbnwi+lan0FYvey4x84ppF/rbsnzkNZbTz0C4u0uNgPC6SL72Vvh1dUqDqXJrNFFFKGhRRRQB8pA6VIt7L8UO4of6syH9qf6TOkCO+Cxg7oZj/VBb9qCUY7hj2F/KPlVXnCdsjvX/auqZmFUDd4C1ybVy3ZJnCxxs7kWCRqzsfILcnjTJSTVhUYNSua5nu3WEbAsrYhXklw5UIh3yHeK1mCXC2Jsd61KexHSFDg8KIJIpXYO7AoUtZje3aYG978qfNiOjXCxYeJ8VhkkxDKDIJfrApOu6FN0Fr20HqaaZNm8IUMZw0G6wKkCNBoRY2sNPSljbmeYTpMac2w2X4iU/hOg/MVUgepplyTMsRN/HYN8OORaWJ7+im491Lr9EE8ZP0TMpYkJuFIdT+po5AGNra7tcJeijMZNJczLKeN2mcf1WcCgDz0rbXRpC+DhcNI+kpUgiNOJVj95uFuQJvbS7h0U5CcLl8auCskpMsgOhBcDdB7iEVAR33qp2W6IMLh3SWaRsQ6EFVKhIww1BKXJJHi1vCtDoA+0UUUEBRRRQAVW53kWHxcfV4mFJF5bw1UnmjDtKfEEGrKigDHdp+hd1u+Bl3x/NTGzD8kgFj3AMB4saz3McvxOEbdmilhN7dtSFJ/C3st6E1+pK5vGGBDAEHiCLg+YNAH5cTNG5gH4U09EGabmapfQTJJH4X3Q4+MVvWthm2Ky9zvNgsMSeJ6mMX87Csf27wS5Zm6SxKI4g0EyKosoUGzqoHeUfT8VS5N7kKKWxvtFeVa4uOBr1UEhRRRQB8pZ2qjvBiV74ph70NM1UW0C3WYd8bfFKCUJvRXlWHOAgnMERlbrd6Qopc2mcC7EX0AA9KoeiKAQ5zPCRbdjxEa/pljtb9Kk0ydET3yuDwab/Fc/vS1j5fou0cUt7LJJFfymTqjfw3rtQBt9FFFBAUUUUAFFFFABRRRQAUUUUAFFFFABRRRQAVl3T/lW9BBiQNY3MbfklFwT5Mij9VajVNtllH0rBT4f7TxncvykXtIfR1WgCH0aZr9Iy3DSE3ZU6tzz3ojuEnz3b+tMtY/0D7QJGJ8LLIqXZZIg7BSWYbrqobmNxDYd5rYKACiiigD5VZm8dzbvW3zqwkkA4kCq7GYgORYHT40EoyXo823wuEwKwzGTrFZzuqhOhseOi3vfnVLnGbHMszw7wxOpZoY1U2LdhyxY7ugADEnjYKTeuuyWzcOIzaXCThurD4nRW3SSjnd1GtrXOlbVs/sphMHf6PAiMRYvqzkdxZyWt4XtQBdUUUUEBRRRQAUUUUAFFFFABRRRQAUUUUAFFFFABRRRQBim3PRXiziJpsLHHLFI5cIHCupfVgQ9ltvFrWbhbSlqPL83whASPHwgcoxMY/+3dD5UUUAS4+kDOYvanlt3SQR/NowfjXb/wBV80OnWR+kQv8ACiigk5y7bZxL7LS6/wA3hw3zRjUaTC5ziuy0ePcHkyyxofO4VPfRRQA+dFnRxLhZRi8VZXVSI4lIbd3hYmQrpe1wFBI1vfu1CiiggKKKKACiiigAooooA//Z;" parent="jGH_asHIfkDDXDCSUqxY-2" vertex="1">
          <mxGeometry x="32.25" y="10.490000000000009" width="101.75" height="140.63" as="geometry" />
        </mxCell>
        <mxCell id="yNPm1ZNMa2rL7asjhPv2-1" value="" style="group" parent="1" vertex="1" connectable="0">
          <mxGeometry x="919" y="445" width="160" height="160" as="geometry" />
        </mxCell>
        <mxCell id="8kp8VVGvxcOMexEV5414-60" value="" style="whiteSpace=wrap;html=1;aspect=fixed;fontFamily=Helvetica;fontSize=11;fontColor=default;" parent="yNPm1ZNMa2rL7asjhPv2-1" vertex="1">
          <mxGeometry width="160" height="160" as="geometry" />
        </mxCell>
        <mxCell id="a15QQxg-1uekY9o79v2H-2" value="&lt;font style=&quot;font-size: 10px;&quot;&gt;ECR Elastic Container Registry&lt;br&gt;&amp;nbsp;(Demo Env&lt;span style=&quot;color: rgb(77, 81, 86); font-family: arial, sans-serif; text-align: left; background-color: rgb(255, 255, 255);&quot;&gt;)&lt;/span&gt;&lt;/font&gt;" style="sketch=0;points=[[0,0,0],[0.25,0,0],[0.5,0,0],[0.75,0,0],[1,0,0],[0,1,0],[0.25,1,0],[0.5,1,0],[0.75,1,0],[1,1,0],[0,0.25,0],[0,0.5,0],[0,0.75,0],[1,0.25,0],[1,0.5,0],[1,0.75,0]];outlineConnect=0;fontColor=#232F3E;gradientColor=#F78E04;gradientDirection=north;fillColor=#D05C17;strokeColor=#ffffff;dashed=0;verticalLabelPosition=bottom;verticalAlign=top;align=center;html=1;fontSize=12;fontStyle=0;aspect=fixed;shape=mxgraph.aws4.resourceIcon;resIcon=mxgraph.aws4.ecr;" vertex="1" parent="yNPm1ZNMa2rL7asjhPv2-1">
          <mxGeometry x="25" y="5" width="115" height="115" as="geometry" />
        </mxCell>
        <mxCell id="yNPm1ZNMa2rL7asjhPv2-2" value="" style="group" parent="1" vertex="1" connectable="0">
          <mxGeometry x="920" y="277" width="160" height="160" as="geometry" />
        </mxCell>
        <mxCell id="8kp8VVGvxcOMexEV5414-59" value="" style="whiteSpace=wrap;html=1;aspect=fixed;fontFamily=Helvetica;fontSize=11;fontColor=default;" parent="yNPm1ZNMa2rL7asjhPv2-2" vertex="1">
          <mxGeometry width="160" height="160" as="geometry" />
        </mxCell>
        <mxCell id="8kp8VVGvxcOMexEV5414-9" value="" style="image;sketch=0;aspect=fixed;html=1;points=[];align=center;fontSize=12;image=img/lib/mscae/Docker.svg;" parent="yNPm1ZNMa2rL7asjhPv2-2" vertex="1">
          <mxGeometry x="9.275524475524435" y="19" width="129.76" height="106.4" as="geometry" />
        </mxCell>
        <mxCell id="la4yaqGemhD7LO5vucIc-1" value="&lt;font style=&quot;&quot;&gt;&lt;i style=&quot;&quot;&gt;&lt;b&gt;Webhook triggers&lt;/b&gt;&lt;br&gt;&lt;/i&gt;&lt;/font&gt;" style="text;html=1;align=center;verticalAlign=middle;resizable=0;points=[];autosize=1;strokeColor=none;fillColor=none;rotation=-90;" parent="1" vertex="1">
          <mxGeometry x="390" y="249" width="130" height="30" as="geometry" />
        </mxCell>
        <mxCell id="DXkEfNUYiundVsrWyW-e-12" value="" style="group" vertex="1" connectable="0" parent="1">
          <mxGeometry x="640" y="730" width="160" height="160" as="geometry" />
        </mxCell>
        <mxCell id="DXkEfNUYiundVsrWyW-e-13" value="" style="whiteSpace=wrap;html=1;aspect=fixed;fontFamily=Helvetica;fontSize=11;fontColor=default;" vertex="1" parent="DXkEfNUYiundVsrWyW-e-12">
          <mxGeometry x="-5" width="160" height="160" as="geometry" />
        </mxCell>
        <mxCell id="DXkEfNUYiundVsrWyW-e-14" value="&lt;font color=&quot;#000000&quot;&gt;&lt;font style=&quot;font-size: 10px;&quot;&gt;&amp;nbsp;Elastic Kubernetes Service (EKS)&lt;/font&gt;&amp;nbsp;&lt;/font&gt;&lt;br style=&quot;border-color: var(--border-color); color: rgb(0, 0, 0); background-color: rgb(255, 255, 255);&quot;&gt;&lt;span style=&quot;color: rgb(0, 0, 0); background-color: rgb(255, 255, 255);&quot;&gt;DEMO ENV N&lt;/span&gt;" style="sketch=0;points=[[0,0,0],[0.25,0,0],[0.5,0,0],[0.75,0,0],[1,0,0],[0,1,0],[0.25,1,0],[0.5,1,0],[0.75,1,0],[1,1,0],[0,0.25,0],[0,0.5,0],[0,0.75,0],[1,0.25,0],[1,0.5,0],[1,0.75,0]];outlineConnect=0;fontColor=#232F3E;gradientColor=#F78E04;gradientDirection=north;fillColor=#D05C17;strokeColor=#ffffff;dashed=0;verticalLabelPosition=bottom;verticalAlign=top;align=center;html=1;fontSize=12;fontStyle=0;aspect=fixed;shape=mxgraph.aws4.resourceIcon;resIcon=mxgraph.aws4.eks_cloud;" vertex="1" parent="DXkEfNUYiundVsrWyW-e-12">
          <mxGeometry x="30" y="22" width="90" height="90" as="geometry" />
        </mxCell>
        <mxCell id="DXkEfNUYiundVsrWyW-e-15" style="edgeStyle=orthogonalEdgeStyle;rounded=0;orthogonalLoop=1;jettySize=auto;html=1;" edge="1" parent="DXkEfNUYiundVsrWyW-e-12" source="DXkEfNUYiundVsrWyW-e-14" target="DXkEfNUYiundVsrWyW-e-14">
          <mxGeometry relative="1" as="geometry" />
        </mxCell>
        <mxCell id="DXkEfNUYiundVsrWyW-e-16" value="" style="endArrow=classic;html=1;rounded=0;entryX=0.438;entryY=-0.009;entryDx=0;entryDy=0;entryPerimeter=0;" edge="1" parent="1" target="DXkEfNUYiundVsrWyW-e-8">
          <mxGeometry width="50" height="50" relative="1" as="geometry">
            <mxPoint x="470" y="650" as="sourcePoint" />
            <mxPoint x="520" y="600" as="targetPoint" />
          </mxGeometry>
        </mxCell>
      </root>
    </mxGraphModel>
  </diagram>
</mxfile>
